<?xml version="1.0" encoding="utf-8"?>
<!-- Generator: Adobe Illustrator 21.1.0, SVG Export Plug-In . SVG Version: 6.00 Build 0)  -->
<svg version="1.1" id="Layer_1" xmlns="http://www.w3.org/2000/svg" xmlns:xlink="http://www.w3.org/1999/xlink" x="0px" y="0px"
	 viewBox="0 0 2834.6 1251.3" style="enable-background:new 0 0 2834.6 1251.3;" xml:space="preserve">
<style type="text/css">
	.st0{opacity:0.2;}
	.st1{fill:#FFFFFF;}
</style>
<g class="st0">
	<path class="st1" d="M12.1,831.2c21.8,0,43.6,0.1,65.4-0.1c4.9-0.1,6.3,1.3,6.2,6.2c-0.3,19.2-0.3,38.4,0,57.5
		c0.1,4.9-1.3,6.3-6.2,6.2c-21.8-0.3-43.6-0.1-65.4-0.1C12.1,877.7,12.1,854.4,12.1,831.2z"/>
	<path class="st1" d="M12.1,916.7c21.8,0,43.6,0.1,65.4-0.1c4.9-0.1,6.3,1.3,6.2,6.2c-0.3,19.2-0.3,38.4,0,57.5
		c0.1,4.9-1.3,6.3-6.2,6.2c-21.8-0.3-43.6-0.1-65.4-0.1C12.1,963.2,12.1,939.9,12.1,916.7z"/>
	<path class="st1" d="M12.1,578.3c21.8,0,43.6,0.1,65.4-0.1c4.9-0.1,6.3,1.3,6.2,6.2c-0.3,19.2-0.3,38.4,0,57.5
		c0.1,4.9-1.3,6.3-6.2,6.2c-21.8-0.3-43.6-0.1-65.4-0.1C12.1,624.8,12.1,601.5,12.1,578.3z"/>
	<path class="st1" d="M12.1,1085.9c21.8,0,43.6,0.1,65.4-0.1c4.9-0.1,6.3,1.3,6.2,6.2c-0.3,19.2-0.3,38.4,0,57.5
		c0.1,4.9-1.3,6.3-6.2,6.2c-21.8-0.3-43.6-0.1-65.4-0.1C12.1,1132.4,12.1,1109.1,12.1,1085.9z"/>
	<path class="st1" d="M12.1,410.8c21.8,0,43.6,0.1,65.4-0.1c4.9-0.1,6.3,1.3,6.2,6.2c-0.3,19.2-0.3,38.4,0,57.5
		c0.1,4.9-1.3,6.3-6.2,6.2c-21.8-0.3-43.6-0.1-65.4-0.1C12.1,457.3,12.1,434.1,12.1,410.8z"/>
	<path class="st1" d="M12.1,1169.6c21.8,0,43.6,0.1,65.4-0.1c4.9-0.1,6.3,1.3,6.2,6.2c-0.3,19.2-0.3,38.4,0,57.5
		c0.1,4.9-1.3,6.3-6.2,6.2c-21.8-0.3-43.6-0.1-65.4-0.1C12.1,1216.1,12.1,1192.8,12.1,1169.6z"/>
	<path class="st1" d="M12.1,662c21.8,0,43.6,0.1,65.4-0.1c4.9-0.1,6.3,1.3,6.2,6.2c-0.3,19.2-0.3,38.4,0,57.5
		c0.1,4.9-1.3,6.3-6.2,6.2c-21.8-0.3-43.6-0.1-65.4-0.1C12.1,708.5,12.1,685.2,12.1,662z"/>
	<path class="st1" d="M845.9,1070.2c-10.5,0-20.9-0.2-31.4,0.1c-4.3,0.1-5.3-1.3-5.3-5.4c0.2-19.8,0.2-39.5,0-59.3
		c0-4.3,1.3-5.3,5.4-5.3c20.9,0.2,41.8,0.2,62.8,0c4.3,0,5.3,1.3,5.3,5.4c-0.2,19.8-0.2,39.5,0,59.3c0,4.3-1.3,5.4-5.4,5.3
		C866.8,1070,856.3,1070.2,845.9,1070.2z"/>
	<path class="st1" d="M846.7,662c10.2,0,20.3,0.2,30.5-0.1c4.1-0.1,5.5,0.9,5.4,5.2c-0.2,19.8-0.2,39.5,0,59.3c0,4-0.9,5.5-5.2,5.4
		c-20.9-0.2-41.8-0.2-62.8,0c-4,0-5.5-0.9-5.4-5.2c0.2-19.8,0.3-39.5,0-59.3c-0.1-5.2,2.2-5.5,6.2-5.4
		C825.8,662.1,836.2,662,846.7,662z"/>
	<path class="st1" d="M932,731.8c-10.5,0-20.9-0.2-31.4,0.1c-4.2,0.1-6.1-0.7-6-5.6c0.3-19.5,0.2-38.9,0-58.4c0-4.2,0.7-6.1,5.6-6
		c20.6,0.3,41.3,0.2,61.9,0c4.2,0,6.1,0.7,6,5.6c-0.3,19.5-0.3,38.9,0,58.4c0.1,5.3-1.9,6.1-6.5,6
		C951.8,731.5,941.9,731.8,932,731.8z"/>
	<path class="st1" d="M573.8,1000.4c10.5,0,20.9,0.2,31.4-0.1c4.2-0.1,5.4,1.2,5.3,5.3c-0.2,19.8-0.2,39.5,0,59.3
		c0,4.2-1.2,5.4-5.3,5.3c-20.9-0.2-41.8-0.2-62.8,0c-4.2,0-5.4-1.2-5.3-5.3c0.2-19.8,0.2-39.5,0-59.3c0-4.2,1.1-5.5,5.3-5.3
		C552.9,1000.6,563.3,1000.4,573.8,1000.4z"/>
	<path class="st1" d="M641.4,353.2c-10.5,0-20.9-0.2-31.4,0.1c-3.8,0.1-4.9-1-4.9-4.9c0.2-20,0.2-40.1,0-60.2c0-3.8,1-4.9,4.9-4.9
		c21.2,0.2,42.4,0.2,63.6,0c3.8,0,4.9,1,4.9,4.9c-0.2,20-0.2,40.1,0,60.2c0,3.8-1,5-4.9,4.9C662.9,353.1,652.2,353.2,641.4,353.2z"
		/>
	<path class="st1" d="M932.2,325.3c10.2,0,20.3,0.2,30.5-0.1c4.2-0.1,5.4,1.1,5.4,5.3c-0.2,19.8-0.2,39.5,0,59.3
		c0,4.1-1.1,5.4-5.3,5.4c-20.9-0.2-41.8-0.2-62.8,0c-4.1,0-5.4-1.1-5.4-5.3c0.2-19.8,0.2-39.5,0-59.3c0-4.1,1.1-5.5,5.3-5.4
		C910.7,325.5,921.5,325.3,932.2,325.3z"/>
	<path class="st1" d="M573.8,914.9c10.5,0,20.9,0.2,31.4-0.1c4.2-0.1,5.4,1.1,5.3,5.3c-0.2,19.8-0.2,39.5,0,59.3
		c0,4.2-1.1,5.4-5.3,5.3c-20.9-0.2-41.8-0.2-62.8,0c-4.2,0-5.4-1.1-5.3-5.3c0.2-19.8,0.2-39.5,0-59.3c0-4.2,1.1-5.5,5.3-5.3
		C552.9,915.1,563.3,914.9,573.8,914.9z"/>
	<path class="st1" d="M135.9,817.2c-10.5,0-20.9-0.2-31.4,0.1c-4.3,0.1-5.3-1.3-5.3-5.4c0.2-19.8,0.2-39.5,0-59.3
		c0-4.3,1.3-5.3,5.4-5.3c20.9,0.2,41.8,0.2,62.8,0c4.3,0,5.3,1.3,5.3,5.4c-0.2,19.8-0.2,39.5,0,59.3c0,4.3-1.3,5.4-5.4,5.3
		C156.8,817,146.4,817.2,135.9,817.2z"/>
	<path class="st1" d="M663.3,986.4c-10.5,0-20.9-0.2-31.4,0.1c-4.3,0.1-6-0.8-5.9-5.6c0.3-19.5,0.2-38.9,0-58.4c0-4.3,0.8-6,5.6-5.9
		c20.6,0.3,41.3,0.2,61.9,0c4.3,0,6,0.8,5.9,5.6c-0.3,19.5-0.3,38.9,0,58.4c0.1,5.4-2.1,6-6.6,5.9
		C683.1,986.2,673.2,986.4,663.3,986.4z"/>
	<path class="st1" d="M662.4,901c-10.5,0-20.9-0.1-31.4,0.1c-3.7,0.1-5-0.9-5-4.8c0.2-20,0.2-40.1,0-60.2c0-3.7,0.9-5,4.8-5
		c21.2,0.2,42.4,0.2,63.6,0c3.7,0,5,0.9,5,4.8c-0.2,20-0.2,40.1,0,60.2c0.1,4.8-2,5-5.7,4.9C683.3,900.8,672.9,901,662.4,901z"/>
	<path class="st1" d="M135.6,986.4c-10.5,0-20.9-0.1-31.4,0.1c-3.7,0.1-5-0.9-5-4.8c0.2-20,0.2-40.1,0-60.2c0-3.7,0.9-5,4.8-5
		c21.2,0.2,42.4,0.2,63.6,0c3.7,0,5,0.9,5,4.8c-0.2,20-0.2,40.1,0,60.2c0.1,4.8-2,5-5.7,4.9C156.5,986.3,146.1,986.4,135.6,986.4z"
		/>
	<path class="st1" d="M662.3,564.3c-10.2,0-20.4-0.3-30.5,0.1c-4.7,0.2-5.8-1.4-5.7-5.9c0.2-19.5,0.3-38.9,0-58.4
		c-0.1-4.7,1.4-5.8,5.9-5.7c20.6,0.2,41.3,0.2,61.9,0c4.7-0.1,5.8,1.4,5.7,5.9c-0.2,19.5-0.3,38.9,0,58.4c0.1,4.7-1.4,5.8-5.9,5.7
		C683.2,564.1,672.7,564.3,662.3,564.3z"/>
	<path class="st1" d="M845.4,564.3c-10.2,0-20.4-0.3-30.5,0.1c-4.7,0.2-5.8-1.4-5.7-5.9c0.2-19.5,0.3-38.9,0-58.4
		c-0.1-4.7,1.4-5.8,5.9-5.7c20.6,0.2,41.3,0.2,61.9,0c4.7-0.1,5.8,1.4,5.7,5.9c-0.2,19.5-0.3,38.9,0,58.4c0.1,4.7-1.4,5.8-5.9,5.7
		C866.3,564.1,855.9,564.3,845.4,564.3z"/>
	<path class="st1" d="M931.3,564.3c-10.5,0-20.9-0.2-31.4,0.1c-4.3,0.1-5.3-1.3-5.3-5.4c0.2-19.8,0.2-39.5,0-59.3
		c0-4.3,1.3-5.3,5.4-5.3c20.9,0.2,41.8,0.2,62.8,0c4.3,0,5.3,1.3,5.3,5.4c-0.2,19.8-0.2,39.5,0,59.3c0,4.3-1.3,5.4-5.4,5.3
		C952.3,564.1,941.8,564.3,931.3,564.3z"/>
	<path class="st1" d="M845.9,1155.6c-10.5,0-20.9-0.2-31.4,0.1c-4.2,0.1-5.4-1.2-5.3-5.4c0.2-19.8,0.2-39.5,0-59.3
		c0-4.2,1.2-5.4,5.4-5.3c20.9,0.2,41.8,0.2,62.8,0c4.2,0,5.4,1.2,5.3,5.4c-0.2,19.8-0.2,39.5,0,59.3c0,4.2-1.2,5.4-5.4,5.3
		C866.8,1155.4,856.4,1155.6,845.9,1155.6z"/>
	<path class="st1" d="M135.9,578.3c10.5,0,20.9,0.2,31.4-0.1c4.2-0.1,5.4,1.1,5.4,5.3c-0.2,19.8-0.2,39.5,0,59.3
		c0,4.2-1.1,5.4-5.3,5.4c-20.9-0.2-41.8-0.2-62.8,0c-4.2,0-5.4-1.1-5.4-5.3c0.2-19.8,0.2-39.5,0-59.3c0-4.2,1.1-5.5,5.3-5.4
		C115,578.4,125.5,578.3,135.9,578.3z"/>
	<path class="st1" d="M573.8,747.5c10.5,0,20.9,0.2,31.4-0.1c4.2-0.1,5.4,1.2,5.3,5.3c-0.2,19.8-0.2,39.5,0,59.3
		c0,4.2-1.2,5.4-5.3,5.3c-20.9-0.2-41.8-0.2-62.8,0c-4.2,0-5.4-1.1-5.3-5.3c0.2-19.8,0.2-39.5,0-59.3c0-4.2,1.1-5.5,5.3-5.3
		C552.9,747.6,563.3,747.5,573.8,747.5z"/>
	<path class="st1" d="M666.3,817.2c-10.5,0-20.9-0.2-31.4,0.1c-4.2,0.1-5.4-1.1-5.3-5.3c0.2-19.8,0.2-39.5,0-59.3
		c0-4.2,1.2-5.4,5.3-5.3c20.9,0.2,41.8,0.2,62.8,0c4.2,0,5.4,1.1,5.3,5.3c-0.2,19.8-0.2,39.5,0,59.3c0,4.2-1.1,5.5-5.3,5.3
		C687.2,817,676.7,817.2,666.3,817.2z"/>
	<path class="st1" d="M845.9,901c-10.5,0-20.9-0.2-31.4,0.1c-4.2,0.1-5.4-1.2-5.3-5.4c0.2-19.8,0.2-39.5,0-59.3
		c0-4.2,1.2-5.4,5.4-5.3c20.9,0.2,41.8,0.2,62.8,0c4.2,0,5.4,1.2,5.3,5.4c-0.2,19.8-0.2,39.5,0,59.3c0,4.2-1.2,5.4-5.4,5.3
		C866.8,900.8,856.4,901,845.9,901z"/>
	<path class="st1" d="M932,747.5c9.9,0,19.8,0.2,29.6-0.1c4.5-0.1,6.7,0.5,6.6,5.9c-0.4,19.5-0.3,38.9,0,58.4
		c0.1,4.8-1.6,5.7-5.9,5.6c-20.6-0.2-41.3-0.3-61.9,0c-4.8,0.1-5.7-1.6-5.6-5.9c0.2-19.5,0.3-38.9,0-58.4c-0.1-4.8,1.6-5.8,5.9-5.6
		C911,747.6,921.5,747.5,932,747.5z"/>
	<path class="st1" d="M931.4,986.4c-10.5,0-20.9-0.2-31.4,0.1c-4.2,0.1-5.4-1.1-5.3-5.3c0.2-19.8,0.2-39.5,0-59.3
		c0-4.2,1.2-5.4,5.3-5.3c20.9,0.2,41.8,0.2,62.8,0c4.2,0,5.4,1.1,5.3,5.3c-0.2,19.8-0.2,39.5,0,59.3c0,4.2-1.1,5.5-5.3,5.3
		C952.3,986.2,941.9,986.4,931.4,986.4z"/>
	<path class="st1" d="M135.1,1070.2c-10.2,0-20.3-0.2-30.5,0.1c-4.2,0.1-5.4-1.2-5.3-5.3c0.2-19.8,0.2-39.5,0-59.3
		c0-4.2,1.2-5.4,5.3-5.3c20.9,0.2,41.8,0.2,62.8,0c4.2,0,5.4,1.2,5.3,5.3c-0.2,19.8-0.2,39.5,0,59.3c0,4.2-1.1,5.5-5.3,5.3
		C156.6,1070,145.9,1070.2,135.1,1070.2z"/>
	<path class="st1" d="M574.7,662c10.2,0,20.3,0.2,30.5-0.1c4.2-0.1,5.4,1.2,5.3,5.3c-0.2,19.8-0.2,39.5,0,59.3
		c0,4.2-1.2,5.4-5.3,5.3c-20.9-0.2-41.8-0.2-62.8,0c-4.2,0-5.4-1.2-5.3-5.3c0.2-19.8,0.2-39.5,0-59.3c0-4.2,1.1-5.5,5.3-5.3
		C553.2,662.2,563.9,662,574.7,662z"/>
	<path class="st1" d="M662.3,731.8c-10.5,0-20.9-0.2-31.4,0.1c-3.8,0.1-4.9-1-4.9-4.9c0.2-20,0.2-40.1,0-60.2c0-3.8,1-4.9,4.9-4.9
		c21.2,0.2,42.4,0.2,63.6,0c3.8,0,4.9,1,4.9,4.9c-0.2,20-0.2,40.1,0,60.2c0,3.8-1,5-4.9,4.9C683.9,731.6,673.1,731.8,662.3,731.8z"
		/>
	<path class="st1" d="M930.6,1070.2c-10.2,0-20.3-0.2-30.5,0.1c-4.1,0.1-5.5-1-5.4-5.3c0.2-19.8,0.2-39.5,0-59.3
		c0-4.1,1-5.5,5.3-5.4c20.9,0.2,41.8,0.2,62.8,0c4.1,0,5.5,1,5.4,5.3c-0.2,19.8-0.3,39.5,0,59.3c0.1,5.3-2.3,5.4-6.2,5.4
		C951.5,1070.1,941.1,1070.2,930.6,1070.2z"/>
	<path class="st1" d="M662.8,1075.4c-10.5,0-20.9-0.2-31.4,0.1c-4.2,0.1-5.4-1.2-5.3-5.3c0.2-19.8,0.2-39.5,0-59.3
		c0-4.2,1.2-5.4,5.3-5.3c20.9,0.2,41.8,0.2,62.8,0c4.2,0,5.4,1.2,5.3,5.3c-0.2,19.8-0.2,39.5,0,59.3c0,4.2-1.2,5.5-5.3,5.3
		C683.7,1075.2,673.2,1075.4,662.8,1075.4z"/>
	<path class="st1" d="M136,1155.6c-10.5,0-20.9-0.2-31.4,0.1c-4.2,0.1-5.4-1.1-5.3-5.3c0.2-19.8,0.2-39.5,0-59.3
		c0-4.2,1.2-5.4,5.3-5.3c20.9,0.2,41.8,0.2,62.8,0c4.2,0,5.4,1.1,5.3,5.3c-0.2,19.8-0.2,39.5,0,59.3c0,4.2-1.1,5.5-5.3,5.3
		C156.9,1155.4,146.4,1155.6,136,1155.6z"/>
	<path class="st1" d="M573.8,1155.6c-10.5,0-20.9-0.2-31.4,0.1c-4.2,0.1-5.4-1.2-5.3-5.3c0.2-19.8,0.2-39.5,0-59.3
		c0-4.2,1.2-5.4,5.3-5.3c20.9,0.2,41.8,0.2,62.8,0c4.2,0,5.4,1.2,5.3,5.3c-0.2,19.8-0.2,39.5,0,59.3c0,4.2-1.1,5.5-5.3,5.3
		C594.7,1155.4,584.3,1155.6,573.8,1155.6z"/>
	<path class="st1" d="M662.4,1155.6c-10.5,0-20.9-0.1-31.4,0.1c-3.7,0.1-5-0.9-5-4.8c0.2-20,0.2-40.1,0-60.2c0-3.7,0.9-5,4.8-5
		c21.2,0.2,42.4,0.2,63.6,0c3.7,0,5,0.9,5,4.8c-0.2,20-0.2,40.1,0,60.2c0.1,4.7-2,5-5.7,4.9C683.3,1155.5,672.9,1155.6,662.4,1155.6
		z"/>
	<path class="st1" d="M931.7,1085.9c10.2,0,20.3,0.2,30.5-0.1c4.3-0.1,6,0.8,5.9,5.6c-0.3,19.5-0.2,38.9,0,58.4c0,4.3-0.8,6-5.6,5.9
		c-20.6-0.3-41.3-0.2-61.9,0c-4.3,0-6-0.8-5.9-5.6c0.3-19.5,0.3-38.9,0-58.4c-0.1-5.4,2.1-6,6.6-5.9
		C911.4,1086.1,921.5,1085.9,931.7,1085.9z"/>
	<path class="st1" d="M135.1,1239.4c-10.2,0-20.3-0.2-30.5,0.1c-4.2,0.1-5.4-1.1-5.4-5.3c0.2-19.8,0.2-39.5,0-59.3
		c0-4.2,1.1-5.4,5.3-5.4c20.9,0.2,41.8,0.2,62.8,0c4.2,0,5.4,1.1,5.4,5.3c-0.2,19.8-0.2,39.5,0,59.3c0,4.2-1.1,5.5-5.3,5.4
		C156.6,1239.2,145.9,1239.4,135.1,1239.4z"/>
	<path class="st1" d="M573.1,1239.4c-9.9,0-19.8-0.2-29.6,0.1c-4.7,0.2-6.5-0.9-6.4-6.1c0.3-19.2,0.3-38.4,0-57.5
		c-0.1-4.7,0.9-6.5,6.1-6.4c20.3,0.3,40.7,0.3,61,0c4.7-0.1,6.5,0.9,6.4,6.1c-0.3,19.2-0.4,38.4,0,57.5c0.1,5.9-2.1,6.5-7,6.4
		C593.4,1239.1,583.3,1239.4,573.1,1239.4z"/>
	<path class="st1" d="M662.8,1239.4c-10.5,0-20.9-0.2-31.4,0.1c-4.2,0.1-5.4-1.1-5.3-5.3c0.2-19.8,0.2-39.5,0-59.3
		c0-4.2,1.1-5.4,5.3-5.3c20.9,0.2,41.8,0.2,62.8,0c4.2,0,5.4,1.1,5.3,5.3c-0.2,19.8-0.2,39.5,0,59.3c0,4.2-1.1,5.5-5.3,5.3
		C683.7,1239.2,673.2,1239.4,662.8,1239.4z"/>
	<path class="st1" d="M845.9,1239.4c-10.5,0-20.9-0.2-31.4,0.1c-4.2,0.1-5.4-1.2-5.3-5.3c0.2-19.8,0.2-39.5,0-59.3
		c0-4.2,1.2-5.4,5.3-5.3c20.9,0.2,41.8,0.2,62.8,0c4.2,0,5.4,1.1,5.3,5.3c-0.2,19.8-0.2,39.5,0,59.3c0,4.2-1.1,5.5-5.3,5.3
		C866.9,1239.2,856.4,1239.4,845.9,1239.4z"/>
	<path class="st1" d="M930.7,1239.4c-9.9,0-19.8-0.2-29.6,0.1c-4.6,0.1-6.5-0.8-6.5-6c0.3-19.2,0.3-38.4,0-57.5
		c-0.1-4.6,0.8-6.5,6-6.5c20.3,0.3,40.7,0.3,61,0c4.6-0.1,6.5,0.8,6.5,6c-0.3,19.2-0.4,38.4,0,57.5c0.1,5.8-2,6.6-7,6.4
		C951.1,1239.1,940.9,1239.4,930.7,1239.4z"/>
	<path class="st1" d="M1330.9,260.8c10.5,0,20.9,0.2,31.4-0.1c4.2-0.1,5.4,1.1,5.4,5.3c-0.2,19.8-0.2,39.5,0,59.3
		c0,4.2-1.1,5.4-5.3,5.4c-20.3-0.2-40.7-0.2-61,0c-5.3,0.1-7.2-1.8-7.1-7.1c0.2-19.2,0.2-38.4,0-57.5c0-4.2,1.2-5.4,5.3-5.3
		C1309.9,261,1320.4,260.8,1330.9,260.8z"/>
	<path class="st1" d="M136,831.2c10.5,0,20.9,0.2,31.4-0.1c4.2-0.1,5.4,1.2,5.3,5.4c-0.2,19.8-0.2,39.5,0,59.3
		c0,4.2-1.2,5.4-5.4,5.3c-20.3-0.2-40.7-0.2-61,0c-5.3,0.1-7.1-1.9-7.1-7.1c0.2-19.2,0.2-38.4,0-57.5c0-4.3,1.3-5.4,5.4-5.3
		C115.1,831.4,125.5,831.2,136,831.2z"/>
	<path class="st1" d="M931.9,831.2c10.2,0,20.3,0.3,30.5-0.1c4.7-0.2,5.8,1.4,5.7,5.9c-0.2,19.5-0.3,38.9,0,58.4
		c0.1,4.7-1.4,5.8-5.9,5.7c-20-0.2-40.1-0.3-60.1,0c-5.8,0.1-7.6-2-7.5-7.6c0.3-18.9,0.3-37.8,0-56.7c-0.1-4.7,1.5-5.8,5.9-5.7
		C911,831.4,921.5,831.2,931.9,831.2z"/>
	<path class="st1" d="M1019.2,731.8c-9.9,0-19.8-0.2-29.6,0.1c-4.2,0.1-6.1-0.7-6-5.6c0.3-19.5,0.2-38.9,0-58.4c0-4.2,0.7-6.1,5.6-6
		c20,0.3,40.1,0.2,60.1,0c4.2,0,6.1,0.7,6,5.6c-0.3,19.5-0.3,38.9,0,58.4c0.1,5.3-1.9,6.1-6.5,6
		C1039,731.5,1029.1,731.8,1019.2,731.8z"/>
	<path class="st1" d="M1110.2,662c10.2,0,20.3,0.2,30.5-0.1c4.2-0.1,5.4,1.2,5.3,5.3c-0.2,19.8-0.2,39.5,0,59.3
		c0,4.2-1.2,5.4-5.3,5.3c-20.3-0.2-40.7-0.2-61,0c-4.2,0-5.4-1.2-5.3-5.3c0.2-19.8,0.2-39.5,0-59.3c0-4.2,1.1-5.5,5.3-5.3
		C1089.8,662.2,1100,662,1110.2,662z"/>
	<path class="st1" d="M1285.2,731.8c-10.2,0-20.3-0.2-30.5,0.1c-4.3,0.1-6-0.8-5.9-5.6c0.3-19.5,0.2-38.9,0-58.4
		c0-4.3,0.8-6,5.6-5.9c20,0.3,40.1,0.2,60.2,0c4.3,0,6,0.8,5.9,5.6c-0.3,19.5-0.3,38.9,0,58.4c0.1,5.4-2.1,6-6.6,5.9
		C1304.4,731.6,1294.8,731.8,1285.2,731.8z"/>
	<path class="st1" d="M222.4,747.5c10.2,0,20.3,0.2,30.5-0.1c4.3-0.1,5.3,1.3,5.3,5.4c-0.2,19.8-0.2,39.5,0,59.3
		c0,4.3-1.3,5.3-5.4,5.3c-20.3-0.2-40.7-0.2-61,0c-4.3,0-5.3-1.3-5.3-5.4c0.2-19.8,0.2-39.5,0-59.3c0-4.3,1.3-5.4,5.4-5.3
		C202,747.6,212.2,747.5,222.4,747.5z"/>
	<path class="st1" d="M309.5,747.5c10.2,0,20.3,0.2,30.5-0.1c4.2-0.1,5.4,1.2,5.3,5.3c-0.2,19.8-0.2,39.5,0,59.3
		c0,4.2-1.2,5.4-5.3,5.3c-20.3-0.2-40.7-0.2-61,0c-4.2,0-5.4-1.2-5.3-5.3c0.2-19.8,0.2-39.5,0-59.3c0-4.2,1.1-5.5,5.3-5.3
		C289.2,747.7,299.4,747.5,309.5,747.5z"/>
	<path class="st1" d="M489.2,747.5c10.2,0,20.3,0.2,30.5-0.1c4.2-0.1,5.4,1.1,5.3,5.3c-0.2,19.8-0.2,39.5,0,59.3
		c0,4.2-1.1,5.4-5.3,5.3c-20.3-0.2-40.7-0.2-61,0c-4.2,0-5.4-1.1-5.3-5.3c0.2-19.8,0.2-39.5,0-59.3c0-4.2,1.1-5.5,5.3-5.3
		C468.9,747.7,479,747.5,489.2,747.5z"/>
	<path class="st1" d="M757,817.2c-9.9,0-19.8-0.2-29.6,0.1c-4.1,0.1-5.4-1-5.4-5.3c0.2-19.8,0.2-39.5,0-59.3c0-4.1,1-5.4,5.3-5.4
		c20.3,0.2,40.7,0.2,61,0c4.1,0,5.4,1,5.4,5.3c-0.2,19.8-0.2,39.5,0,59.3c0,4.1-1,5.5-5.3,5.4C777.9,817,767.5,817.2,757,817.2z"/>
	<path class="st1" d="M1110.9,817.2c-10.2,0-20.3-0.1-30.5,0.1c-4,0.1-6.2-0.3-6.1-5.4c0.3-19.8,0.3-39.5,0-59.3
		c-0.1-4.4,1.5-5.2,5.5-5.2c20.3,0.2,40.7,0.2,61,0c4.4,0,5.2,1.5,5.2,5.5c-0.2,19.8-0.2,39.5,0,59.3c0.1,4.4-1.5,5.3-5.5,5.2
		C1130.7,817.1,1120.8,817.2,1110.9,817.2z"/>
	<path class="st1" d="M1199.2,747.5c10.2,0,20.3,0.2,30.5-0.1c4.2-0.1,5.4,1.2,5.3,5.3c-0.2,19.8-0.2,39.5,0,59.3
		c0,4.2-1.2,5.4-5.3,5.3c-20.3-0.2-40.7-0.2-61,0c-4.2,0-5.4-1.2-5.3-5.3c0.2-19.8,0.2-39.5,0-59.3c0-4.2,1.1-5.5,5.3-5.3
		C1178.8,747.7,1189,747.5,1199.2,747.5z"/>
	<path class="st1" d="M1371.3,817.2c-9.9,0-19.8-0.1-29.6,0.1c-3.7,0.1-5.8-0.2-5.7-4.9c0.3-20,0.2-40.1,0-60.2c0-3.9,1.3-4.8,5-4.8
		c20.6,0.2,41.3,0.2,61.9,0c3.9,0,4.8,1.3,4.8,5c-0.2,20-0.2,40.1,0,60.2c0,3.9-1.3,4.9-5,4.8
		C1392.3,817.1,1381.8,817.2,1371.3,817.2z"/>
	<path class="st1" d="M309.2,901c-9.9,0-19.8-0.2-29.6,0.1c-4.3,0.1-6-0.8-5.9-5.6c0.3-19.5,0.2-38.9,0-58.4c0-4.3,0.8-6,5.6-5.9
		c20,0.3,40.1,0.2,60.2,0c4.3,0,6,0.8,5.9,5.6c-0.3,19.5-0.3,38.9,0,58.4c0.1,5.4-2.1,6-6.6,5.9C329,900.8,319.1,901,309.2,901z"/>
	<path class="st1" d="M489.2,901c-10.2,0-20.3-0.2-30.5,0.1c-4.2,0.1-5.4-1.2-5.3-5.3c0.2-19.8,0.2-39.5,0-59.3
		c0-4.2,1.2-5.4,5.3-5.3c20.3,0.2,40.7,0.2,61,0c4.2,0,5.4,1.2,5.3,5.3c-0.2,19.8-0.2,39.5,0,59.3c0,4.2-1.1,5.5-5.3,5.3
		C509.6,900.8,499.4,901,489.2,901z"/>
	<path class="st1" d="M757.8,901c-10.2,0-20.3-0.2-30.5,0.1c-4.2,0.1-5.4-1.2-5.3-5.3c0.2-19.8,0.2-39.5,0-59.3
		c0-4.2,1.2-5.4,5.3-5.3c20.3,0.2,40.7,0.2,61,0c4.2,0,5.4,1.2,5.3,5.3c-0.2,19.8-0.2,39.5,0,59.3c0,4.2-1.1,5.5-5.3,5.3
		C778.2,900.8,768,901,757.8,901z"/>
	<path class="st1" d="M1019.4,901c-9.9,0-19.8-0.1-29.6,0.1c-4,0.1-6.2-0.3-6.1-5.4c0.3-19.8,0.3-39.5,0-59.3
		c-0.1-4.4,1.5-5.2,5.5-5.2c20.3,0.2,40.7,0.2,61,0c4.4,0,5.2,1.5,5.2,5.5c-0.2,19.8-0.2,39.5,0,59.3c0.1,4.4-1.5,5.3-5.5,5.2
		C1039.7,900.8,1029.5,901,1019.4,901z"/>
	<path class="st1" d="M1198.4,901c-9.9,0-19.8-0.2-29.6,0.1c-4.1,0.1-5.5-1-5.4-5.3c0.2-19.8,0.2-39.5,0-59.3c0-4.1,1-5.5,5.3-5.4
		c20.3,0.2,40.7,0.2,61,0c4.1,0,5.5,1,5.4,5.3c-0.2,19.8-0.2,39.5,0,59.3c0,4.1-1,5.5-5.3,5.4C1219.3,900.8,1208.8,901,1198.4,901z"
		/>
	<path class="st1" d="M221.9,986.4c-10.2,0-20.3-0.2-30.5,0.1c-3.9,0.1-4.9-1.1-4.9-4.9c0.2-20,0.2-40.1,0-60.2
		c0-3.9,1.1-4.9,4.9-4.9c20.6,0.2,41.3,0.2,61.9,0c3.9,0,4.9,1.1,4.9,4.9c-0.2,20-0.2,40.1,0,60.2c0,3.9-1.1,5-4.9,4.9
		C242.8,986.3,232.3,986.4,221.9,986.4z"/>
	<path class="st1" d="M400.4,916.7c9.9,0,19.8,0.1,29.6-0.1c4.1-0.1,6.2,0.4,6.1,5.5c-0.3,19.8-0.3,39.5,0,59.3
		c0.1,4.4-1.6,5.2-5.5,5.2c-20.3-0.2-40.7-0.2-61,0c-4.4,0.1-5.2-1.6-5.2-5.5c0.2-19.8,0.2-39.5,0-59.3c-0.1-4.4,1.6-5.3,5.5-5.2
		C380.1,916.8,390.2,916.7,400.4,916.7z"/>
	<path class="st1" d="M1019.5,916.7c10.2,0,20.3,0.2,30.5-0.1c4.2-0.1,5.4,1.2,5.3,5.3c-0.2,19.8-0.2,39.5,0,59.3
		c0,4.2-1.2,5.4-5.3,5.3c-20.3-0.2-40.7-0.2-61,0c-4.2,0-5.4-1.2-5.3-5.3c0.2-19.8,0.2-39.5,0-59.3c0-4.2,1.1-5.5,5.3-5.3
		C999.1,916.9,1009.3,916.7,1019.5,916.7z"/>
	<path class="st1" d="M1109.6,986.4c-9.6,0-19.2-0.2-28.8,0.1c-4.5,0.1-6.7-0.5-6.6-5.9c0.4-19.5,0.3-38.9,0-58.4
		c-0.1-4.8,1.6-5.7,5.9-5.6c20,0.2,40.1,0.3,60.2,0c4.8-0.1,5.7,1.6,5.6,5.9c-0.2,19.5-0.3,38.9,0,58.4c0.1,4.8-1.6,5.8-5.9,5.6
		C1130,986.2,1119.8,986.4,1109.6,986.4z"/>
	<path class="st1" d="M1199.2,986.4c-10.2,0-20.3-0.2-30.5,0.1c-4.2,0.1-5.4-1.2-5.3-5.3c0.2-19.8,0.2-39.5,0-59.3
		c0-4.2,1.2-5.4,5.3-5.3c20.3,0.2,40.7,0.2,61,0c4.2,0,5.4,1.2,5.3,5.3c-0.2,19.8-0.2,39.5,0,59.3c0,4.2-1.2,5.5-5.3,5.3
		C1219.5,986.2,1209.3,986.4,1199.2,986.4z"/>
	<path class="st1" d="M1284.8,916.7c9.6,0,19.2,0.3,28.8-0.1c5-0.2,7.1,0.6,7,6.4c-0.4,19.2-0.4,38.4,0,57.5c0.1,5.3-1.8,6.1-6.5,6
		c-19.8-0.2-39.5-0.3-59.3,0c-5.3,0.1-6.1-1.8-6-6.5c0.2-19.2,0.3-38.4,0-57.5c-0.1-5.3,1.8-6.2,6.5-6
		C1265.1,916.9,1275,916.7,1284.8,916.7z"/>
	<path class="st1" d="M1371.8,916.7c10.2,0,20.3,0.2,30.5-0.1c4.2-0.1,5.4,1.1,5.3,5.3c-0.2,19.8-0.2,39.5,0,59.3
		c0,4.2-1.1,5.4-5.3,5.3c-20.3-0.2-40.7-0.2-61,0c-4.2,0-5.4-1.1-5.3-5.3c0.2-19.8,0.2-39.5,0-59.3c0-4.2,1.1-5.5,5.3-5.3
		C1351.5,916.9,1361.7,916.7,1371.8,916.7z"/>
	<path class="st1" d="M222.7,1000.4c10.2,0,20.3,0.1,30.5-0.1c3.7-0.1,5,0.9,5,4.8c-0.2,20-0.2,40.1,0,60.2c0,3.7-0.9,5-4.8,5
		c-20.6-0.2-41.3-0.2-61.9,0c-3.7,0-5-0.9-5-4.8c0.2-20,0.2-40.1,0-60.2c-0.1-4.7,2-5,5.7-4.9
		C202.3,1000.5,212.5,1000.4,222.7,1000.4z"/>
	<path class="st1" d="M310.4,1000.4c9.9,0,19.8,0.2,29.6-0.1c4.2-0.1,5.4,1.1,5.4,5.3c-0.2,19.8-0.2,39.5,0,59.3
		c0,4.2-1.1,5.4-5.3,5.4c-20.3-0.2-40.7-0.2-61,0c-4.2,0-5.4-1.1-5.4-5.3c0.2-19.8,0.2-39.5,0-59.3c0-4.2,1.1-5.5,5.3-5.4
		C289.5,1000.6,299.9,1000.4,310.4,1000.4z"/>
	<path class="st1" d="M400.5,1000.4c9.9,0,19.8,0.2,29.6-0.1c4.2-0.1,6.1,0.7,6,5.6c-0.3,19.5-0.2,38.9,0,58.4c0,4.2-0.7,6.1-5.6,6
		c-20-0.3-40.1-0.2-60.1,0c-4.2,0-6.1-0.7-6-5.6c0.3-19.5,0.3-38.9,0-58.4c-0.1-5.3,1.9-6.1,6.5-6
		C380.7,1000.6,390.6,1000.4,400.5,1000.4z"/>
	<path class="st1" d="M489.1,1070.2c-9.9,0-19.8-0.1-29.6,0.1c-4,0.1-6.2-0.3-6.1-5.4c0.3-19.8,0.3-39.5,0-59.3
		c-0.1-4.4,1.5-5.2,5.5-5.2c20.3,0.2,40.7,0.2,61,0c4.4,0,5.2,1.5,5.2,5.5c-0.2,19.8-0.2,39.5,0,59.3c0.1,4.4-1.5,5.3-5.5,5.2
		C509.4,1070,499.2,1070.2,489.1,1070.2z"/>
	<path class="st1" d="M757,1070.2c-9.9,0-19.8-0.2-29.6,0.1c-4.2,0.1-5.4-1.1-5.3-5.3c0.2-19.8,0.2-39.5,0-59.3
		c0-4.2,1.1-5.4,5.3-5.3c20.3,0.2,40.7,0.2,61,0c4.2,0,5.4,1.1,5.3,5.3c-0.2,19.8-0.2,39.5,0,59.3c0,4.2-1.1,5.5-5.3,5.3
		C777.9,1070,767.4,1070.2,757,1070.2z"/>
	<path class="st1" d="M487,156.1c-10.2,0-20.3-0.2-30.5,0.1c-3.8,0.1-4.9-1-4.9-4.9c0.2-20,0.2-40.1,0-60.2c0-3.8,1-4.9,4.9-4.9
		c20.6,0.2,41.3,0.2,61.9,0c3.8,0,4.9,1,4.9,4.9c-0.2,20-0.2,40.1,0,60.2c0,3.8-1,5-4.9,4.9C508,156,497.5,156.1,487,156.1z"/>
	<path class="st1" d="M1019.4,1000.4c10.2,0,20.3,0.2,30.5-0.1c4.1-0.1,5.4,1,5.4,5.3c-0.2,19.8-0.2,39.5,0,59.3
		c0,4.1-1,5.4-5.3,5.4c-20.3-0.2-40.7-0.2-61,0c-4.1,0-5.4-1-5.4-5.3c0.2-19.8,0.2-39.5,0-59.3c0-4.1,1-5.5,5.3-5.4
		C999.1,1000.6,1009.3,1000.4,1019.4,1000.4z"/>
	<path class="st1" d="M1110.2,1070.2c-10.2,0-20.3-0.2-30.5,0.1c-4.2,0.1-5.4-1.2-5.3-5.3c0.2-19.8,0.2-39.5,0-59.3
		c0-4.2,1.2-5.4,5.3-5.3c20.3,0.2,40.7,0.2,61,0c4.2,0,5.4,1.2,5.3,5.3c-0.2,19.8-0.2,39.5,0,59.3c0,4.2-1.1,5.5-5.3,5.3
		C1130.5,1070,1120.4,1070.2,1110.2,1070.2z"/>
	<path class="st1" d="M1283.8,1070.2c-9.9,0-19.8-0.2-29.6,0.1c-4.1,0.1-5.5-1-5.4-5.3c0.2-19.8,0.2-39.5,0-59.3
		c0-4.1,1-5.5,5.3-5.4c20.3,0.2,40.7,0.2,61,0c4.1,0,5.5,1,5.4,5.3c-0.2,19.8-0.2,39.5,0,59.3c0,4.1-1,5.5-5.3,5.4
		C1304.8,1070,1294.3,1070.2,1283.8,1070.2z"/>
	<path class="st1" d="M1372.6,1000.4c9.6,0,19.2,0.2,28.8-0.1c4.7-0.2,6.5,0.9,6.4,6.1c-0.3,19.2-0.3,38.4,0,57.5
		c0.1,4.7-0.9,6.5-6.1,6.4c-19.8-0.3-39.5-0.3-59.3,0c-4.7,0.1-6.5-0.9-6.4-6.1c0.3-19.2,0.4-38.4,0-57.5c-0.1-5.9,2.1-6.5,7-6.4
		C1352.8,1000.6,1362.7,1000.4,1372.6,1000.4z"/>
	<path class="st1" d="M811.4,288.7c-9.9,0-19.8-0.1-29.6,0.1c-3.7,0.1-5.8-0.2-5.7-4.9c0.3-20,0.2-40.1,0-60.2c0-3.9,1.3-4.8,5-4.8
		c20.6,0.2,41.3,0.2,61.9,0c3.9,0,4.8,1.3,4.8,5c-0.2,20-0.2,40.1,0,60.2c0,3.9-1.3,4.9-5,4.8C832.3,288.5,821.9,288.7,811.4,288.7z
		"/>
	<path class="st1" d="M221.4,311.4c-9.9,0-19.8-0.2-29.6,0.1c-4.2,0.1-5.4-1.2-5.3-5.3c0.2-19.8,0.2-39.5,0-59.3
		c0-4.2,1.2-5.4,5.3-5.3c20.3,0.2,40.7,0.2,61,0c4.2,0,5.4,1.2,5.3,5.3c-0.2,19.8-0.2,39.5,0,59.3c0,4.2-1.1,5.5-5.3,5.3
		C242.4,311.2,231.9,311.4,221.4,311.4z"/>
	<path class="st1" d="M222.3,1155.6c-10.2,0-20.3-0.2-30.5,0.1c-4.1,0.1-5.4-1.1-5.4-5.3c0.2-19.8,0.2-39.5,0-59.3
		c0-4.1,1.1-5.4,5.3-5.4c20.3,0.2,40.7,0.2,61,0c4.1,0,5.4,1.1,5.4,5.3c-0.2,19.8-0.2,39.5,0,59.3c0,4.1-1.1,5.5-5.3,5.4
		C242.7,1155.4,232.5,1155.6,222.3,1155.6z"/>
	<path class="st1" d="M308.9,1155.6c-9.6,0-19.2-0.2-28.8,0.1c-4.6,0.2-6.5-0.8-6.5-6c0.3-19.2,0.3-38.4,0-57.5
		c-0.1-4.6,0.8-6.5,6-6.5c19.8,0.3,39.5,0.3,59.3,0c4.6-0.1,6.5,0.8,6.5,6c-0.3,19.2-0.4,38.4,0,57.5c0.1,5.8-2,6.6-7,6.4
		C328.6,1155.4,318.7,1155.6,308.9,1155.6z"/>
	<path class="st1" d="M401,1085.9c9.9,0,19.8,0.2,29.6-0.1c4.1-0.1,5.5,1,5.4,5.3c-0.2,19.8-0.2,39.5,0,59.3c0,4.1-1,5.5-5.3,5.4
		c-20.3-0.2-40.7-0.2-61,0c-4.1,0-5.5-1-5.4-5.3c0.2-19.8,0.2-39.5,0-59.3c0-4.1,1-5.5,5.3-5.4
		C380.1,1086.1,390.6,1085.9,401,1085.9z"/>
	<path class="st1" d="M488.8,1155.6c-10.2,0-20.3-0.2-30.5,0.1c-3.8,0.1-4.9-1-4.9-4.9c0.2-20,0.2-40.1,0-60.2c0-3.8,1-4.9,4.9-4.9
		c20.6,0.2,41.3,0.2,61.9,0c3.8,0,4.9,1,4.9,4.9c-0.2,20-0.2,40.1,0,60.2c0,3.8-1,5-4.9,4.9C509.7,1155.5,499.2,1155.6,488.8,1155.6
		z"/>
	<path class="st1" d="M1110.2,395.1c-10.2,0-20.3-0.2-30.5,0.1c-4.2,0.1-5.4-1.2-5.3-5.3c0.2-19.8,0.2-39.5,0-59.3
		c0-4.2,1.2-5.4,5.3-5.3c20.3,0.2,40.7,0.2,61,0c4.2,0,5.4,1.2,5.3,5.3c-0.2,19.8-0.2,39.5,0,59.3c0,4.2-1.1,5.5-5.3,5.3
		C1130.5,394.9,1120.4,395.1,1110.2,395.1z"/>
	<path class="st1" d="M417.7,430c-10.2,0-20.3-0.2-30.5,0.1c-4.2,0.1-5.4-1.2-5.3-5.3c0.2-19.8,0.2-39.5,0-59.3
		c0-4.2,1.2-5.4,5.3-5.3c20.3,0.2,40.7,0.2,61,0c4.2,0,5.4,1.2,5.3,5.3c-0.2,19.8-0.2,39.5,0,59.3c0,4.2-1.1,5.5-5.3,5.3
		C438,429.8,427.9,430,417.7,430z"/>
	<path class="st1" d="M757.5,1155.6c-10.2,0-20.3-0.1-30.5,0.1c-3.7,0.1-5-0.9-5-4.8c0.2-20,0.2-40.1,0-60.2c0-3.7,0.9-5,4.8-5
		c20.6,0.2,41.3,0.2,61.9,0c3.7,0,5,0.9,5,4.8c-0.2,20-0.2,40.1,0,60.2c0.1,4.8-2,5-5.7,4.9C777.8,1155.5,767.6,1155.6,757.5,1155.6
		z"/>
	<path class="st1" d="M1285.5,831.2c9.9,0,19.8,0.2,29.6-0.1c4.2-0.1,5.4,1.2,5.3,5.3c-0.2,19.8-0.2,39.5,0,59.3
		c0,4.2-1.2,5.4-5.3,5.3c-20.3-0.2-40.7-0.2-61,0c-4.2,0-5.4-1.2-5.3-5.3c0.2-19.8,0.2-39.5,0-59.3c0-4.2,1.1-5.5,5.3-5.3
		C1264.6,831.4,1275,831.2,1285.5,831.2z"/>
	<path class="st1" d="M1019.5,1085.9c10.2,0,20.3,0.2,30.5-0.1c4.2-0.1,5.4,1.1,5.3,5.3c-0.2,19.8-0.2,39.5,0,59.3
		c0,4.2-1.1,5.4-5.3,5.3c-20.3-0.2-40.7-0.2-61,0c-4.2,0-5.4-1.1-5.3-5.3c0.2-19.8,0.2-39.5,0-59.3c0-4.2,1.1-5.5,5.3-5.3
		C999.1,1086.1,1009.3,1085.9,1019.5,1085.9z"/>
	<path class="st1" d="M1110.2,1085.9c10.2,0,20.3,0.2,30.5-0.1c4.2-0.1,5.4,1.2,5.3,5.4c-0.2,19.8-0.2,39.5,0,59.3
		c0,4.2-1.2,5.4-5.4,5.3c-20.3-0.2-40.7-0.2-61,0c-4.2,0-5.4-1.2-5.3-5.3c0.2-19.8,0.2-39.5,0-59.3c0-4.2,1.2-5.4,5.4-5.3
		C1089.9,1086.1,1100,1085.9,1110.2,1085.9z"/>
	<path class="st1" d="M1199.9,1085.9c9.9,0,19.8,0.2,29.6-0.1c4.1-0.1,5.5,0.9,5.4,5.2c-0.2,19.8-0.2,39.5,0,59.3
		c0,4-0.9,5.5-5.2,5.4c-20.3-0.2-40.7-0.2-61,0c-4,0-5.5-0.9-5.4-5.2c0.2-19.8,0.3-39.5,0-59.3c-0.1-5.2,2.2-5.5,6.2-5.4
		C1179.6,1086,1189.8,1085.9,1199.9,1085.9z"/>
	<path class="st1" d="M1285.2,1155.6c-10.2,0-20.3-0.2-30.5,0.1c-4.3,0.1-6-0.8-5.9-5.6c0.3-19.5,0.2-38.9,0-58.4
		c0-4.3,0.8-6,5.6-5.9c20,0.3,40.1,0.2,60.2,0c4.3,0,6,0.8,5.9,5.6c-0.3,19.5-0.3,38.9,0,58.4c0.1,5.4-2.1,6-6.6,5.9
		C1304.4,1155.4,1294.8,1155.6,1285.2,1155.6z"/>
	<path class="st1" d="M1371.4,1155.6c-10.2,0-20.3-0.2-30.5,0.1c-3.8,0.1-4.9-1-4.9-4.9c0.2-20,0.2-40.1,0-60.2c0-3.8,1-4.9,4.9-4.9
		c20.6,0.2,41.3,0.2,61.9,0c3.8,0,4.9,1,4.9,4.9c-0.2,20-0.2,40.1,0,60.2c0,3.8-1,5-4.9,4.9
		C1392.4,1155.5,1381.9,1155.6,1371.4,1155.6z"/>
	<path class="st1" d="M757.8,410.8c10.2,0,20.3,0.2,30.5-0.1c4.2-0.1,5.4,1.2,5.3,5.3c-0.2,19.8-0.2,39.5,0,59.3
		c0,4.2-1.2,5.4-5.3,5.3c-20.3-0.2-40.7-0.2-61,0c-4.2,0-5.4-1.2-5.3-5.3c0.2-19.8,0.2-39.5,0-59.3c0-4.2,1.1-5.5,5.3-5.3
		C737.5,411,747.7,410.8,757.8,410.8z"/>
	<path class="st1" d="M222.3,1239.4c-10.2,0-20.3-0.2-30.5,0.1c-4.2,0.1-5.4-1.2-5.3-5.3c0.2-19.8,0.2-39.5,0-59.3
		c0-4.2,1.2-5.4,5.3-5.3c20.3,0.2,40.7,0.2,61,0c4.2,0,5.4,1.2,5.3,5.3c-0.2,19.8-0.2,39.5,0,59.3c0,4.2-1.1,5.5-5.3,5.3
		C242.7,1239.2,232.5,1239.4,222.3,1239.4z"/>
	<path class="st1" d="M309.5,1239.4c-10.2,0-20.3-0.2-30.5,0.1c-4.2,0.1-5.4-1.2-5.3-5.3c0.2-19.8,0.2-39.5,0-59.3
		c0-4.2,1.2-5.4,5.3-5.3c20.3,0.2,40.7,0.2,61,0c4.2,0,5.4,1.2,5.3,5.3c-0.2,19.8-0.2,39.5,0,59.3c0,4.2-1.1,5.5-5.3,5.3
		C329.9,1239.2,319.7,1239.4,309.5,1239.4z"/>
	<path class="st1" d="M400.5,1169.6c9.9,0,19.8,0.2,29.6-0.1c4.3-0.1,6,0.8,5.9,5.6c-0.3,19.5-0.2,38.9,0,58.4c0,4.3-0.8,6-5.6,5.9
		c-20-0.3-40.1-0.2-60.2,0c-4.3,0-6-0.8-5.9-5.6c0.3-19.5,0.3-38.9,0-58.4c-0.1-5.4,2.1-6,6.6-5.9
		C380.8,1169.8,390.7,1169.6,400.5,1169.6z"/>
	<path class="st1" d="M489.2,1239.4c-10.2,0-20.3-0.2-30.5,0.1c-4.1,0.1-5.4-1.1-5.4-5.3c0.2-19.8,0.2-39.5,0-59.3
		c0-4.1,1.1-5.4,5.3-5.4c20.3,0.2,40.7,0.2,61,0c4.1,0,5.4,1.1,5.4,5.3c-0.2,19.8-0.2,39.5,0,59.3c0,4.1-1.1,5.5-5.3,5.4
		C509.6,1239.2,499.4,1239.4,489.2,1239.4z"/>
	<path class="st1" d="M1284,480.6c-9.6,0-19.2-0.2-28.8,0.1c-4.6,0.1-6.6-0.6-6.5-6c0.3-19.5,0.3-38.9,0-58.4
		c-0.1-4.9,1.8-5.6,6-5.6c20,0.2,40.1,0.3,60.2,0c4.9-0.1,5.6,1.8,5.6,6c-0.2,19.5-0.3,38.9,0,58.4c0.1,4.9-1.8,5.7-6,5.6
		C1304.4,480.4,1294.2,480.6,1284,480.6z"/>
	<path class="st1" d="M400.8,494.5c9.6,0,19.2,0.2,28.8-0.1c4.5-0.1,6.7,0.5,6.6,5.9c-0.4,19.5-0.3,38.9,0,58.4
		c0.1,4.8-1.6,5.7-5.9,5.6c-20-0.2-40.1-0.3-60.2,0c-4.8,0.1-5.7-1.6-5.6-5.9c0.2-19.5,0.3-38.9,0-58.4c-0.1-4.8,1.6-5.8,5.9-5.6
		C380.5,494.7,390.6,494.5,400.8,494.5z"/>
	<path class="st1" d="M758.6,1169.6c9.9,0,19.8,0.2,29.6-0.1c4.1-0.1,5.5,1,5.4,5.3c-0.2,19.8-0.2,39.5,0,59.3c0,4.1-1,5.5-5.3,5.4
		c-20.3-0.2-40.7-0.2-61,0c-4.1,0-5.5-1-5.4-5.3c0.2-19.8,0.2-39.5,0-59.3c0-4.1,1-5.5,5.3-5.4
		C737.7,1169.8,748.2,1169.6,758.6,1169.6z"/>
	<path class="st1" d="M488.3,648c-9.9,0-19.8-0.2-29.6,0.1c-4.2,0.1-5.4-1.1-5.4-5.3c0.2-19.8,0.2-39.5,0-59.3
		c0-4.2,1.1-5.4,5.3-5.3c20.3,0.2,40.7,0.2,61,0c4.2,0,5.4,1.1,5.3,5.3c-0.2,19.8-0.2,39.5,0,59.3c0,4.2-1.1,5.5-5.3,5.3
		C509.3,647.8,498.8,648,488.3,648z"/>
	<path class="st1" d="M757.9,578.3c10.2,0,20.3,0.2,30.5-0.1c4.2-0.1,5.4,1.2,5.3,5.4c-0.2,19.8-0.2,39.5,0,59.3
		c0,4.2-1.2,5.4-5.4,5.3c-20.3-0.2-40.7-0.2-61,0c-4.2,0-5.4-1.2-5.3-5.4c0.2-19.8,0.2-39.5,0-59.3c0-4.2,1.2-5.4,5.4-5.3
		C737.5,578.4,747.7,578.3,757.9,578.3z"/>
	<path class="st1" d="M1020.3,1169.6c9.9,0,19.8,0.2,29.6-0.1c4.1-0.1,5.5,1,5.4,5.3c-0.2,19.8-0.2,39.5,0,59.3c0,4.1-1,5.5-5.3,5.4
		c-20.3-0.2-40.7-0.2-61,0c-4.1,0-5.5-1-5.4-5.3c0.2-19.8,0.2-39.5,0-59.3c0-4.1,1-5.5,5.3-5.4
		C999.4,1169.8,1009.8,1169.6,1020.3,1169.6z"/>
	<path class="st1" d="M1110.2,1169.6c10.2,0,20.3,0.2,30.5-0.1c4.3-0.1,5.3,1.3,5.3,5.4c-0.2,19.8-0.2,39.5,0,59.3
		c0,4.3-1.3,5.3-5.4,5.3c-20.3-0.2-40.7-0.2-61,0c-4.3,0-5.3-1.3-5.3-5.4c0.2-19.8,0.2-39.5,0-59.3c0-4.3,1.3-5.4,5.4-5.3
		C1089.9,1169.8,1100.1,1169.6,1110.2,1169.6z"/>
	<path class="st1" d="M1199.8,1239.4c-10.2,0-20.3-0.2-30.5,0.1c-4.2,0.1-6.1-0.7-6-5.6c0.3-19.5,0.2-38.9,0-58.4
		c0-4.2,0.7-6.1,5.6-6c20,0.3,40.1,0.2,60.1,0c4.2,0,6.1,0.7,6,5.6c-0.3,19.5-0.3,38.9,0,58.4c0.1,5.3-1.9,6.1-6.5,6
		C1219,1239.2,1209.4,1239.4,1199.8,1239.4z"/>
	<path class="st1" d="M1284,1239.4c-9.6,0-19.2-0.2-28.8,0.1c-4.6,0.1-6.6-0.6-6.5-6c0.3-19.5,0.3-38.9,0-58.4
		c-0.1-4.9,1.8-5.6,6-5.6c20,0.2,40.1,0.3,60.2,0c4.9-0.1,5.6,1.8,5.6,6c-0.2,19.5-0.3,38.9,0,58.4c0.1,4.9-1.8,5.7-6,5.6
		C1304.4,1239.2,1294.2,1239.4,1284,1239.4z"/>
	<path class="st1" d="M1371,1239.4c-9.9,0-19.8-0.2-29.6,0.1c-4.2,0.1-5.4-1.2-5.3-5.3c0.2-19.8,0.2-39.5,0-59.3
		c0-4.2,1.2-5.4,5.3-5.3c20.3,0.2,40.7,0.2,61,0c4.2,0,5.4,1.2,5.3,5.3c-0.2,19.8-0.2,39.5,0,59.3c0,4.2-1.1,5.5-5.3,5.3
		C1391.9,1239.2,1381.4,1239.4,1371,1239.4z"/>
	<path class="st1" d="M1018.7,648c-9.9,0-19.8-0.2-29.6,0.1c-4.1,0.1-5.5-0.9-5.4-5.2c0.2-19.8,0.2-39.5,0-59.3c0-4,0.9-5.5,5.2-5.4
		c20.3,0.2,40.7,0.2,61,0c4,0,5.5,0.9,5.4,5.2c-0.2,19.8-0.3,39.5,0,59.3c0.1,5.2-2.2,5.5-6.2,5.4
		C1039.1,647.9,1028.9,648,1018.7,648z"/>
	<path class="st1" d="M1199.2,578.3c10.2,0,20.3,0.2,30.5-0.1c4.2-0.1,5.4,1.2,5.3,5.4c-0.2,19.8-0.2,39.5,0,59.3
		c0,4.2-1.2,5.4-5.4,5.3c-20.3-0.2-40.7-0.2-61,0c-4.2,0-5.4-1.2-5.3-5.4c0.2-19.8,0.2-39.5,0-59.3c0-4.2,1.2-5.4,5.4-5.3
		C1178.8,578.4,1189,578.3,1199.2,578.3z"/>
	<path class="st1" d="M1371.8,648c-10.2,0-20.3-0.2-30.5,0.1c-4.2,0.1-5.4-1.2-5.3-5.3c0.2-19.8,0.2-39.5,0-59.3
		c0-4.2,1.2-5.4,5.3-5.3c20.3,0.2,40.7,0.2,61,0c4.2,0,5.4,1.2,5.3,5.3c-0.2,19.8-0.2,39.5,0,59.3c0,4.2-1.1,5.5-5.3,5.3
		C1392.2,647.8,1382,648,1371.8,648z"/>
	<path class="st1" d="M222.9,731.8c-10.2,0-20.3-0.2-30.5,0.1c-4.3,0.1-6-0.8-5.9-5.6c0.3-19.5,0.2-38.9,0-58.4c0-4.3,0.8-6,5.6-5.9
		c20,0.3,40.1,0.2,60.2,0c4.3,0,6,0.8,5.9,5.6c-0.3,19.5-0.3,38.9,0,58.4c0.1,5.4-2.1,6-6.6,5.9
		C242.1,731.6,232.5,731.8,222.9,731.8z"/>
	<path class="st1" d="M988.1,84.6c-10.2,0-20.3-0.2-30.5,0.1c-4.2,0.1-5.4-1.2-5.3-5.3c0.2-19.2,0.2-38.4,0-57.5
		c0-4.2,1.2-5.4,5.3-5.3c20.9,0.2,41.8,0.2,62.8,0c4.2,0,5.4,1.2,5.3,5.3c-0.2,19.2-0.2,38.4,0,57.5c0,4.2-1.1,5.5-5.3,5.3
		C1009.6,84.4,998.8,84.6,988.1,84.6z"/>
</g>
<g class="st0">
	<path class="st1" d="M1425.7,831.2c21.8,0,43.6,0.1,65.4-0.1c4.9-0.1,6.3,1.3,6.2,6.2c-0.3,19.2-0.3,38.4,0,57.5
		c0.1,4.9-1.3,6.3-6.2,6.2c-21.8-0.3-43.6-0.1-65.4-0.1C1425.7,877.7,1425.7,854.4,1425.7,831.2z"/>
	<path class="st1" d="M1425.7,916.7c21.8,0,43.6,0.1,65.4-0.1c4.9-0.1,6.3,1.3,6.2,6.2c-0.3,19.2-0.3,38.4,0,57.5
		c0.1,4.9-1.3,6.3-6.2,6.2c-21.8-0.3-43.6-0.1-65.4-0.1C1425.7,963.2,1425.7,939.9,1425.7,916.7z"/>
	<path class="st1" d="M1425.7,578.3c21.8,0,43.6,0.1,65.4-0.1c4.9-0.1,6.3,1.3,6.2,6.2c-0.3,19.2-0.3,38.4,0,57.5
		c0.1,4.9-1.3,6.3-6.2,6.2c-21.8-0.3-43.6-0.1-65.4-0.1C1425.7,624.8,1425.7,601.5,1425.7,578.3z"/>
	<path class="st1" d="M1425.7,1085.9c21.8,0,43.6,0.1,65.4-0.1c4.9-0.1,6.3,1.3,6.2,6.2c-0.3,19.2-0.3,38.4,0,57.5
		c0.1,4.9-1.3,6.3-6.2,6.2c-21.8-0.3-43.6-0.1-65.4-0.1C1425.7,1132.4,1425.7,1109.1,1425.7,1085.9z"/>
	<path class="st1" d="M1425.7,410.8c21.8,0,43.6,0.1,65.4-0.1c4.9-0.1,6.3,1.3,6.2,6.2c-0.3,19.2-0.3,38.4,0,57.5
		c0.1,4.9-1.3,6.3-6.2,6.2c-21.8-0.3-43.6-0.1-65.4-0.1C1425.7,457.3,1425.7,434.1,1425.7,410.8z"/>
	<path class="st1" d="M1425.7,1169.6c21.8,0,43.6,0.1,65.4-0.1c4.9-0.1,6.3,1.3,6.2,6.2c-0.3,19.2-0.3,38.4,0,57.5
		c0.1,4.9-1.3,6.3-6.2,6.2c-21.8-0.3-43.6-0.1-65.4-0.1C1425.7,1216.1,1425.7,1192.8,1425.7,1169.6z"/>
	<path class="st1" d="M1425.7,662c21.8,0,43.6,0.1,65.4-0.1c4.9-0.1,6.3,1.3,6.2,6.2c-0.3,19.2-0.3,38.4,0,57.5
		c0.1,4.9-1.3,6.3-6.2,6.2c-21.8-0.3-43.6-0.1-65.4-0.1C1425.7,708.5,1425.7,685.2,1425.7,662z"/>
	<path class="st1" d="M2259.4,1070.2c-10.5,0-20.9-0.2-31.4,0.1c-4.3,0.1-5.3-1.3-5.3-5.4c0.2-19.8,0.2-39.5,0-59.3
		c0-4.3,1.3-5.3,5.4-5.3c20.9,0.2,41.8,0.2,62.8,0c4.3,0,5.3,1.3,5.3,5.4c-0.2,19.8-0.2,39.5,0,59.3c0,4.3-1.3,5.4-5.4,5.3
		C2280.3,1070,2269.9,1070.2,2259.4,1070.2z"/>
	<path class="st1" d="M2260.2,662c10.2,0,20.3,0.2,30.5-0.1c4.1-0.1,5.5,0.9,5.4,5.2c-0.2,19.8-0.2,39.5,0,59.3c0,4-0.9,5.5-5.2,5.4
		c-20.9-0.2-41.8-0.2-62.8,0c-4,0-5.5-0.9-5.4-5.2c0.2-19.8,0.3-39.5,0-59.3c-0.1-5.2,2.2-5.5,6.2-5.4
		C2239.3,662.1,2249.8,662,2260.2,662z"/>
	<path class="st1" d="M2345.6,731.8c-10.5,0-20.9-0.2-31.4,0.1c-4.2,0.1-6.1-0.7-6-5.6c0.3-19.5,0.2-38.9,0-58.4
		c0-4.2,0.7-6.1,5.6-6c20.6,0.3,41.3,0.2,61.9,0c4.2,0,6.1,0.7,6,5.6c-0.3,19.5-0.3,38.9,0,58.4c0.1,5.3-1.9,6.1-6.5,6
		C2365.3,731.5,2355.4,731.8,2345.6,731.8z"/>
	<path class="st1" d="M1987.3,1000.4c10.5,0,20.9,0.2,31.4-0.1c4.2-0.1,5.4,1.2,5.3,5.3c-0.2,19.8-0.2,39.5,0,59.3
		c0,4.2-1.2,5.4-5.3,5.3c-20.9-0.2-41.8-0.2-62.8,0c-4.2,0-5.4-1.2-5.3-5.3c0.2-19.8,0.2-39.5,0-59.3c0-4.2,1.1-5.5,5.3-5.3
		C1966.4,1000.6,1976.9,1000.4,1987.3,1000.4z"/>
	<path class="st1" d="M2055,353.2c-10.5,0-20.9-0.2-31.4,0.1c-3.8,0.1-4.9-1-4.9-4.9c0.2-20,0.2-40.1,0-60.2c0-3.8,1-4.9,4.9-4.9
		c21.2,0.2,42.4,0.2,63.6,0c3.8,0,4.9,1,4.9,4.9c-0.2,20-0.2,40.1,0,60.2c0,3.8-1,5-4.9,4.9C2076.5,353.1,2065.7,353.2,2055,353.2z"
		/>
	<path class="st1" d="M2345.8,325.3c10.2,0,20.3,0.2,30.5-0.1c4.2-0.1,5.4,1.1,5.4,5.3c-0.2,19.8-0.2,39.5,0,59.3
		c0,4.1-1.1,5.4-5.3,5.4c-20.9-0.2-41.8-0.2-62.8,0c-4.1,0-5.4-1.1-5.4-5.3c0.2-19.8,0.2-39.5,0-59.3c0-4.1,1.1-5.5,5.3-5.4
		C2324.3,325.5,2335,325.3,2345.8,325.3z"/>
	<path class="st1" d="M1987.3,914.9c10.5,0,20.9,0.2,31.4-0.1c4.2-0.1,5.4,1.1,5.3,5.3c-0.2,19.8-0.2,39.5,0,59.3
		c0,4.2-1.1,5.4-5.3,5.3c-20.9-0.2-41.8-0.2-62.8,0c-4.2,0-5.4-1.1-5.3-5.3c0.2-19.8,0.2-39.5,0-59.3c0-4.2,1.1-5.5,5.3-5.3
		C1966.4,915.1,1976.9,914.9,1987.3,914.9z"/>
	<path class="st1" d="M1549.5,817.2c-10.5,0-20.9-0.2-31.4,0.1c-4.3,0.1-5.3-1.3-5.3-5.4c0.2-19.8,0.2-39.5,0-59.3
		c0-4.3,1.3-5.3,5.4-5.3c20.9,0.2,41.8,0.2,62.8,0c4.3,0,5.3,1.3,5.3,5.4c-0.2,19.8-0.2,39.5,0,59.3c0,4.3-1.3,5.4-5.4,5.3
		C1570.4,817,1559.9,817.2,1549.5,817.2z"/>
	<path class="st1" d="M2076.9,986.4c-10.5,0-20.9-0.2-31.4,0.1c-4.3,0.1-6-0.8-5.9-5.6c0.3-19.5,0.2-38.9,0-58.4
		c0-4.3,0.8-6,5.6-5.9c20.6,0.3,41.3,0.2,61.9,0c4.3,0,6,0.8,5.9,5.6c-0.3,19.5-0.3,38.9,0,58.4c0.1,5.4-2.1,6-6.6,5.9
		C2096.6,986.2,2086.8,986.4,2076.9,986.4z"/>
	<path class="st1" d="M2075.9,901c-10.5,0-20.9-0.1-31.4,0.1c-3.7,0.1-5-0.9-5-4.8c0.2-20,0.2-40.1,0-60.2c0-3.7,0.9-5,4.8-5
		c21.2,0.2,42.4,0.2,63.6,0c3.7,0,5,0.9,5,4.8c-0.2,20-0.2,40.1,0,60.2c0.1,4.8-2,5-5.7,4.9C2096.9,900.8,2086.4,901,2075.9,901z"/>
	<path class="st1" d="M1549.1,986.4c-10.5,0-20.9-0.1-31.4,0.1c-3.7,0.1-5-0.9-5-4.8c0.2-20,0.2-40.1,0-60.2c0-3.7,0.9-5,4.8-5
		c21.2,0.2,42.4,0.2,63.6,0c3.7,0,5,0.9,5,4.8c-0.2,20-0.2,40.1,0,60.2c0.1,4.8-2,5-5.7,4.9C1570.1,986.3,1559.6,986.4,1549.1,986.4
		z"/>
	<path class="st1" d="M2075.8,564.3c-10.2,0-20.4-0.3-30.5,0.1c-4.7,0.2-5.8-1.4-5.7-5.9c0.2-19.5,0.3-38.9,0-58.4
		c-0.1-4.7,1.4-5.8,5.9-5.7c20.6,0.2,41.3,0.2,61.9,0c4.7-0.1,5.8,1.4,5.7,5.9c-0.2,19.5-0.3,38.9,0,58.4c0.1,4.7-1.4,5.8-5.9,5.7
		C2096.7,564.1,2086.3,564.3,2075.8,564.3z"/>
	<path class="st1" d="M2259,564.3c-10.2,0-20.4-0.3-30.5,0.1c-4.7,0.2-5.8-1.4-5.7-5.9c0.2-19.5,0.3-38.9,0-58.4
		c-0.1-4.7,1.4-5.8,5.9-5.7c20.6,0.2,41.3,0.2,61.9,0c4.7-0.1,5.8,1.4,5.7,5.9c-0.2,19.5-0.3,38.9,0,58.4c0.1,4.7-1.4,5.8-5.9,5.7
		C2279.9,564.1,2269.4,564.3,2259,564.3z"/>
	<path class="st1" d="M2344.9,564.3c-10.5,0-20.9-0.2-31.4,0.1c-4.3,0.1-5.3-1.3-5.3-5.4c0.2-19.8,0.2-39.5,0-59.3
		c0-4.3,1.3-5.3,5.4-5.3c20.9,0.2,41.8,0.2,62.8,0c4.3,0,5.3,1.3,5.3,5.4c-0.2,19.8-0.2,39.5,0,59.3c0,4.3-1.3,5.4-5.4,5.3
		C2365.8,564.1,2355.3,564.3,2344.9,564.3z"/>
	<path class="st1" d="M2259.5,1155.6c-10.5,0-20.9-0.2-31.4,0.1c-4.2,0.1-5.4-1.2-5.3-5.4c0.2-19.8,0.2-39.5,0-59.3
		c0-4.2,1.2-5.4,5.4-5.3c20.9,0.2,41.8,0.2,62.8,0c4.2,0,5.4,1.2,5.3,5.4c-0.2,19.8-0.2,39.5,0,59.3c0,4.2-1.2,5.4-5.4,5.3
		C2280.4,1155.4,2269.9,1155.6,2259.5,1155.6z"/>
	<path class="st1" d="M1549.5,578.3c10.5,0,20.9,0.2,31.4-0.1c4.2-0.1,5.4,1.1,5.4,5.3c-0.2,19.8-0.2,39.5,0,59.3
		c0,4.2-1.1,5.4-5.3,5.4c-20.9-0.2-41.8-0.2-62.8,0c-4.2,0-5.4-1.1-5.4-5.3c0.2-19.8,0.2-39.5,0-59.3c0-4.2,1.1-5.5,5.3-5.4
		C1528.6,578.4,1539,578.3,1549.5,578.3z"/>
	<path class="st1" d="M1987.3,747.5c10.5,0,20.9,0.2,31.4-0.1c4.2-0.1,5.4,1.2,5.3,5.3c-0.2,19.8-0.2,39.5,0,59.3
		c0,4.2-1.2,5.4-5.3,5.3c-20.9-0.2-41.8-0.2-62.8,0c-4.2,0-5.4-1.1-5.3-5.3c0.2-19.8,0.2-39.5,0-59.3c0-4.2,1.1-5.5,5.3-5.3
		C1966.4,747.6,1976.9,747.5,1987.3,747.5z"/>
	<path class="st1" d="M2079.8,817.2c-10.5,0-20.9-0.2-31.4,0.1c-4.2,0.1-5.4-1.1-5.3-5.3c0.2-19.8,0.2-39.5,0-59.3
		c0-4.2,1.2-5.4,5.3-5.3c20.9,0.2,41.8,0.2,62.8,0c4.2,0,5.4,1.1,5.3,5.3c-0.2,19.8-0.2,39.5,0,59.3c0,4.2-1.1,5.5-5.3,5.3
		C2100.7,817,2090.3,817.2,2079.8,817.2z"/>
	<path class="st1" d="M2259.4,901c-10.5,0-20.9-0.2-31.4,0.1c-4.2,0.1-5.4-1.2-5.3-5.4c0.2-19.8,0.2-39.5,0-59.3
		c0-4.2,1.2-5.4,5.4-5.3c20.9,0.2,41.8,0.2,62.8,0c4.2,0,5.4,1.2,5.3,5.4c-0.2,19.8-0.2,39.5,0,59.3c0,4.2-1.2,5.4-5.4,5.3
		C2280.4,900.8,2269.9,901,2259.4,901z"/>
	<path class="st1" d="M2345.5,747.5c9.9,0,19.8,0.2,29.6-0.1c4.5-0.1,6.7,0.5,6.6,5.9c-0.4,19.5-0.3,38.9,0,58.4
		c0.1,4.8-1.6,5.7-5.9,5.6c-20.6-0.2-41.3-0.3-61.9,0c-4.8,0.1-5.7-1.6-5.6-5.9c0.2-19.5,0.3-38.9,0-58.4c-0.1-4.8,1.6-5.8,5.9-5.6
		C2324.6,747.6,2335,747.5,2345.5,747.5z"/>
	<path class="st1" d="M2344.9,986.4c-10.5,0-20.9-0.2-31.4,0.1c-4.2,0.1-5.4-1.1-5.3-5.3c0.2-19.8,0.2-39.5,0-59.3
		c0-4.2,1.2-5.4,5.3-5.3c20.9,0.2,41.8,0.2,62.8,0c4.2,0,5.4,1.1,5.3,5.3c-0.2,19.8-0.2,39.5,0,59.3c0,4.2-1.1,5.5-5.3,5.3
		C2365.9,986.2,2355.4,986.4,2344.9,986.4z"/>
	<path class="st1" d="M1548.6,1070.2c-10.2,0-20.3-0.2-30.5,0.1c-4.2,0.1-5.4-1.2-5.3-5.3c0.2-19.8,0.2-39.5,0-59.3
		c0-4.2,1.2-5.4,5.3-5.3c20.9,0.2,41.8,0.2,62.8,0c4.2,0,5.4,1.2,5.3,5.3c-0.2,19.8-0.2,39.5,0,59.3c0,4.2-1.1,5.5-5.3,5.3
		C1570.1,1070,1559.4,1070.2,1548.6,1070.2z"/>
	<path class="st1" d="M1988.2,662c10.2,0,20.3,0.2,30.5-0.1c4.2-0.1,5.4,1.2,5.3,5.3c-0.2,19.8-0.2,39.5,0,59.3
		c0,4.2-1.2,5.4-5.3,5.3c-20.9-0.2-41.8-0.2-62.8,0c-4.2,0-5.4-1.2-5.3-5.3c0.2-19.8,0.2-39.5,0-59.3c0-4.2,1.1-5.5,5.3-5.3
		C1966.7,662.2,1977.5,662,1988.2,662z"/>
	<path class="st1" d="M2075.9,731.8c-10.5,0-20.9-0.2-31.4,0.1c-3.8,0.1-4.9-1-4.9-4.9c0.2-20,0.2-40.1,0-60.2c0-3.8,1-4.9,4.9-4.9
		c21.2,0.2,42.4,0.2,63.6,0c3.8,0,4.9,1,4.9,4.9c-0.2,20-0.2,40.1,0,60.2c0,3.8-1,5-4.9,4.9C2097.4,731.6,2086.6,731.8,2075.9,731.8
		z"/>
	<path class="st1" d="M2344.1,1070.2c-10.2,0-20.3-0.2-30.5,0.1c-4.1,0.1-5.5-1-5.4-5.3c0.2-19.8,0.2-39.5,0-59.3
		c0-4.1,1-5.5,5.3-5.4c20.9,0.2,41.8,0.2,62.8,0c4.1,0,5.5,1,5.4,5.3c-0.2,19.8-0.3,39.5,0,59.3c0.1,5.3-2.3,5.4-6.2,5.4
		C2365.1,1070.1,2354.6,1070.2,2344.1,1070.2z"/>
	<path class="st1" d="M2076.3,1075.4c-10.5,0-20.9-0.2-31.4,0.1c-4.2,0.1-5.4-1.2-5.3-5.3c0.2-19.8,0.2-39.5,0-59.3
		c0-4.2,1.2-5.4,5.3-5.3c20.9,0.2,41.8,0.2,62.8,0c4.2,0,5.4,1.2,5.3,5.3c-0.2,19.8-0.2,39.5,0,59.3c0,4.2-1.2,5.5-5.3,5.3
		C2097.2,1075.2,2086.8,1075.4,2076.3,1075.4z"/>
	<path class="st1" d="M1549.5,1155.6c-10.5,0-20.9-0.2-31.4,0.1c-4.2,0.1-5.4-1.1-5.3-5.3c0.2-19.8,0.2-39.5,0-59.3
		c0-4.2,1.2-5.4,5.3-5.3c20.9,0.2,41.8,0.2,62.8,0c4.2,0,5.4,1.1,5.3,5.3c-0.2,19.8-0.2,39.5,0,59.3c0,4.2-1.1,5.5-5.3,5.3
		C1570.4,1155.4,1560,1155.6,1549.5,1155.6z"/>
	<path class="st1" d="M1987.3,1155.6c-10.5,0-20.9-0.2-31.4,0.1c-4.2,0.1-5.4-1.2-5.3-5.3c0.2-19.8,0.2-39.5,0-59.3
		c0-4.2,1.2-5.4,5.3-5.3c20.9,0.2,41.8,0.2,62.8,0c4.2,0,5.4,1.2,5.3,5.3c-0.2,19.8-0.2,39.5,0,59.3c0,4.2-1.1,5.5-5.3,5.3
		C2008.3,1155.4,1997.8,1155.6,1987.3,1155.6z"/>
	<path class="st1" d="M2075.9,1155.6c-10.5,0-20.9-0.1-31.4,0.1c-3.7,0.1-5-0.9-5-4.8c0.2-20,0.2-40.1,0-60.2c0-3.7,0.9-5,4.8-5
		c21.2,0.2,42.4,0.2,63.6,0c3.7,0,5,0.9,5,4.8c-0.2,20-0.2,40.1,0,60.2c0.1,4.7-2,5-5.7,4.9
		C2096.9,1155.5,2086.4,1155.6,2075.9,1155.6z"/>
	<path class="st1" d="M2345.2,1085.9c10.2,0,20.3,0.2,30.5-0.1c4.3-0.1,6,0.8,5.9,5.6c-0.3,19.5-0.2,38.9,0,58.4
		c0,4.3-0.8,6-5.6,5.9c-20.6-0.3-41.3-0.2-61.9,0c-4.3,0-6-0.8-5.9-5.6c0.3-19.5,0.3-38.9,0-58.4c-0.1-5.4,2.1-6,6.6-5.9
		C2324.9,1086.1,2335.1,1085.9,2345.2,1085.9z"/>
	<path class="st1" d="M1548.6,1239.4c-10.2,0-20.3-0.2-30.5,0.1c-4.2,0.1-5.4-1.1-5.4-5.3c0.2-19.8,0.2-39.5,0-59.3
		c0-4.2,1.1-5.4,5.3-5.4c20.9,0.2,41.8,0.2,62.8,0c4.2,0,5.4,1.1,5.4,5.3c-0.2,19.8-0.2,39.5,0,59.3c0,4.2-1.1,5.5-5.3,5.4
		C1570.2,1239.2,1559.4,1239.4,1548.6,1239.4z"/>
	<path class="st1" d="M1986.6,1239.4c-9.9,0-19.8-0.2-29.6,0.1c-4.7,0.2-6.5-0.9-6.4-6.1c0.3-19.2,0.3-38.4,0-57.5
		c-0.1-4.7,0.9-6.5,6.1-6.4c20.3,0.3,40.7,0.3,61,0c4.7-0.1,6.5,0.9,6.4,6.1c-0.3,19.2-0.4,38.4,0,57.5c0.1,5.9-2.1,6.5-7,6.4
		C2007,1239.1,1996.8,1239.4,1986.6,1239.4z"/>
	<path class="st1" d="M2076.3,1239.4c-10.5,0-20.9-0.2-31.4,0.1c-4.2,0.1-5.4-1.1-5.3-5.3c0.2-19.8,0.2-39.5,0-59.3
		c0-4.2,1.1-5.4,5.3-5.3c20.9,0.2,41.8,0.2,62.8,0c4.2,0,5.4,1.1,5.3,5.3c-0.2,19.8-0.2,39.5,0,59.3c0,4.2-1.1,5.5-5.3,5.3
		C2097.2,1239.2,2086.8,1239.4,2076.3,1239.4z"/>
	<path class="st1" d="M2259.5,1239.4c-10.5,0-20.9-0.2-31.4,0.1c-4.2,0.1-5.4-1.2-5.3-5.3c0.2-19.8,0.2-39.5,0-59.3
		c0-4.2,1.2-5.4,5.3-5.3c20.9,0.2,41.8,0.2,62.8,0c4.2,0,5.4,1.1,5.3,5.3c-0.2,19.8-0.2,39.5,0,59.3c0,4.2-1.1,5.5-5.3,5.3
		C2280.4,1239.2,2269.9,1239.4,2259.5,1239.4z"/>
	<path class="st1" d="M2344.3,1239.4c-9.9,0-19.8-0.2-29.6,0.1c-4.6,0.1-6.5-0.8-6.5-6c0.3-19.2,0.3-38.4,0-57.5
		c-0.1-4.6,0.8-6.5,6-6.5c20.3,0.3,40.7,0.3,61,0c4.6-0.1,6.5,0.8,6.5,6c-0.3,19.2-0.4,38.4,0,57.5c0.1,5.8-2,6.6-7,6.4
		C2364.6,1239.1,2354.4,1239.4,2344.3,1239.4z"/>
	<path class="st1" d="M2744.4,260.8c10.5,0,20.9,0.2,31.4-0.1c4.2-0.1,5.4,1.1,5.4,5.3c-0.2,19.8-0.2,39.5,0,59.3
		c0,4.2-1.1,5.4-5.3,5.4c-20.3-0.2-40.7-0.2-61,0c-5.3,0.1-7.2-1.8-7.1-7.1c0.2-19.2,0.2-38.4,0-57.5c0-4.2,1.2-5.4,5.3-5.3
		C2723.5,261,2733.9,260.8,2744.4,260.8z"/>
	<path class="st1" d="M1549.5,831.2c10.5,0,20.9,0.2,31.4-0.1c4.2-0.1,5.4,1.2,5.3,5.4c-0.2,19.8-0.2,39.5,0,59.3
		c0,4.2-1.2,5.4-5.4,5.3c-20.3-0.2-40.7-0.2-61,0c-5.3,0.1-7.1-1.9-7.1-7.1c0.2-19.2,0.2-38.4,0-57.5c0-4.3,1.3-5.4,5.4-5.3
		C1528.6,831.4,1539.1,831.2,1549.5,831.2z"/>
	<path class="st1" d="M2345.5,831.2c10.2,0,20.3,0.3,30.5-0.1c4.7-0.2,5.8,1.4,5.7,5.9c-0.2,19.5-0.3,38.9,0,58.4
		c0.1,4.7-1.4,5.8-5.9,5.7c-20-0.2-40.1-0.3-60.1,0c-5.8,0.1-7.6-2-7.5-7.6c0.3-18.9,0.3-37.8,0-56.7c-0.1-4.7,1.5-5.8,5.9-5.7
		C2324.5,831.4,2335,831.2,2345.5,831.2z"/>
	<path class="st1" d="M2432.8,731.8c-9.9,0-19.8-0.2-29.6,0.1c-4.2,0.1-6.1-0.7-6-5.6c0.3-19.5,0.2-38.9,0-58.4c0-4.2,0.7-6.1,5.6-6
		c20,0.3,40.1,0.2,60.1,0c4.2,0,6.1,0.7,6,5.6c-0.3,19.5-0.3,38.9,0,58.4c0.1,5.3-1.9,6.1-6.5,6
		C2452.5,731.5,2442.7,731.8,2432.8,731.8z"/>
	<path class="st1" d="M2523.7,662c10.2,0,20.3,0.2,30.5-0.1c4.2-0.1,5.4,1.2,5.3,5.3c-0.2,19.8-0.2,39.5,0,59.3
		c0,4.2-1.2,5.4-5.3,5.3c-20.3-0.2-40.7-0.2-61,0c-4.2,0-5.4-1.2-5.3-5.3c0.2-19.8,0.2-39.5,0-59.3c0-4.2,1.1-5.5,5.3-5.3
		C2503.4,662.2,2513.6,662,2523.7,662z"/>
	<path class="st1" d="M2698.7,731.8c-10.2,0-20.3-0.2-30.5,0.1c-4.3,0.1-6-0.8-5.9-5.6c0.3-19.5,0.2-38.9,0-58.4
		c0-4.3,0.8-6,5.6-5.9c20,0.3,40.1,0.2,60.2,0c4.3,0,6,0.8,5.9,5.6c-0.3,19.5-0.3,38.9,0,58.4c0.1,5.4-2.1,6-6.6,5.9
		C2717.9,731.6,2708.3,731.8,2698.7,731.8z"/>
	<path class="st1" d="M1635.9,747.5c10.2,0,20.3,0.2,30.5-0.1c4.3-0.1,5.3,1.3,5.3,5.4c-0.2,19.8-0.2,39.5,0,59.3
		c0,4.3-1.3,5.3-5.4,5.3c-20.3-0.2-40.7-0.2-61,0c-4.3,0-5.3-1.3-5.3-5.4c0.2-19.8,0.2-39.5,0-59.3c0-4.3,1.3-5.4,5.4-5.3
		C1615.6,747.6,1625.7,747.5,1635.9,747.5z"/>
	<path class="st1" d="M1723.1,747.5c10.2,0,20.3,0.2,30.5-0.1c4.2-0.1,5.4,1.2,5.3,5.3c-0.2,19.8-0.2,39.5,0,59.3
		c0,4.2-1.2,5.4-5.3,5.3c-20.3-0.2-40.7-0.2-61,0c-4.2,0-5.4-1.2-5.3-5.3c0.2-19.8,0.2-39.5,0-59.3c0-4.2,1.1-5.5,5.3-5.3
		C1702.7,747.7,1712.9,747.5,1723.1,747.5z"/>
	<path class="st1" d="M1902.7,747.5c10.2,0,20.3,0.2,30.5-0.1c4.2-0.1,5.4,1.1,5.3,5.3c-0.2,19.8-0.2,39.5,0,59.3
		c0,4.2-1.1,5.4-5.3,5.3c-20.3-0.2-40.7-0.2-61,0c-4.2,0-5.4-1.1-5.3-5.3c0.2-19.8,0.2-39.5,0-59.3c0-4.2,1.1-5.5,5.3-5.3
		C1882.4,747.7,1892.6,747.5,1902.7,747.5z"/>
	<path class="st1" d="M2170.6,817.2c-9.9,0-19.8-0.2-29.6,0.1c-4.1,0.1-5.4-1-5.4-5.3c0.2-19.8,0.2-39.5,0-59.3c0-4.1,1-5.4,5.3-5.4
		c20.3,0.2,40.7,0.2,61,0c4.1,0,5.4,1,5.4,5.3c-0.2,19.8-0.2,39.5,0,59.3c0,4.1-1,5.5-5.3,5.4C2191.5,817,2181,817.2,2170.6,817.2z"
		/>
	<path class="st1" d="M2524.5,817.2c-10.2,0-20.3-0.1-30.5,0.1c-4,0.1-6.2-0.3-6.1-5.4c0.3-19.8,0.3-39.5,0-59.3
		c-0.1-4.4,1.5-5.2,5.5-5.2c20.3,0.2,40.7,0.2,61,0c4.4,0,5.2,1.5,5.2,5.5c-0.2,19.8-0.2,39.5,0,59.3c0.1,4.4-1.5,5.3-5.5,5.2
		C2544.2,817.1,2534.4,817.2,2524.5,817.2z"/>
	<path class="st1" d="M2612.7,747.5c10.2,0,20.3,0.2,30.5-0.1c4.2-0.1,5.4,1.2,5.3,5.3c-0.2,19.8-0.2,39.5,0,59.3
		c0,4.2-1.2,5.4-5.3,5.3c-20.3-0.2-40.7-0.2-61,0c-4.2,0-5.4-1.2-5.3-5.3c0.2-19.8,0.2-39.5,0-59.3c0-4.2,1.1-5.5,5.3-5.3
		C2592.3,747.7,2602.5,747.5,2612.7,747.5z"/>
	<path class="st1" d="M2784.9,817.2c-9.9,0-19.8-0.1-29.6,0.1c-3.7,0.1-5.8-0.2-5.7-4.9c0.3-20,0.2-40.1,0-60.2c0-3.9,1.3-4.8,5-4.8
		c20.6,0.2,41.3,0.2,61.9,0c3.9,0,4.8,1.3,4.8,5c-0.2,20-0.2,40.1,0,60.2c0,3.9-1.3,4.9-5,4.8
		C2805.8,817.1,2795.3,817.2,2784.9,817.2z"/>
	<path class="st1" d="M1722.8,901c-9.9,0-19.8-0.2-29.6,0.1c-4.3,0.1-6-0.8-5.9-5.6c0.3-19.5,0.2-38.9,0-58.4c0-4.3,0.8-6,5.6-5.9
		c20,0.3,40.1,0.2,60.2,0c4.3,0,6,0.8,5.9,5.6c-0.3,19.5-0.3,38.9,0,58.4c0.1,5.4-2.1,6-6.6,5.9C1742.5,900.8,1732.6,901,1722.8,901
		z"/>
	<path class="st1" d="M1902.7,901c-10.2,0-20.3-0.2-30.5,0.1c-4.2,0.1-5.4-1.2-5.3-5.3c0.2-19.8,0.2-39.5,0-59.3
		c0-4.2,1.2-5.4,5.3-5.3c20.3,0.2,40.7,0.2,61,0c4.2,0,5.4,1.2,5.3,5.3c-0.2,19.8-0.2,39.5,0,59.3c0,4.2-1.1,5.5-5.3,5.3
		C1923.1,900.8,1912.9,901,1902.7,901z"/>
	<path class="st1" d="M2171.4,901c-10.2,0-20.3-0.2-30.5,0.1c-4.2,0.1-5.4-1.2-5.3-5.3c0.2-19.8,0.2-39.5,0-59.3
		c0-4.2,1.2-5.4,5.3-5.3c20.3,0.2,40.7,0.2,61,0c4.2,0,5.4,1.2,5.3,5.3c-0.2,19.8-0.2,39.5,0,59.3c0,4.2-1.1,5.5-5.3,5.3
		C2191.7,900.8,2181.5,901,2171.4,901z"/>
	<path class="st1" d="M2432.9,901c-9.9,0-19.8-0.1-29.6,0.1c-4,0.1-6.2-0.3-6.1-5.4c0.3-19.8,0.3-39.5,0-59.3
		c-0.1-4.4,1.5-5.2,5.5-5.2c20.3,0.2,40.7,0.2,61,0c4.4,0,5.2,1.5,5.2,5.5c-0.2,19.8-0.2,39.5,0,59.3c0.1,4.4-1.5,5.3-5.5,5.2
		C2453.2,900.8,2443.1,901,2432.9,901z"/>
	<path class="st1" d="M2611.9,901c-9.9,0-19.8-0.2-29.6,0.1c-4.1,0.1-5.5-1-5.4-5.3c0.2-19.8,0.2-39.5,0-59.3c0-4.1,1-5.5,5.3-5.4
		c20.3,0.2,40.7,0.2,61,0c4.1,0,5.5,1,5.4,5.3c-0.2,19.8-0.2,39.5,0,59.3c0,4.1-1,5.5-5.3,5.4C2632.8,900.8,2622.4,901,2611.9,901z"
		/>
	<path class="st1" d="M1635.4,986.4c-10.2,0-20.3-0.2-30.5,0.1c-3.9,0.1-4.9-1.1-4.9-4.9c0.2-20,0.2-40.1,0-60.2
		c0-3.9,1.1-4.9,4.9-4.9c20.6,0.2,41.3,0.2,61.9,0c3.9,0,4.9,1.1,4.9,4.9c-0.2,20-0.2,40.1,0,60.2c0,3.9-1.1,5-4.9,4.9
		C1656.3,986.3,1645.9,986.4,1635.4,986.4z"/>
	<path class="st1" d="M1813.9,916.7c9.9,0,19.8,0.1,29.6-0.1c4.1-0.1,6.2,0.4,6.1,5.5c-0.3,19.8-0.3,39.5,0,59.3
		c0.1,4.4-1.6,5.2-5.5,5.2c-20.3-0.2-40.7-0.2-61,0c-4.4,0.1-5.2-1.6-5.2-5.5c0.2-19.8,0.2-39.5,0-59.3c-0.1-4.4,1.6-5.3,5.5-5.2
		C1793.6,916.8,1803.8,916.7,1813.9,916.7z"/>
	<path class="st1" d="M2433,916.7c10.2,0,20.3,0.2,30.5-0.1c4.2-0.1,5.4,1.2,5.3,5.3c-0.2,19.8-0.2,39.5,0,59.3
		c0,4.2-1.2,5.4-5.3,5.3c-20.3-0.2-40.7-0.2-61,0c-4.2,0-5.4-1.2-5.3-5.3c0.2-19.8,0.2-39.5,0-59.3c0-4.2,1.1-5.5,5.3-5.3
		C2412.7,916.9,2422.9,916.7,2433,916.7z"/>
	<path class="st1" d="M2523.2,986.4c-9.6,0-19.2-0.2-28.8,0.1c-4.5,0.1-6.7-0.5-6.6-5.9c0.4-19.5,0.3-38.9,0-58.4
		c-0.1-4.8,1.6-5.7,5.9-5.6c20,0.2,40.1,0.3,60.2,0c4.8-0.1,5.7,1.6,5.6,5.9c-0.2,19.5-0.3,38.9,0,58.4c0.1,4.8-1.6,5.8-5.9,5.6
		C2543.5,986.2,2533.3,986.4,2523.2,986.4z"/>
	<path class="st1" d="M2612.7,986.4c-10.2,0-20.3-0.2-30.5,0.1c-4.2,0.1-5.4-1.2-5.3-5.3c0.2-19.8,0.2-39.5,0-59.3
		c0-4.2,1.2-5.4,5.3-5.3c20.3,0.2,40.7,0.2,61,0c4.2,0,5.4,1.2,5.3,5.3c-0.2,19.8-0.2,39.5,0,59.3c0,4.2-1.2,5.5-5.3,5.3
		C2633,986.2,2622.9,986.4,2612.7,986.4z"/>
	<path class="st1" d="M2698.4,916.7c9.6,0,19.2,0.3,28.8-0.1c5-0.2,7.1,0.6,7,6.4c-0.4,19.2-0.4,38.4,0,57.5c0.1,5.3-1.8,6.1-6.5,6
		c-19.8-0.2-39.5-0.3-59.3,0c-5.3,0.1-6.1-1.8-6-6.5c0.2-19.2,0.3-38.4,0-57.5c-0.1-5.3,1.8-6.2,6.5-6
		C2678.6,916.9,2688.5,916.7,2698.4,916.7z"/>
	<path class="st1" d="M2785.4,916.7c10.2,0,20.3,0.2,30.5-0.1c4.2-0.1,5.4,1.1,5.3,5.3c-0.2,19.8-0.2,39.5,0,59.3
		c0,4.2-1.1,5.4-5.3,5.3c-20.3-0.2-40.7-0.2-61,0c-4.2,0-5.4-1.1-5.3-5.3c0.2-19.8,0.2-39.5,0-59.3c0-4.2,1.1-5.5,5.3-5.3
		C2765,916.9,2775.2,916.7,2785.4,916.7z"/>
	<path class="st1" d="M1636.2,1000.4c10.2,0,20.3,0.1,30.5-0.1c3.7-0.1,5,0.9,5,4.8c-0.2,20-0.2,40.1,0,60.2c0,3.7-0.9,5-4.8,5
		c-20.6-0.2-41.3-0.2-61.9,0c-3.7,0-5-0.9-5-4.8c0.2-20,0.2-40.1,0-60.2c-0.1-4.7,2-5,5.7-4.9
		C1615.9,1000.5,1626,1000.4,1636.2,1000.4z"/>
	<path class="st1" d="M1723.9,1000.4c9.9,0,19.8,0.2,29.6-0.1c4.2-0.1,5.4,1.1,5.4,5.3c-0.2,19.8-0.2,39.5,0,59.3
		c0,4.2-1.1,5.4-5.3,5.4c-20.3-0.2-40.7-0.2-61,0c-4.2,0-5.4-1.1-5.4-5.3c0.2-19.8,0.2-39.5,0-59.3c0-4.2,1.1-5.5,5.3-5.4
		C1703,1000.6,1713.5,1000.4,1723.9,1000.4z"/>
	<path class="st1" d="M1814,1000.4c9.9,0,19.8,0.2,29.6-0.1c4.2-0.1,6.1,0.7,6,5.6c-0.3,19.5-0.2,38.9,0,58.4c0,4.2-0.7,6.1-5.6,6
		c-20-0.3-40.1-0.2-60.1,0c-4.2,0-6.1-0.7-6-5.6c0.3-19.5,0.3-38.9,0-58.4c-0.1-5.3,1.9-6.1,6.5-6
		C1794.3,1000.6,1804.2,1000.4,1814,1000.4z"/>
	<path class="st1" d="M1902.6,1070.2c-9.9,0-19.8-0.1-29.6,0.1c-4,0.1-6.2-0.3-6.1-5.4c0.3-19.8,0.3-39.5,0-59.3
		c-0.1-4.4,1.5-5.2,5.5-5.2c20.3,0.2,40.7,0.2,61,0c4.4,0,5.2,1.5,5.2,5.5c-0.2,19.8-0.2,39.5,0,59.3c0.1,4.4-1.5,5.3-5.5,5.2
		C1923,1070,1912.8,1070.2,1902.6,1070.2z"/>
	<path class="st1" d="M2170.5,1070.2c-9.9,0-19.8-0.2-29.6,0.1c-4.2,0.1-5.4-1.1-5.3-5.3c0.2-19.8,0.2-39.5,0-59.3
		c0-4.2,1.1-5.4,5.3-5.3c20.3,0.2,40.7,0.2,61,0c4.2,0,5.4,1.1,5.3,5.3c-0.2,19.8-0.2,39.5,0,59.3c0,4.2-1.1,5.5-5.3,5.3
		C2191.4,1070,2181,1070.2,2170.5,1070.2z"/>
	<path class="st1" d="M1900.6,156.1c-10.2,0-20.3-0.2-30.5,0.1c-3.8,0.1-4.9-1-4.9-4.9c0.2-20,0.2-40.1,0-60.2c0-3.8,1-4.9,4.9-4.9
		c20.6,0.2,41.3,0.2,61.9,0c3.8,0,4.9,1,4.9,4.9c-0.2,20-0.2,40.1,0,60.2c0,3.8-1,5-4.9,4.9C1921.5,156,1911,156.1,1900.6,156.1z"/>
	<path class="st1" d="M2433,1000.4c10.2,0,20.3,0.2,30.5-0.1c4.1-0.1,5.4,1,5.4,5.3c-0.2,19.8-0.2,39.5,0,59.3c0,4.1-1,5.4-5.3,5.4
		c-20.3-0.2-40.7-0.2-61,0c-4.1,0-5.4-1-5.4-5.3c0.2-19.8,0.2-39.5,0-59.3c0-4.1,1-5.5,5.3-5.4
		C2412.6,1000.6,2422.8,1000.4,2433,1000.4z"/>
	<path class="st1" d="M2523.7,1070.2c-10.2,0-20.3-0.2-30.5,0.1c-4.2,0.1-5.4-1.2-5.3-5.3c0.2-19.8,0.2-39.5,0-59.3
		c0-4.2,1.2-5.4,5.3-5.3c20.3,0.2,40.7,0.2,61,0c4.2,0,5.4,1.2,5.3,5.3c-0.2,19.8-0.2,39.5,0,59.3c0,4.2-1.1,5.5-5.3,5.3
		C2544.1,1070,2533.9,1070.2,2523.7,1070.2z"/>
	<path class="st1" d="M2697.4,1070.2c-9.9,0-19.8-0.2-29.6,0.1c-4.1,0.1-5.5-1-5.4-5.3c0.2-19.8,0.2-39.5,0-59.3
		c0-4.1,1-5.5,5.3-5.4c20.3,0.2,40.7,0.2,61,0c4.1,0,5.5,1,5.4,5.3c-0.2,19.8-0.2,39.5,0,59.3c0,4.1-1,5.5-5.3,5.4
		C2718.3,1070,2707.8,1070.2,2697.4,1070.2z"/>
	<path class="st1" d="M2786.1,1000.4c9.6,0,19.2,0.2,28.8-0.1c4.7-0.2,6.5,0.9,6.4,6.1c-0.3,19.2-0.3,38.4,0,57.5
		c0.1,4.7-0.9,6.5-6.1,6.4c-19.8-0.3-39.5-0.3-59.3,0c-4.7,0.1-6.5-0.9-6.4-6.1c0.3-19.2,0.4-38.4,0-57.5c-0.1-5.9,2.1-6.5,7-6.4
		C2766.3,1000.6,2776.2,1000.4,2786.1,1000.4z"/>
	<path class="st1" d="M2224.9,288.7c-9.9,0-19.8-0.1-29.6,0.1c-3.7,0.1-5.8-0.2-5.7-4.9c0.3-20,0.2-40.1,0-60.2c0-3.9,1.3-4.8,5-4.8
		c20.6,0.2,41.3,0.2,61.9,0c3.9,0,4.8,1.3,4.8,5c-0.2,20-0.2,40.1,0,60.2c0,3.9-1.3,4.9-5,4.8
		C2245.9,288.5,2235.4,288.7,2224.9,288.7z"/>
	<path class="st1" d="M1635,311.4c-9.9,0-19.8-0.2-29.6,0.1c-4.2,0.1-5.4-1.2-5.3-5.3c0.2-19.8,0.2-39.5,0-59.3
		c0-4.2,1.2-5.4,5.3-5.3c20.3,0.2,40.7,0.2,61,0c4.2,0,5.4,1.2,5.3,5.3c-0.2,19.8-0.2,39.5,0,59.3c0,4.2-1.1,5.5-5.3,5.3
		C1655.9,311.2,1645.4,311.4,1635,311.4z"/>
	<path class="st1" d="M1635.9,1155.6c-10.2,0-20.3-0.2-30.5,0.1c-4.1,0.1-5.4-1.1-5.4-5.3c0.2-19.8,0.2-39.5,0-59.3
		c0-4.1,1.1-5.4,5.3-5.4c20.3,0.2,40.7,0.2,61,0c4.1,0,5.4,1.1,5.4,5.3c-0.2,19.8-0.2,39.5,0,59.3c0,4.1-1.1,5.5-5.3,5.4
		C1656.2,1155.4,1646.1,1155.6,1635.9,1155.6z"/>
	<path class="st1" d="M1722.4,1155.6c-9.6,0-19.2-0.2-28.8,0.1c-4.6,0.2-6.5-0.8-6.5-6c0.3-19.2,0.3-38.4,0-57.5
		c-0.1-4.6,0.8-6.5,6-6.5c19.8,0.3,39.5,0.3,59.3,0c4.6-0.1,6.5,0.8,6.5,6c-0.3,19.2-0.4,38.4,0,57.5c0.1,5.8-2,6.6-7,6.4
		C1742.2,1155.4,1732.3,1155.6,1722.4,1155.6z"/>
	<path class="st1" d="M1814.6,1085.9c9.9,0,19.8,0.2,29.6-0.1c4.1-0.1,5.5,1,5.4,5.3c-0.2,19.8-0.2,39.5,0,59.3c0,4.1-1,5.5-5.3,5.4
		c-20.3-0.2-40.7-0.2-61,0c-4.1,0-5.5-1-5.4-5.3c0.2-19.8,0.2-39.5,0-59.3c0-4.1,1-5.5,5.3-5.4
		C1793.7,1086.1,1804.1,1085.9,1814.6,1085.9z"/>
	<path class="st1" d="M1902.3,1155.6c-10.2,0-20.3-0.2-30.5,0.1c-3.8,0.1-4.9-1-4.9-4.9c0.2-20,0.2-40.1,0-60.2c0-3.8,1-4.9,4.9-4.9
		c20.6,0.2,41.3,0.2,61.9,0c3.8,0,4.9,1,4.9,4.9c-0.2,20-0.2,40.1,0,60.2c0,3.8-1,5-4.9,4.9
		C1923.2,1155.5,1912.8,1155.6,1902.3,1155.6z"/>
	<path class="st1" d="M2523.7,395.1c-10.2,0-20.3-0.2-30.5,0.1c-4.2,0.1-5.4-1.2-5.3-5.3c0.2-19.8,0.2-39.5,0-59.3
		c0-4.2,1.2-5.4,5.3-5.3c20.3,0.2,40.7,0.2,61,0c4.2,0,5.4,1.2,5.3,5.3c-0.2,19.8-0.2,39.5,0,59.3c0,4.2-1.1,5.5-5.3,5.3
		C2544.1,394.9,2533.9,395.1,2523.7,395.1z"/>
	<path class="st1" d="M1831.2,430c-10.2,0-20.3-0.2-30.5,0.1c-4.2,0.1-5.4-1.2-5.3-5.3c0.2-19.8,0.2-39.5,0-59.3
		c0-4.2,1.2-5.4,5.3-5.3c20.3,0.2,40.7,0.2,61,0c4.2,0,5.4,1.2,5.3,5.3c-0.2,19.8-0.2,39.5,0,59.3c0,4.2-1.1,5.5-5.3,5.3
		C1851.6,429.8,1841.4,430,1831.2,430z"/>
	<path class="st1" d="M2171,1155.6c-10.2,0-20.3-0.1-30.5,0.1c-3.7,0.1-5-0.9-5-4.8c0.2-20,0.2-40.1,0-60.2c0-3.7,0.9-5,4.8-5
		c20.6,0.2,41.3,0.2,61.9,0c3.7,0,5,0.9,5,4.8c-0.2,20-0.2,40.1,0,60.2c0.1,4.8-2,5-5.7,4.9
		C2191.4,1155.5,2181.2,1155.6,2171,1155.6z"/>
	<path class="st1" d="M2699,831.2c9.9,0,19.8,0.2,29.6-0.1c4.2-0.1,5.4,1.2,5.3,5.3c-0.2,19.8-0.2,39.5,0,59.3
		c0,4.2-1.2,5.4-5.3,5.3c-20.3-0.2-40.7-0.2-61,0c-4.2,0-5.4-1.2-5.3-5.3c0.2-19.8,0.2-39.5,0-59.3c0-4.2,1.1-5.5,5.3-5.3
		C2678.1,831.4,2688.6,831.2,2699,831.2z"/>
	<path class="st1" d="M2433,1085.9c10.2,0,20.3,0.2,30.5-0.1c4.2-0.1,5.4,1.1,5.3,5.3c-0.2,19.8-0.2,39.5,0,59.3
		c0,4.2-1.1,5.4-5.3,5.3c-20.3-0.2-40.7-0.2-61,0c-4.2,0-5.4-1.1-5.3-5.3c0.2-19.8,0.2-39.5,0-59.3c0-4.2,1.1-5.5,5.3-5.3
		C2412.7,1086.1,2422.9,1085.9,2433,1085.9z"/>
	<path class="st1" d="M2523.7,1085.9c10.2,0,20.3,0.2,30.5-0.1c4.2-0.1,5.4,1.2,5.3,5.4c-0.2,19.8-0.2,39.5,0,59.3
		c0,4.2-1.2,5.4-5.4,5.3c-20.3-0.2-40.7-0.2-61,0c-4.2,0-5.4-1.2-5.3-5.3c0.2-19.8,0.2-39.5,0-59.3c0-4.2,1.2-5.4,5.4-5.3
		C2503.4,1086.1,2513.6,1085.9,2523.7,1085.9z"/>
	<path class="st1" d="M2613.5,1085.9c9.9,0,19.8,0.2,29.6-0.1c4.1-0.1,5.5,0.9,5.4,5.2c-0.2,19.8-0.2,39.5,0,59.3
		c0,4-0.9,5.5-5.2,5.4c-20.3-0.2-40.7-0.2-61,0c-4,0-5.5-0.9-5.4-5.2c0.2-19.8,0.3-39.5,0-59.3c-0.1-5.2,2.2-5.5,6.2-5.4
		C2593.1,1086,2603.3,1085.9,2613.5,1085.9z"/>
	<path class="st1" d="M2698.7,1155.6c-10.2,0-20.3-0.2-30.5,0.1c-4.3,0.1-6-0.8-5.9-5.6c0.3-19.5,0.2-38.9,0-58.4
		c0-4.3,0.8-6,5.6-5.9c20,0.3,40.1,0.2,60.2,0c4.3,0,6,0.8,5.9,5.6c-0.3,19.5-0.3,38.9,0,58.4c0.1,5.4-2.1,6-6.6,5.9
		C2717.9,1155.4,2708.3,1155.6,2698.7,1155.6z"/>
	<path class="st1" d="M2785,1155.6c-10.2,0-20.3-0.2-30.5,0.1c-3.8,0.1-4.9-1-4.9-4.9c0.2-20,0.2-40.1,0-60.2c0-3.8,1-4.9,4.9-4.9
		c20.6,0.2,41.3,0.2,61.9,0c3.8,0,4.9,1,4.9,4.9c-0.2,20-0.2,40.1,0,60.2c0,3.8-1,5-4.9,4.9
		C2805.9,1155.5,2795.4,1155.6,2785,1155.6z"/>
	<path class="st1" d="M2171.4,410.8c10.2,0,20.3,0.2,30.5-0.1c4.2-0.1,5.4,1.2,5.3,5.3c-0.2,19.8-0.2,39.5,0,59.3
		c0,4.2-1.2,5.4-5.3,5.3c-20.3-0.2-40.7-0.2-61,0c-4.2,0-5.4-1.2-5.3-5.3c0.2-19.8,0.2-39.5,0-59.3c0-4.2,1.1-5.5,5.3-5.3
		C2151,411,2161.2,410.8,2171.4,410.8z"/>
	<path class="st1" d="M1635.9,1239.4c-10.2,0-20.3-0.2-30.5,0.1c-4.2,0.1-5.4-1.2-5.3-5.3c0.2-19.8,0.2-39.5,0-59.3
		c0-4.2,1.2-5.4,5.3-5.3c20.3,0.2,40.7,0.2,61,0c4.2,0,5.4,1.2,5.3,5.3c-0.2,19.8-0.2,39.5,0,59.3c0,4.2-1.1,5.5-5.3,5.3
		C1656.2,1239.2,1646,1239.4,1635.9,1239.4z"/>
	<path class="st1" d="M1723.1,1239.4c-10.2,0-20.3-0.2-30.5,0.1c-4.2,0.1-5.4-1.2-5.3-5.3c0.2-19.8,0.2-39.5,0-59.3
		c0-4.2,1.2-5.4,5.3-5.3c20.3,0.2,40.7,0.2,61,0c4.2,0,5.4,1.2,5.3,5.3c-0.2,19.8-0.2,39.5,0,59.3c0,4.2-1.1,5.5-5.3,5.3
		C1743.4,1239.2,1733.2,1239.4,1723.1,1239.4z"/>
	<path class="st1" d="M1814.1,1169.6c9.9,0,19.8,0.2,29.6-0.1c4.3-0.1,6,0.8,5.9,5.6c-0.3,19.5-0.2,38.9,0,58.4c0,4.3-0.8,6-5.6,5.9
		c-20-0.3-40.1-0.2-60.2,0c-4.3,0-6-0.8-5.9-5.6c0.3-19.5,0.3-38.9,0-58.4c-0.1-5.4,2.1-6,6.6-5.9
		C1794.3,1169.8,1804.2,1169.6,1814.1,1169.6z"/>
	<path class="st1" d="M1902.8,1239.4c-10.2,0-20.3-0.2-30.5,0.1c-4.1,0.1-5.4-1.1-5.4-5.3c0.2-19.8,0.2-39.5,0-59.3
		c0-4.1,1.1-5.4,5.3-5.4c20.3,0.2,40.7,0.2,61,0c4.1,0,5.4,1.1,5.4,5.3c-0.2,19.8-0.2,39.5,0,59.3c0,4.1-1.1,5.5-5.3,5.4
		C1923.1,1239.2,1912.9,1239.4,1902.8,1239.4z"/>
	<path class="st1" d="M2697.6,480.6c-9.6,0-19.2-0.2-28.8,0.1c-4.6,0.1-6.6-0.6-6.5-6c0.3-19.5,0.3-38.9,0-58.4
		c-0.1-4.9,1.8-5.6,6-5.6c20,0.2,40.1,0.3,60.2,0c4.9-0.1,5.6,1.8,5.6,6c-0.2,19.5-0.3,38.9,0,58.4c0.1,4.9-1.8,5.7-6,5.6
		C2717.9,480.4,2707.7,480.6,2697.6,480.6z"/>
	<path class="st1" d="M1814.3,494.5c9.6,0,19.2,0.2,28.8-0.1c4.5-0.1,6.7,0.5,6.6,5.9c-0.4,19.5-0.3,38.9,0,58.4
		c0.1,4.8-1.6,5.7-5.9,5.6c-20-0.2-40.1-0.3-60.2,0c-4.8,0.1-5.7-1.6-5.6-5.9c0.2-19.5,0.3-38.9,0-58.4c-0.1-4.8,1.6-5.8,5.9-5.6
		C1794,494.7,1804.2,494.5,1814.3,494.5z"/>
	<path class="st1" d="M2172.2,1169.6c9.9,0,19.8,0.2,29.6-0.1c4.1-0.1,5.5,1,5.4,5.3c-0.2,19.8-0.2,39.5,0,59.3c0,4.1-1,5.5-5.3,5.4
		c-20.3-0.2-40.7-0.2-61,0c-4.1,0-5.5-1-5.4-5.3c0.2-19.8,0.2-39.5,0-59.3c0-4.1,1-5.5,5.3-5.4
		C2151.2,1169.8,2161.7,1169.6,2172.2,1169.6z"/>
	<path class="st1" d="M1901.9,648c-9.9,0-19.8-0.2-29.6,0.1c-4.2,0.1-5.4-1.1-5.4-5.3c0.2-19.8,0.2-39.5,0-59.3
		c0-4.2,1.1-5.4,5.3-5.3c20.3,0.2,40.7,0.2,61,0c4.2,0,5.4,1.1,5.3,5.3c-0.2,19.8-0.2,39.5,0,59.3c0,4.2-1.1,5.5-5.3,5.3
		C1922.8,647.8,1912.3,648,1901.9,648z"/>
	<path class="st1" d="M2171.4,578.3c10.2,0,20.3,0.2,30.5-0.1c4.2-0.1,5.4,1.2,5.3,5.4c-0.2,19.8-0.2,39.5,0,59.3
		c0,4.2-1.2,5.4-5.4,5.3c-20.3-0.2-40.7-0.2-61,0c-4.2,0-5.4-1.2-5.3-5.4c0.2-19.8,0.2-39.5,0-59.3c0-4.2,1.2-5.4,5.4-5.3
		C2151,578.4,2161.2,578.3,2171.4,578.3z"/>
	<path class="st1" d="M2433.8,1169.6c9.9,0,19.8,0.2,29.6-0.1c4.1-0.1,5.5,1,5.4,5.3c-0.2,19.8-0.2,39.5,0,59.3c0,4.1-1,5.5-5.3,5.4
		c-20.3-0.2-40.7-0.2-61,0c-4.1,0-5.5-1-5.4-5.3c0.2-19.8,0.2-39.5,0-59.3c0-4.1,1-5.5,5.3-5.4
		C2412.9,1169.8,2423.4,1169.6,2433.8,1169.6z"/>
	<path class="st1" d="M2523.8,1169.6c10.2,0,20.3,0.2,30.5-0.1c4.3-0.1,5.3,1.3,5.3,5.4c-0.2,19.8-0.2,39.5,0,59.3
		c0,4.3-1.3,5.3-5.4,5.3c-20.3-0.2-40.7-0.2-61,0c-4.3,0-5.3-1.3-5.3-5.4c0.2-19.8,0.2-39.5,0-59.3c0-4.3,1.3-5.4,5.4-5.3
		C2503.4,1169.8,2513.6,1169.6,2523.8,1169.6z"/>
	<path class="st1" d="M2613.3,1239.4c-10.2,0-20.3-0.2-30.5,0.1c-4.2,0.1-6.1-0.7-6-5.6c0.3-19.5,0.2-38.9,0-58.4
		c0-4.2,0.7-6.1,5.6-6c20,0.3,40.1,0.2,60.1,0c4.2,0,6.1,0.7,6,5.6c-0.3,19.5-0.3,38.9,0,58.4c0.1,5.3-1.9,6.1-6.5,6
		C2632.5,1239.2,2622.9,1239.4,2613.3,1239.4z"/>
	<path class="st1" d="M2697.6,1239.4c-9.6,0-19.2-0.2-28.8,0.1c-4.6,0.1-6.6-0.6-6.5-6c0.3-19.5,0.3-38.9,0-58.4
		c-0.1-4.9,1.8-5.6,6-5.6c20,0.2,40.1,0.3,60.2,0c4.9-0.1,5.6,1.8,5.6,6c-0.2,19.5-0.3,38.9,0,58.4c0.1,4.9-1.8,5.7-6,5.6
		C2717.9,1239.2,2707.7,1239.4,2697.6,1239.4z"/>
	<path class="st1" d="M2784.5,1239.4c-9.9,0-19.8-0.2-29.6,0.1c-4.2,0.1-5.4-1.2-5.3-5.3c0.2-19.8,0.2-39.5,0-59.3
		c0-4.2,1.2-5.4,5.3-5.3c20.3,0.2,40.7,0.2,61,0c4.2,0,5.4,1.2,5.3,5.3c-0.2,19.8-0.2,39.5,0,59.3c0,4.2-1.1,5.5-5.3,5.3
		C2805.4,1239.2,2795,1239.4,2784.5,1239.4z"/>
	<path class="st1" d="M2432.3,648c-9.9,0-19.8-0.2-29.6,0.1c-4.1,0.1-5.5-0.9-5.4-5.2c0.2-19.8,0.2-39.5,0-59.3c0-4,0.9-5.5,5.2-5.4
		c20.3,0.2,40.7,0.2,61,0c4,0,5.5,0.9,5.4,5.2c-0.2,19.8-0.3,39.5,0,59.3c0.1,5.2-2.2,5.5-6.2,5.4
		C2452.6,647.9,2442.4,648,2432.3,648z"/>
	<path class="st1" d="M2612.7,578.3c10.2,0,20.3,0.2,30.5-0.1c4.2-0.1,5.4,1.2,5.3,5.4c-0.2,19.8-0.2,39.5,0,59.3
		c0,4.2-1.2,5.4-5.4,5.3c-20.3-0.2-40.7-0.2-61,0c-4.2,0-5.4-1.2-5.3-5.4c0.2-19.8,0.2-39.5,0-59.3c0-4.2,1.2-5.4,5.4-5.3
		C2592.4,578.4,2602.5,578.3,2612.7,578.3z"/>
	<path class="st1" d="M2785.4,648c-10.2,0-20.3-0.2-30.5,0.1c-4.2,0.1-5.4-1.2-5.3-5.3c0.2-19.8,0.2-39.5,0-59.3
		c0-4.2,1.2-5.4,5.3-5.3c20.3,0.2,40.7,0.2,61,0c4.2,0,5.4,1.2,5.3,5.3c-0.2,19.8-0.2,39.5,0,59.3c0,4.2-1.1,5.5-5.3,5.3
		C2805.7,647.8,2795.6,648,2785.4,648z"/>
	<path class="st1" d="M1636.4,731.8c-10.2,0-20.3-0.2-30.5,0.1c-4.3,0.1-6-0.8-5.9-5.6c0.3-19.5,0.2-38.9,0-58.4
		c0-4.3,0.8-6,5.6-5.9c20,0.3,40.1,0.2,60.2,0c4.3,0,6,0.8,5.9,5.6c-0.3,19.5-0.3,38.9,0,58.4c0.1,5.4-2.1,6-6.6,5.9
		C1655.6,731.6,1646,731.8,1636.4,731.8z"/>
	<path class="st1" d="M2401.6,84.6c-10.2,0-20.3-0.2-30.5,0.1c-4.2,0.1-5.4-1.2-5.3-5.3c0.2-19.2,0.2-38.4,0-57.5
		c0-4.2,1.2-5.4,5.3-5.3c20.9,0.2,41.8,0.2,62.8,0c4.2,0,5.4,1.2,5.3,5.3c-0.2,19.2-0.2,38.4,0,57.5c0,4.2-1.1,5.5-5.3,5.3
		C2423.1,84.4,2412.4,84.6,2401.6,84.6z"/>
</g>
</svg>
