<?xml version="1.0" encoding="UTF-8" standalone="no"?>
<!-- Generator: Adobe Illustrator 21.1.0, SVG Export Plug-In . SVG Version: 6.00 Build 0)  -->

<svg
   xmlns:dc="http://purl.org/dc/elements/1.1/"
   xmlns:cc="http://creativecommons.org/ns#"
   xmlns:rdf="http://www.w3.org/1999/02/22-rdf-syntax-ns#"
   xmlns:svg="http://www.w3.org/2000/svg"
   xmlns="http://www.w3.org/2000/svg"
   xmlns:sodipodi="http://sodipodi.sourceforge.net/DTD/sodipodi-0.dtd"
   xmlns:inkscape="http://www.inkscape.org/namespaces/inkscape"
   version="1.1"
   id="Layer_1"
   x="0px"
   y="0px"
   viewBox="0 0 1407.8 1251.3"
   xml:space="preserve"
   sodipodi:docname="bit-fog-pattern-tile.svg"
   width="1407.8"
   height="1251.3"
   inkscape:version="0.92.3 (unknown)"><metadata
   id="metadata7088"><rdf:RDF><cc:Work
       rdf:about=""><dc:format>image/svg+xml</dc:format><dc:type
         rdf:resource="http://purl.org/dc/dcmitype/StillImage" /><dc:title></dc:title></cc:Work></rdf:RDF></metadata><defs
   id="defs7086" /><sodipodi:namedview
   pagecolor="#82b9e5"
   bordercolor="#666666"
   borderopacity="1"
   objecttolerance="10"
   gridtolerance="10"
   guidetolerance="10"
   inkscape:pageopacity="0"
   inkscape:pageshadow="2"
   inkscape:window-width="1859"
   inkscape:window-height="1025"
   id="namedview7084"
   showgrid="false"
   inkscape:pagecheckerboard="false"
   inkscape:zoom="0.23636491"
   inkscape:cx="2160.4847"
   inkscape:cy="1130.002"
   inkscape:window-x="61"
   inkscape:window-y="27"
   inkscape:window-maximized="1"
   inkscape:current-layer="Layer_1" />
<style
   type="text/css"
   id="style6629">
	.st0{opacity:0.2;}
	.st1{fill:#FFFFFF;}
</style>
<g
   class="st0"
   id="g6855"
   style="opacity:0.2"
   transform="translate(0,7.0312503e-6)">
	<path
   class="st1"
   d="m 12.1,831.2 c 21.8,0 43.6,0.1 65.4,-0.1 4.9,-0.1 6.3,1.3 6.2,6.2 -0.3,19.2 -0.3,38.4 0,57.5 0.1,4.9 -1.3,6.3 -6.2,6.2 -21.8,-0.3 -43.6,-0.1 -65.4,-0.1 0,-23.2 0,-46.5 0,-69.7 z"
   id="path6631"
   inkscape:connector-curvature="0"
   style="fill:#ffffff" />
	<path
   class="st1"
   d="m 12.1,916.7 c 21.8,0 43.6,0.1 65.4,-0.1 4.9,-0.1 6.3,1.3 6.2,6.2 -0.3,19.2 -0.3,38.4 0,57.5 0.1,4.9 -1.3,6.3 -6.2,6.2 -21.8,-0.3 -43.6,-0.1 -65.4,-0.1 0,-23.2 0,-46.5 0,-69.7 z"
   id="path6633"
   inkscape:connector-curvature="0"
   style="fill:#ffffff" />
	<path
   class="st1"
   d="m 12.1,578.3 c 21.8,0 43.6,0.1 65.4,-0.1 4.9,-0.1 6.3,1.3 6.2,6.2 -0.3,19.2 -0.3,38.4 0,57.5 0.1,4.9 -1.3,6.3 -6.2,6.2 -21.8,-0.3 -43.6,-0.1 -65.4,-0.1 0,-23.2 0,-46.5 0,-69.7 z"
   id="path6635"
   inkscape:connector-curvature="0"
   style="fill:#ffffff" />
	<path
   class="st1"
   d="m 12.1,1085.9 c 21.8,0 43.6,0.1 65.4,-0.1 4.9,-0.1 6.3,1.3 6.2,6.2 -0.3,19.2 -0.3,38.4 0,57.5 0.1,4.9 -1.3,6.3 -6.2,6.2 -21.8,-0.3 -43.6,-0.1 -65.4,-0.1 0,-23.2 0,-46.5 0,-69.7 z"
   id="path6637"
   inkscape:connector-curvature="0"
   style="fill:#ffffff" />
	<path
   class="st1"
   d="m 12.1,410.8 c 21.8,0 43.6,0.1 65.4,-0.1 4.9,-0.1 6.3,1.3 6.2,6.2 -0.3,19.2 -0.3,38.4 0,57.5 0.1,4.9 -1.3,6.3 -6.2,6.2 -21.8,-0.3 -43.6,-0.1 -65.4,-0.1 0,-23.2 0,-46.4 0,-69.7 z"
   id="path6639"
   inkscape:connector-curvature="0"
   style="fill:#ffffff" />
	<path
   class="st1"
   d="m 12.1,1169.6 c 21.8,0 43.6,0.1 65.4,-0.1 4.9,-0.1 6.3,1.3 6.2,6.2 -0.3,19.2 -0.3,38.4 0,57.5 0.1,4.9 -1.3,6.3 -6.2,6.2 -21.8,-0.3 -43.6,-0.1 -65.4,-0.1 0,-23.2 0,-46.5 0,-69.7 z"
   id="path6641"
   inkscape:connector-curvature="0"
   style="fill:#ffffff" />
	<path
   class="st1"
   d="m 12.1,662 c 21.8,0 43.6,0.1 65.4,-0.1 4.9,-0.1 6.3,1.3 6.2,6.2 -0.3,19.2 -0.3,38.4 0,57.5 0.1,4.9 -1.3,6.3 -6.2,6.2 -21.8,-0.3 -43.6,-0.1 -65.4,-0.1 0,-23.2 0,-46.5 0,-69.7 z"
   id="path6643"
   inkscape:connector-curvature="0"
   style="fill:#ffffff" />
	<path
   class="st1"
   d="m 845.9,1070.2 c -10.5,0 -20.9,-0.2 -31.4,0.1 -4.3,0.1 -5.3,-1.3 -5.3,-5.4 0.2,-19.8 0.2,-39.5 0,-59.3 0,-4.3 1.3,-5.3 5.4,-5.3 20.9,0.2 41.8,0.2 62.8,0 4.3,0 5.3,1.3 5.3,5.4 -0.2,19.8 -0.2,39.5 0,59.3 0,4.3 -1.3,5.4 -5.4,5.3 -10.5,-0.3 -21,-0.1 -31.4,-0.1 z"
   id="path6645"
   inkscape:connector-curvature="0"
   style="fill:#ffffff" />
	<path
   class="st1"
   d="m 846.7,662 c 10.2,0 20.3,0.2 30.5,-0.1 4.1,-0.1 5.5,0.9 5.4,5.2 -0.2,19.8 -0.2,39.5 0,59.3 0,4 -0.9,5.5 -5.2,5.4 -20.9,-0.2 -41.8,-0.2 -62.8,0 -4,0 -5.5,-0.9 -5.4,-5.2 0.2,-19.8 0.3,-39.5 0,-59.3 -0.1,-5.2 2.2,-5.5 6.2,-5.4 10.4,0.2 20.8,0.1 31.3,0.1 z"
   id="path6647"
   inkscape:connector-curvature="0"
   style="fill:#ffffff" />
	<path
   class="st1"
   d="m 932,731.8 c -10.5,0 -20.9,-0.2 -31.4,0.1 -4.2,0.1 -6.1,-0.7 -6,-5.6 0.3,-19.5 0.2,-38.9 0,-58.4 0,-4.2 0.7,-6.1 5.6,-6 20.6,0.3 41.3,0.2 61.9,0 4.2,0 6.1,0.7 6,5.6 -0.3,19.5 -0.3,38.9 0,58.4 0.1,5.3 -1.9,6.1 -6.5,6 -9.8,-0.4 -19.7,-0.1 -29.6,-0.1 z"
   id="path6649"
   inkscape:connector-curvature="0"
   style="fill:#ffffff" />
	<path
   class="st1"
   d="m 573.8,1000.4 c 10.5,0 20.9,0.2 31.4,-0.1 4.2,-0.1 5.4,1.2 5.3,5.3 -0.2,19.8 -0.2,39.5 0,59.3 0,4.2 -1.2,5.4 -5.3,5.3 -20.9,-0.2 -41.8,-0.2 -62.8,0 -4.2,0 -5.4,-1.2 -5.3,-5.3 0.2,-19.8 0.2,-39.5 0,-59.3 0,-4.2 1.1,-5.5 5.3,-5.3 10.5,0.3 20.9,0.1 31.4,0.1 z"
   id="path6651"
   inkscape:connector-curvature="0"
   style="fill:#ffffff" />
	<path
   class="st1"
   d="m 641.4,353.2 c -10.5,0 -20.9,-0.2 -31.4,0.1 -3.8,0.1 -4.9,-1 -4.9,-4.9 0.2,-20 0.2,-40.1 0,-60.2 0,-3.8 1,-4.9 4.9,-4.9 21.2,0.2 42.4,0.2 63.6,0 3.8,0 4.9,1 4.9,4.9 -0.2,20 -0.2,40.1 0,60.2 0,3.8 -1,5 -4.9,4.9 -10.7,-0.2 -21.4,-0.1 -32.2,-0.1 z"
   id="path6653"
   inkscape:connector-curvature="0"
   style="fill:#ffffff" />
	<path
   class="st1"
   d="m 932.2,325.3 c 10.2,0 20.3,0.2 30.5,-0.1 4.2,-0.1 5.4,1.1 5.4,5.3 -0.2,19.8 -0.2,39.5 0,59.3 0,4.1 -1.1,5.4 -5.3,5.4 -20.9,-0.2 -41.8,-0.2 -62.8,0 -4.1,0 -5.4,-1.1 -5.4,-5.3 0.2,-19.8 0.2,-39.5 0,-59.3 0,-4.1 1.1,-5.5 5.3,-5.4 10.8,0.3 21.6,0.1 32.3,0.1 z"
   id="path6655"
   inkscape:connector-curvature="0"
   style="fill:#ffffff" />
	<path
   class="st1"
   d="m 573.8,914.9 c 10.5,0 20.9,0.2 31.4,-0.1 4.2,-0.1 5.4,1.1 5.3,5.3 -0.2,19.8 -0.2,39.5 0,59.3 0,4.2 -1.1,5.4 -5.3,5.3 -20.9,-0.2 -41.8,-0.2 -62.8,0 -4.2,0 -5.4,-1.1 -5.3,-5.3 0.2,-19.8 0.2,-39.5 0,-59.3 0,-4.2 1.1,-5.5 5.3,-5.3 10.5,0.3 20.9,0.1 31.4,0.1 z"
   id="path6657"
   inkscape:connector-curvature="0"
   style="fill:#ffffff" />
	<path
   class="st1"
   d="m 135.9,817.2 c -10.5,0 -20.9,-0.2 -31.4,0.1 -4.3,0.1 -5.3,-1.3 -5.3,-5.4 0.2,-19.8 0.2,-39.5 0,-59.3 0,-4.3 1.3,-5.3 5.4,-5.3 20.9,0.2 41.8,0.2 62.8,0 4.3,0 5.3,1.3 5.3,5.4 -0.2,19.8 -0.2,39.5 0,59.3 0,4.3 -1.3,5.4 -5.4,5.3 -10.5,-0.3 -20.9,-0.1 -31.4,-0.1 z"
   id="path6659"
   inkscape:connector-curvature="0"
   style="fill:#ffffff" />
	<path
   class="st1"
   d="m 663.3,986.4 c -10.5,0 -20.9,-0.2 -31.4,0.1 -4.3,0.1 -6,-0.8 -5.9,-5.6 0.3,-19.5 0.2,-38.9 0,-58.4 0,-4.3 0.8,-6 5.6,-5.9 20.6,0.3 41.3,0.2 61.9,0 4.3,0 6,0.8 5.9,5.6 -0.3,19.5 -0.3,38.9 0,58.4 0.1,5.4 -2.1,6 -6.6,5.9 -9.7,-0.3 -19.6,-0.1 -29.5,-0.1 z"
   id="path6661"
   inkscape:connector-curvature="0"
   style="fill:#ffffff" />
	<path
   class="st1"
   d="m 662.4,901 c -10.5,0 -20.9,-0.1 -31.4,0.1 -3.7,0.1 -5,-0.9 -5,-4.8 0.2,-20 0.2,-40.1 0,-60.2 0,-3.7 0.9,-5 4.8,-5 21.2,0.2 42.4,0.2 63.6,0 3.7,0 5,0.9 5,4.8 -0.2,20 -0.2,40.1 0,60.2 0.1,4.8 -2,5 -5.7,4.9 -10.4,-0.2 -20.8,0 -31.3,0 z"
   id="path6663"
   inkscape:connector-curvature="0"
   style="fill:#ffffff" />
	<path
   class="st1"
   d="m 135.6,986.4 c -10.5,0 -20.9,-0.1 -31.4,0.1 -3.7,0.1 -5,-0.9 -5,-4.8 0.2,-20 0.2,-40.1 0,-60.2 0,-3.7 0.9,-5 4.8,-5 21.2,0.2 42.4,0.2 63.6,0 3.7,0 5,0.9 5,4.8 -0.2,20 -0.2,40.1 0,60.2 0.1,4.8 -2,5 -5.7,4.9 -10.4,-0.1 -20.8,0 -31.3,0 z"
   id="path6665"
   inkscape:connector-curvature="0"
   style="fill:#ffffff" />
	<path
   class="st1"
   d="m 662.3,564.3 c -10.2,0 -20.4,-0.3 -30.5,0.1 -4.7,0.2 -5.8,-1.4 -5.7,-5.9 0.2,-19.5 0.3,-38.9 0,-58.4 -0.1,-4.7 1.4,-5.8 5.9,-5.7 20.6,0.2 41.3,0.2 61.9,0 4.7,-0.1 5.8,1.4 5.7,5.9 -0.2,19.5 -0.3,38.9 0,58.4 0.1,4.7 -1.4,5.8 -5.9,5.7 -10.5,-0.3 -21,-0.1 -31.4,-0.1 z"
   id="path6667"
   inkscape:connector-curvature="0"
   style="fill:#ffffff" />
	<path
   class="st1"
   d="m 845.4,564.3 c -10.2,0 -20.4,-0.3 -30.5,0.1 -4.7,0.2 -5.8,-1.4 -5.7,-5.9 0.2,-19.5 0.3,-38.9 0,-58.4 -0.1,-4.7 1.4,-5.8 5.9,-5.7 20.6,0.2 41.3,0.2 61.9,0 4.7,-0.1 5.8,1.4 5.7,5.9 -0.2,19.5 -0.3,38.9 0,58.4 0.1,4.7 -1.4,5.8 -5.9,5.7 -10.5,-0.3 -20.9,-0.1 -31.4,-0.1 z"
   id="path6669"
   inkscape:connector-curvature="0"
   style="fill:#ffffff" />
	<path
   class="st1"
   d="m 931.3,564.3 c -10.5,0 -20.9,-0.2 -31.4,0.1 -4.3,0.1 -5.3,-1.3 -5.3,-5.4 0.2,-19.8 0.2,-39.5 0,-59.3 0,-4.3 1.3,-5.3 5.4,-5.3 20.9,0.2 41.8,0.2 62.8,0 4.3,0 5.3,1.3 5.3,5.4 -0.2,19.8 -0.2,39.5 0,59.3 0,4.3 -1.3,5.4 -5.4,5.3 -10.4,-0.3 -20.9,-0.1 -31.4,-0.1 z"
   id="path6671"
   inkscape:connector-curvature="0"
   style="fill:#ffffff" />
	<path
   class="st1"
   d="m 845.9,1155.6 c -10.5,0 -20.9,-0.2 -31.4,0.1 -4.2,0.1 -5.4,-1.2 -5.3,-5.4 0.2,-19.8 0.2,-39.5 0,-59.3 0,-4.2 1.2,-5.4 5.4,-5.3 20.9,0.2 41.8,0.2 62.8,0 4.2,0 5.4,1.2 5.3,5.4 -0.2,19.8 -0.2,39.5 0,59.3 0,4.2 -1.2,5.4 -5.4,5.3 -10.5,-0.3 -20.9,-0.1 -31.4,-0.1 z"
   id="path6673"
   inkscape:connector-curvature="0"
   style="fill:#ffffff" />
	<path
   class="st1"
   d="m 135.9,578.3 c 10.5,0 20.9,0.2 31.4,-0.1 4.2,-0.1 5.4,1.1 5.4,5.3 -0.2,19.8 -0.2,39.5 0,59.3 0,4.2 -1.1,5.4 -5.3,5.4 -20.9,-0.2 -41.8,-0.2 -62.8,0 -4.2,0 -5.4,-1.1 -5.4,-5.3 0.2,-19.8 0.2,-39.5 0,-59.3 0,-4.2 1.1,-5.5 5.3,-5.4 10.5,0.2 21,0.1 31.4,0.1 z"
   id="path6675"
   inkscape:connector-curvature="0"
   style="fill:#ffffff" />
	<path
   class="st1"
   d="m 573.8,747.5 c 10.5,0 20.9,0.2 31.4,-0.1 4.2,-0.1 5.4,1.2 5.3,5.3 -0.2,19.8 -0.2,39.5 0,59.3 0,4.2 -1.2,5.4 -5.3,5.3 -20.9,-0.2 -41.8,-0.2 -62.8,0 -4.2,0 -5.4,-1.1 -5.3,-5.3 0.2,-19.8 0.2,-39.5 0,-59.3 0,-4.2 1.1,-5.5 5.3,-5.3 10.5,0.2 20.9,0.1 31.4,0.1 z"
   id="path6677"
   inkscape:connector-curvature="0"
   style="fill:#ffffff" />
	<path
   class="st1"
   d="m 666.3,817.2 c -10.5,0 -20.9,-0.2 -31.4,0.1 -4.2,0.1 -5.4,-1.1 -5.3,-5.3 0.2,-19.8 0.2,-39.5 0,-59.3 0,-4.2 1.2,-5.4 5.3,-5.3 20.9,0.2 41.8,0.2 62.8,0 4.2,0 5.4,1.1 5.3,5.3 -0.2,19.8 -0.2,39.5 0,59.3 0,4.2 -1.1,5.5 -5.3,5.3 -10.5,-0.3 -21,-0.1 -31.4,-0.1 z"
   id="path6679"
   inkscape:connector-curvature="0"
   style="fill:#ffffff" />
	<path
   class="st1"
   d="m 845.9,901 c -10.5,0 -20.9,-0.2 -31.4,0.1 -4.2,0.1 -5.4,-1.2 -5.3,-5.4 0.2,-19.8 0.2,-39.5 0,-59.3 0,-4.2 1.2,-5.4 5.4,-5.3 20.9,0.2 41.8,0.2 62.8,0 4.2,0 5.4,1.2 5.3,5.4 -0.2,19.8 -0.2,39.5 0,59.3 0,4.2 -1.2,5.4 -5.4,5.3 -10.5,-0.3 -20.9,-0.1 -31.4,-0.1 z"
   id="path6681"
   inkscape:connector-curvature="0"
   style="fill:#ffffff" />
	<path
   class="st1"
   d="m 932,747.5 c 9.9,0 19.8,0.2 29.6,-0.1 4.5,-0.1 6.7,0.5 6.6,5.9 -0.4,19.5 -0.3,38.9 0,58.4 0.1,4.8 -1.6,5.7 -5.9,5.6 -20.6,-0.2 -41.3,-0.3 -61.9,0 -4.8,0.1 -5.7,-1.6 -5.6,-5.9 0.2,-19.5 0.3,-38.9 0,-58.4 -0.1,-4.8 1.6,-5.8 5.9,-5.6 10.3,0.2 20.8,0.1 31.3,0.1 z"
   id="path6683"
   inkscape:connector-curvature="0"
   style="fill:#ffffff" />
	<path
   class="st1"
   d="m 931.4,986.4 c -10.5,0 -20.9,-0.2 -31.4,0.1 -4.2,0.1 -5.4,-1.1 -5.3,-5.3 0.2,-19.8 0.2,-39.5 0,-59.3 0,-4.2 1.2,-5.4 5.3,-5.3 20.9,0.2 41.8,0.2 62.8,0 4.2,0 5.4,1.1 5.3,5.3 -0.2,19.8 -0.2,39.5 0,59.3 0,4.2 -1.1,5.5 -5.3,5.3 -10.5,-0.3 -20.9,-0.1 -31.4,-0.1 z"
   id="path6685"
   inkscape:connector-curvature="0"
   style="fill:#ffffff" />
	<path
   class="st1"
   d="m 135.1,1070.2 c -10.2,0 -20.3,-0.2 -30.5,0.1 -4.2,0.1 -5.4,-1.2 -5.3,-5.3 0.2,-19.8 0.2,-39.5 0,-59.3 0,-4.2 1.2,-5.4 5.3,-5.3 20.9,0.2 41.8,0.2 62.8,0 4.2,0 5.4,1.2 5.3,5.3 -0.2,19.8 -0.2,39.5 0,59.3 0,4.2 -1.1,5.5 -5.3,5.3 -10.8,-0.3 -21.5,-0.1 -32.3,-0.1 z"
   id="path6687"
   inkscape:connector-curvature="0"
   style="fill:#ffffff" />
	<path
   class="st1"
   d="m 574.7,662 c 10.2,0 20.3,0.2 30.5,-0.1 4.2,-0.1 5.4,1.2 5.3,5.3 -0.2,19.8 -0.2,39.5 0,59.3 0,4.2 -1.2,5.4 -5.3,5.3 -20.9,-0.2 -41.8,-0.2 -62.8,0 -4.2,0 -5.4,-1.2 -5.3,-5.3 0.2,-19.8 0.2,-39.5 0,-59.3 0,-4.2 1.1,-5.5 5.3,-5.3 10.8,0.3 21.5,0.1 32.3,0.1 z"
   id="path6689"
   inkscape:connector-curvature="0"
   style="fill:#ffffff" />
	<path
   class="st1"
   d="m 662.3,731.8 c -10.5,0 -20.9,-0.2 -31.4,0.1 -3.8,0.1 -4.9,-1 -4.9,-4.9 0.2,-20 0.2,-40.1 0,-60.2 0,-3.8 1,-4.9 4.9,-4.9 21.2,0.2 42.4,0.2 63.6,0 3.8,0 4.9,1 4.9,4.9 -0.2,20 -0.2,40.1 0,60.2 0,3.8 -1,5 -4.9,4.9 -10.6,-0.3 -21.4,-0.1 -32.2,-0.1 z"
   id="path6691"
   inkscape:connector-curvature="0"
   style="fill:#ffffff" />
	<path
   class="st1"
   d="m 930.6,1070.2 c -10.2,0 -20.3,-0.2 -30.5,0.1 -4.1,0.1 -5.5,-1 -5.4,-5.3 0.2,-19.8 0.2,-39.5 0,-59.3 0,-4.1 1,-5.5 5.3,-5.4 20.9,0.2 41.8,0.2 62.8,0 4.1,0 5.5,1 5.4,5.3 -0.2,19.8 -0.3,39.5 0,59.3 0.1,5.3 -2.3,5.4 -6.2,5.4 -10.5,-0.2 -20.9,-0.1 -31.4,-0.1 z"
   id="path6693"
   inkscape:connector-curvature="0"
   style="fill:#ffffff" />
	<path
   class="st1"
   d="m 662.8,1075.4 c -10.5,0 -20.9,-0.2 -31.4,0.1 -4.2,0.1 -5.4,-1.2 -5.3,-5.3 0.2,-19.8 0.2,-39.5 0,-59.3 0,-4.2 1.2,-5.4 5.3,-5.3 20.9,0.2 41.8,0.2 62.8,0 4.2,0 5.4,1.2 5.3,5.3 -0.2,19.8 -0.2,39.5 0,59.3 0,4.2 -1.2,5.5 -5.3,5.3 -10.5,-0.3 -21,-0.1 -31.4,-0.1 z"
   id="path6695"
   inkscape:connector-curvature="0"
   style="fill:#ffffff" />
	<path
   class="st1"
   d="m 136,1155.6 c -10.5,0 -20.9,-0.2 -31.4,0.1 -4.2,0.1 -5.4,-1.1 -5.3,-5.3 0.2,-19.8 0.2,-39.5 0,-59.3 0,-4.2 1.2,-5.4 5.3,-5.3 20.9,0.2 41.8,0.2 62.8,0 4.2,0 5.4,1.1 5.3,5.3 -0.2,19.8 -0.2,39.5 0,59.3 0,4.2 -1.1,5.5 -5.3,5.3 -10.5,-0.3 -21,-0.1 -31.4,-0.1 z"
   id="path6697"
   inkscape:connector-curvature="0"
   style="fill:#ffffff" />
	<path
   class="st1"
   d="m 573.8,1155.6 c -10.5,0 -20.9,-0.2 -31.4,0.1 -4.2,0.1 -5.4,-1.2 -5.3,-5.3 0.2,-19.8 0.2,-39.5 0,-59.3 0,-4.2 1.2,-5.4 5.3,-5.3 20.9,0.2 41.8,0.2 62.8,0 4.2,0 5.4,1.2 5.3,5.3 -0.2,19.8 -0.2,39.5 0,59.3 0,4.2 -1.1,5.5 -5.3,5.3 -10.5,-0.3 -20.9,-0.1 -31.4,-0.1 z"
   id="path6699"
   inkscape:connector-curvature="0"
   style="fill:#ffffff" />
	<path
   class="st1"
   d="m 662.4,1155.6 c -10.5,0 -20.9,-0.1 -31.4,0.1 -3.7,0.1 -5,-0.9 -5,-4.8 0.2,-20 0.2,-40.1 0,-60.2 0,-3.7 0.9,-5 4.8,-5 21.2,0.2 42.4,0.2 63.6,0 3.7,0 5,0.9 5,4.8 -0.2,20 -0.2,40.1 0,60.2 0.1,4.7 -2,5 -5.7,4.9 -10.4,-0.1 -20.8,0 -31.3,0 z"
   id="path6701"
   inkscape:connector-curvature="0"
   style="fill:#ffffff" />
	<path
   class="st1"
   d="m 931.7,1085.9 c 10.2,0 20.3,0.2 30.5,-0.1 4.3,-0.1 6,0.8 5.9,5.6 -0.3,19.5 -0.2,38.9 0,58.4 0,4.3 -0.8,6 -5.6,5.9 -20.6,-0.3 -41.3,-0.2 -61.9,0 -4.3,0 -6,-0.8 -5.9,-5.6 0.3,-19.5 0.3,-38.9 0,-58.4 -0.1,-5.4 2.1,-6 6.6,-5.9 10.1,0.3 20.2,0.1 30.4,0.1 z"
   id="path6703"
   inkscape:connector-curvature="0"
   style="fill:#ffffff" />
	<path
   class="st1"
   d="m 135.1,1239.4 c -10.2,0 -20.3,-0.2 -30.5,0.1 -4.2,0.1 -5.4,-1.1 -5.4,-5.3 0.2,-19.8 0.2,-39.5 0,-59.3 0,-4.2 1.1,-5.4 5.3,-5.4 20.9,0.2 41.8,0.2 62.8,0 4.2,0 5.4,1.1 5.4,5.3 -0.2,19.8 -0.2,39.5 0,59.3 0,4.2 -1.1,5.5 -5.3,5.4 -10.8,-0.3 -21.5,-0.1 -32.3,-0.1 z"
   id="path6705"
   inkscape:connector-curvature="0"
   style="fill:#ffffff" />
	<path
   class="st1"
   d="m 573.1,1239.4 c -9.9,0 -19.8,-0.2 -29.6,0.1 -4.7,0.2 -6.5,-0.9 -6.4,-6.1 0.3,-19.2 0.3,-38.4 0,-57.5 -0.1,-4.7 0.9,-6.5 6.1,-6.4 20.3,0.3 40.7,0.3 61,0 4.7,-0.1 6.5,0.9 6.4,6.1 -0.3,19.2 -0.4,38.4 0,57.5 0.1,5.9 -2.1,6.5 -7,6.4 -10.2,-0.4 -20.3,-0.1 -30.5,-0.1 z"
   id="path6707"
   inkscape:connector-curvature="0"
   style="fill:#ffffff" />
	<path
   class="st1"
   d="m 662.8,1239.4 c -10.5,0 -20.9,-0.2 -31.4,0.1 -4.2,0.1 -5.4,-1.1 -5.3,-5.3 0.2,-19.8 0.2,-39.5 0,-59.3 0,-4.2 1.1,-5.4 5.3,-5.3 20.9,0.2 41.8,0.2 62.8,0 4.2,0 5.4,1.1 5.3,5.3 -0.2,19.8 -0.2,39.5 0,59.3 0,4.2 -1.1,5.5 -5.3,5.3 -10.5,-0.3 -21,-0.1 -31.4,-0.1 z"
   id="path6709"
   inkscape:connector-curvature="0"
   style="fill:#ffffff" />
	<path
   class="st1"
   d="m 845.9,1239.4 c -10.5,0 -20.9,-0.2 -31.4,0.1 -4.2,0.1 -5.4,-1.2 -5.3,-5.3 0.2,-19.8 0.2,-39.5 0,-59.3 0,-4.2 1.2,-5.4 5.3,-5.3 20.9,0.2 41.8,0.2 62.8,0 4.2,0 5.4,1.1 5.3,5.3 -0.2,19.8 -0.2,39.5 0,59.3 0,4.2 -1.1,5.5 -5.3,5.3 -10.4,-0.3 -20.9,-0.1 -31.4,-0.1 z"
   id="path6711"
   inkscape:connector-curvature="0"
   style="fill:#ffffff" />
	<path
   class="st1"
   d="m 930.7,1239.4 c -9.9,0 -19.8,-0.2 -29.6,0.1 -4.6,0.1 -6.5,-0.8 -6.5,-6 0.3,-19.2 0.3,-38.4 0,-57.5 -0.1,-4.6 0.8,-6.5 6,-6.5 20.3,0.3 40.7,0.3 61,0 4.6,-0.1 6.5,0.8 6.5,6 -0.3,19.2 -0.4,38.4 0,57.5 0.1,5.8 -2,6.6 -7,6.4 -10,-0.3 -20.2,0 -30.4,0 z"
   id="path6713"
   inkscape:connector-curvature="0"
   style="fill:#ffffff" />
	<path
   class="st1"
   d="m 1330.9,260.8 c 10.5,0 20.9,0.2 31.4,-0.1 4.2,-0.1 5.4,1.1 5.4,5.3 -0.2,19.8 -0.2,39.5 0,59.3 0,4.2 -1.1,5.4 -5.3,5.4 -20.3,-0.2 -40.7,-0.2 -61,0 -5.3,0.1 -7.2,-1.8 -7.1,-7.1 0.2,-19.2 0.2,-38.4 0,-57.5 0,-4.2 1.2,-5.4 5.3,-5.3 10.3,0.2 20.8,0 31.3,0 z"
   id="path6715"
   inkscape:connector-curvature="0"
   style="fill:#ffffff" />
	<path
   class="st1"
   d="m 136,831.2 c 10.5,0 20.9,0.2 31.4,-0.1 4.2,-0.1 5.4,1.2 5.3,5.4 -0.2,19.8 -0.2,39.5 0,59.3 0,4.2 -1.2,5.4 -5.4,5.3 -20.3,-0.2 -40.7,-0.2 -61,0 -5.3,0.1 -7.1,-1.9 -7.1,-7.1 0.2,-19.2 0.2,-38.4 0,-57.5 0,-4.3 1.3,-5.4 5.4,-5.3 10.5,0.2 20.9,0 31.4,0 z"
   id="path6717"
   inkscape:connector-curvature="0"
   style="fill:#ffffff" />
	<path
   class="st1"
   d="m 931.9,831.2 c 10.2,0 20.3,0.3 30.5,-0.1 4.7,-0.2 5.8,1.4 5.7,5.9 -0.2,19.5 -0.3,38.9 0,58.4 0.1,4.7 -1.4,5.8 -5.9,5.7 -20,-0.2 -40.1,-0.3 -60.1,0 -5.8,0.1 -7.6,-2 -7.5,-7.6 0.3,-18.9 0.3,-37.8 0,-56.7 -0.1,-4.7 1.5,-5.8 5.9,-5.7 10.5,0.3 21,0.1 31.4,0.1 z"
   id="path6719"
   inkscape:connector-curvature="0"
   style="fill:#ffffff" />
	<path
   class="st1"
   d="m 1019.2,731.8 c -9.9,0 -19.8,-0.2 -29.6,0.1 -4.2,0.1 -6.1,-0.7 -6,-5.6 0.3,-19.5 0.2,-38.9 0,-58.4 0,-4.2 0.7,-6.1 5.6,-6 20,0.3 40.1,0.2 60.1,0 4.2,0 6.1,0.7 6,5.6 -0.3,19.5 -0.3,38.9 0,58.4 0.1,5.3 -1.9,6.1 -6.5,6 -9.8,-0.4 -19.7,-0.1 -29.6,-0.1 z"
   id="path6721"
   inkscape:connector-curvature="0"
   style="fill:#ffffff" />
	<path
   class="st1"
   d="m 1110.2,662 c 10.2,0 20.3,0.2 30.5,-0.1 4.2,-0.1 5.4,1.2 5.3,5.3 -0.2,19.8 -0.2,39.5 0,59.3 0,4.2 -1.2,5.4 -5.3,5.3 -20.3,-0.2 -40.7,-0.2 -61,0 -4.2,0 -5.4,-1.2 -5.3,-5.3 0.2,-19.8 0.2,-39.5 0,-59.3 0,-4.2 1.1,-5.5 5.3,-5.3 10.1,0.3 20.3,0.1 30.5,0.1 z"
   id="path6723"
   inkscape:connector-curvature="0"
   style="fill:#ffffff" />
	<path
   class="st1"
   d="m 1285.2,731.8 c -10.2,0 -20.3,-0.2 -30.5,0.1 -4.3,0.1 -6,-0.8 -5.9,-5.6 0.3,-19.5 0.2,-38.9 0,-58.4 0,-4.3 0.8,-6 5.6,-5.9 20,0.3 40.1,0.2 60.2,0 4.3,0 6,0.8 5.9,5.6 -0.3,19.5 -0.3,38.9 0,58.4 0.1,5.4 -2.1,6 -6.6,5.9 -9.5,-0.3 -19.1,-0.1 -28.7,-0.1 z"
   id="path6725"
   inkscape:connector-curvature="0"
   style="fill:#ffffff" />
	<path
   class="st1"
   d="m 222.4,747.5 c 10.2,0 20.3,0.2 30.5,-0.1 4.3,-0.1 5.3,1.3 5.3,5.4 -0.2,19.8 -0.2,39.5 0,59.3 0,4.3 -1.3,5.3 -5.4,5.3 -20.3,-0.2 -40.7,-0.2 -61,0 -4.3,0 -5.3,-1.3 -5.3,-5.4 0.2,-19.8 0.2,-39.5 0,-59.3 0,-4.3 1.3,-5.4 5.4,-5.3 10.1,0.2 20.3,0.1 30.5,0.1 z"
   id="path6727"
   inkscape:connector-curvature="0"
   style="fill:#ffffff" />
	<path
   class="st1"
   d="m 309.5,747.5 c 10.2,0 20.3,0.2 30.5,-0.1 4.2,-0.1 5.4,1.2 5.3,5.3 -0.2,19.8 -0.2,39.5 0,59.3 0,4.2 -1.2,5.4 -5.3,5.3 -20.3,-0.2 -40.7,-0.2 -61,0 -4.2,0 -5.4,-1.2 -5.3,-5.3 0.2,-19.8 0.2,-39.5 0,-59.3 0,-4.2 1.1,-5.5 5.3,-5.3 10.2,0.3 20.4,0.1 30.5,0.1 z"
   id="path6729"
   inkscape:connector-curvature="0"
   style="fill:#ffffff" />
	<path
   class="st1"
   d="m 489.2,747.5 c 10.2,0 20.3,0.2 30.5,-0.1 4.2,-0.1 5.4,1.1 5.3,5.3 -0.2,19.8 -0.2,39.5 0,59.3 0,4.2 -1.1,5.4 -5.3,5.3 -20.3,-0.2 -40.7,-0.2 -61,0 -4.2,0 -5.4,-1.1 -5.3,-5.3 0.2,-19.8 0.2,-39.5 0,-59.3 0,-4.2 1.1,-5.5 5.3,-5.3 10.2,0.3 20.3,0.1 30.5,0.1 z"
   id="path6731"
   inkscape:connector-curvature="0"
   style="fill:#ffffff" />
	<path
   class="st1"
   d="m 757,817.2 c -9.9,0 -19.8,-0.2 -29.6,0.1 -4.1,0.1 -5.4,-1 -5.4,-5.3 0.2,-19.8 0.2,-39.5 0,-59.3 0,-4.1 1,-5.4 5.3,-5.4 20.3,0.2 40.7,0.2 61,0 4.1,0 5.4,1 5.4,5.3 -0.2,19.8 -0.2,39.5 0,59.3 0,4.1 -1,5.5 -5.3,5.4 -10.5,-0.3 -20.9,-0.1 -31.4,-0.1 z"
   id="path6733"
   inkscape:connector-curvature="0"
   style="fill:#ffffff" />
	<path
   class="st1"
   d="m 1110.9,817.2 c -10.2,0 -20.3,-0.1 -30.5,0.1 -4,0.1 -6.2,-0.3 -6.1,-5.4 0.3,-19.8 0.3,-39.5 0,-59.3 -0.1,-4.4 1.5,-5.2 5.5,-5.2 20.3,0.2 40.7,0.2 61,0 4.4,0 5.2,1.5 5.2,5.5 -0.2,19.8 -0.2,39.5 0,59.3 0.1,4.4 -1.5,5.3 -5.5,5.2 -9.8,-0.3 -19.7,-0.2 -29.6,-0.2 z"
   id="path6735"
   inkscape:connector-curvature="0"
   style="fill:#ffffff" />
	<path
   class="st1"
   d="m 1199.2,747.5 c 10.2,0 20.3,0.2 30.5,-0.1 4.2,-0.1 5.4,1.2 5.3,5.3 -0.2,19.8 -0.2,39.5 0,59.3 0,4.2 -1.2,5.4 -5.3,5.3 -20.3,-0.2 -40.7,-0.2 -61,0 -4.2,0 -5.4,-1.2 -5.3,-5.3 0.2,-19.8 0.2,-39.5 0,-59.3 0,-4.2 1.1,-5.5 5.3,-5.3 10.1,0.3 20.3,0.1 30.5,0.1 z"
   id="path6737"
   inkscape:connector-curvature="0"
   style="fill:#ffffff" />
	<path
   class="st1"
   d="m 1371.3,817.2 c -9.9,0 -19.8,-0.1 -29.6,0.1 -3.7,0.1 -5.8,-0.2 -5.7,-4.9 0.3,-20 0.2,-40.1 0,-60.2 0,-3.9 1.3,-4.8 5,-4.8 20.6,0.2 41.3,0.2 61.9,0 3.9,0 4.8,1.3 4.8,5 -0.2,20 -0.2,40.1 0,60.2 0,3.9 -1.3,4.9 -5,4.8 -10.4,-0.3 -20.9,-0.2 -31.4,-0.2 z"
   id="path6739"
   inkscape:connector-curvature="0"
   style="fill:#ffffff" />
	<path
   class="st1"
   d="m 309.2,901 c -9.9,0 -19.8,-0.2 -29.6,0.1 -4.3,0.1 -6,-0.8 -5.9,-5.6 0.3,-19.5 0.2,-38.9 0,-58.4 0,-4.3 0.8,-6 5.6,-5.9 20,0.3 40.1,0.2 60.2,0 4.3,0 6,0.8 5.9,5.6 -0.3,19.5 -0.3,38.9 0,58.4 0.1,5.4 -2.1,6 -6.6,5.9 -9.8,-0.3 -19.7,-0.1 -29.6,-0.1 z"
   id="path6741"
   inkscape:connector-curvature="0"
   style="fill:#ffffff" />
	<path
   class="st1"
   d="m 489.2,901 c -10.2,0 -20.3,-0.2 -30.5,0.1 -4.2,0.1 -5.4,-1.2 -5.3,-5.3 0.2,-19.8 0.2,-39.5 0,-59.3 0,-4.2 1.2,-5.4 5.3,-5.3 20.3,0.2 40.7,0.2 61,0 4.2,0 5.4,1.2 5.3,5.3 -0.2,19.8 -0.2,39.5 0,59.3 0,4.2 -1.1,5.5 -5.3,5.3 -10.1,-0.3 -20.3,-0.1 -30.5,-0.1 z"
   id="path6743"
   inkscape:connector-curvature="0"
   style="fill:#ffffff" />
	<path
   class="st1"
   d="m 757.8,901 c -10.2,0 -20.3,-0.2 -30.5,0.1 -4.2,0.1 -5.4,-1.2 -5.3,-5.3 0.2,-19.8 0.2,-39.5 0,-59.3 0,-4.2 1.2,-5.4 5.3,-5.3 20.3,0.2 40.7,0.2 61,0 4.2,0 5.4,1.2 5.3,5.3 -0.2,19.8 -0.2,39.5 0,59.3 0,4.2 -1.1,5.5 -5.3,5.3 C 778.2,900.8 768,901 757.8,901 Z"
   id="path6745"
   inkscape:connector-curvature="0"
   style="fill:#ffffff" />
	<path
   class="st1"
   d="m 1019.4,901 c -9.9,0 -19.8,-0.1 -29.6,0.1 -4,0.1 -6.2,-0.3 -6.1,-5.4 0.3,-19.8 0.3,-39.5 0,-59.3 -0.1,-4.4 1.5,-5.2 5.5,-5.2 20.3,0.2 40.7,0.2 61,0 4.4,0 5.2,1.5 5.2,5.5 -0.2,19.8 -0.2,39.5 0,59.3 0.1,4.4 -1.5,5.3 -5.5,5.2 -10.2,-0.4 -20.4,-0.2 -30.5,-0.2 z"
   id="path6747"
   inkscape:connector-curvature="0"
   style="fill:#ffffff" />
	<path
   class="st1"
   d="m 1198.4,901 c -9.9,0 -19.8,-0.2 -29.6,0.1 -4.1,0.1 -5.5,-1 -5.4,-5.3 0.2,-19.8 0.2,-39.5 0,-59.3 0,-4.1 1,-5.5 5.3,-5.4 20.3,0.2 40.7,0.2 61,0 4.1,0 5.5,1 5.4,5.3 -0.2,19.8 -0.2,39.5 0,59.3 0,4.1 -1,5.5 -5.3,5.4 -10.5,-0.3 -21,-0.1 -31.4,-0.1 z"
   id="path6749"
   inkscape:connector-curvature="0"
   style="fill:#ffffff" />
	<path
   class="st1"
   d="m 221.9,986.4 c -10.2,0 -20.3,-0.2 -30.5,0.1 -3.9,0.1 -4.9,-1.1 -4.9,-4.9 0.2,-20 0.2,-40.1 0,-60.2 0,-3.9 1.1,-4.9 4.9,-4.9 20.6,0.2 41.3,0.2 61.9,0 3.9,0 4.9,1.1 4.9,4.9 -0.2,20 -0.2,40.1 0,60.2 0,3.9 -1.1,5 -4.9,4.9 -10.5,-0.2 -21,-0.1 -31.4,-0.1 z"
   id="path6751"
   inkscape:connector-curvature="0"
   style="fill:#ffffff" />
	<path
   class="st1"
   d="m 400.4,916.7 c 9.9,0 19.8,0.1 29.6,-0.1 4.1,-0.1 6.2,0.4 6.1,5.5 -0.3,19.8 -0.3,39.5 0,59.3 0.1,4.4 -1.6,5.2 -5.5,5.2 -20.3,-0.2 -40.7,-0.2 -61,0 -4.4,0.1 -5.2,-1.6 -5.2,-5.5 0.2,-19.8 0.2,-39.5 0,-59.3 -0.1,-4.4 1.6,-5.3 5.5,-5.2 10.2,0.2 20.3,0.1 30.5,0.1 z"
   id="path6753"
   inkscape:connector-curvature="0"
   style="fill:#ffffff" />
	<path
   class="st1"
   d="m 1019.5,916.7 c 10.2,0 20.3,0.2 30.5,-0.1 4.2,-0.1 5.4,1.2 5.3,5.3 -0.2,19.8 -0.2,39.5 0,59.3 0,4.2 -1.2,5.4 -5.3,5.3 -20.3,-0.2 -40.7,-0.2 -61,0 -4.2,0 -5.4,-1.2 -5.3,-5.3 0.2,-19.8 0.2,-39.5 0,-59.3 0,-4.2 1.1,-5.5 5.3,-5.3 10.1,0.3 20.3,0.1 30.5,0.1 z"
   id="path6755"
   inkscape:connector-curvature="0"
   style="fill:#ffffff" />
	<path
   class="st1"
   d="m 1109.6,986.4 c -9.6,0 -19.2,-0.2 -28.8,0.1 -4.5,0.1 -6.7,-0.5 -6.6,-5.9 0.4,-19.5 0.3,-38.9 0,-58.4 -0.1,-4.8 1.6,-5.7 5.9,-5.6 20,0.2 40.1,0.3 60.2,0 4.8,-0.1 5.7,1.6 5.6,5.9 -0.2,19.5 -0.3,38.9 0,58.4 0.1,4.8 -1.6,5.8 -5.9,5.6 -10,-0.3 -20.2,-0.1 -30.4,-0.1 z"
   id="path6757"
   inkscape:connector-curvature="0"
   style="fill:#ffffff" />
	<path
   class="st1"
   d="m 1199.2,986.4 c -10.2,0 -20.3,-0.2 -30.5,0.1 -4.2,0.1 -5.4,-1.2 -5.3,-5.3 0.2,-19.8 0.2,-39.5 0,-59.3 0,-4.2 1.2,-5.4 5.3,-5.3 20.3,0.2 40.7,0.2 61,0 4.2,0 5.4,1.2 5.3,5.3 -0.2,19.8 -0.2,39.5 0,59.3 0,4.2 -1.2,5.5 -5.3,5.3 -10.2,-0.3 -20.4,-0.1 -30.5,-0.1 z"
   id="path6759"
   inkscape:connector-curvature="0"
   style="fill:#ffffff" />
	<path
   class="st1"
   d="m 1284.8,916.7 c 9.6,0 19.2,0.3 28.8,-0.1 5,-0.2 7.1,0.6 7,6.4 -0.4,19.2 -0.4,38.4 0,57.5 0.1,5.3 -1.8,6.1 -6.5,6 -19.8,-0.2 -39.5,-0.3 -59.3,0 -5.3,0.1 -6.1,-1.8 -6,-6.5 0.2,-19.2 0.3,-38.4 0,-57.5 -0.1,-5.3 1.8,-6.2 6.5,-6 9.8,0.4 19.7,0.2 29.5,0.2 z"
   id="path6761"
   inkscape:connector-curvature="0"
   style="fill:#ffffff" />
	<path
   class="st1"
   d="m 1371.8,916.7 c 10.2,0 20.3,0.2 30.5,-0.1 4.2,-0.1 5.4,1.1 5.3,5.3 -0.2,19.8 -0.2,39.5 0,59.3 0,4.2 -1.1,5.4 -5.3,5.3 -20.3,-0.2 -40.7,-0.2 -61,0 -4.2,0 -5.4,-1.1 -5.3,-5.3 0.2,-19.8 0.2,-39.5 0,-59.3 0,-4.2 1.1,-5.5 5.3,-5.3 10.2,0.3 20.4,0.1 30.5,0.1 z"
   id="path6763"
   inkscape:connector-curvature="0"
   style="fill:#ffffff" />
	<path
   class="st1"
   d="m 222.7,1000.4 c 10.2,0 20.3,0.1 30.5,-0.1 3.7,-0.1 5,0.9 5,4.8 -0.2,20 -0.2,40.1 0,60.2 0,3.7 -0.9,5 -4.8,5 -20.6,-0.2 -41.3,-0.2 -61.9,0 -3.7,0 -5,-0.9 -5,-4.8 0.2,-20 0.2,-40.1 0,-60.2 -0.1,-4.7 2,-5 5.7,-4.9 10.1,0.1 20.3,0 30.5,0 z"
   id="path6765"
   inkscape:connector-curvature="0"
   style="fill:#ffffff" />
	<path
   class="st1"
   d="m 310.4,1000.4 c 9.9,0 19.8,0.2 29.6,-0.1 4.2,-0.1 5.4,1.1 5.4,5.3 -0.2,19.8 -0.2,39.5 0,59.3 0,4.2 -1.1,5.4 -5.3,5.4 -20.3,-0.2 -40.7,-0.2 -61,0 -4.2,0 -5.4,-1.1 -5.4,-5.3 0.2,-19.8 0.2,-39.5 0,-59.3 0,-4.2 1.1,-5.5 5.3,-5.4 10.5,0.3 20.9,0.1 31.4,0.1 z"
   id="path6767"
   inkscape:connector-curvature="0"
   style="fill:#ffffff" />
	<path
   class="st1"
   d="m 400.5,1000.4 c 9.9,0 19.8,0.2 29.6,-0.1 4.2,-0.1 6.1,0.7 6,5.6 -0.3,19.5 -0.2,38.9 0,58.4 0,4.2 -0.7,6.1 -5.6,6 -20,-0.3 -40.1,-0.2 -60.1,0 -4.2,0 -6.1,-0.7 -6,-5.6 0.3,-19.5 0.3,-38.9 0,-58.4 -0.1,-5.3 1.9,-6.1 6.5,-6 9.8,0.3 19.7,0.1 29.6,0.1 z"
   id="path6769"
   inkscape:connector-curvature="0"
   style="fill:#ffffff" />
	<path
   class="st1"
   d="m 489.1,1070.2 c -9.9,0 -19.8,-0.1 -29.6,0.1 -4,0.1 -6.2,-0.3 -6.1,-5.4 0.3,-19.8 0.3,-39.5 0,-59.3 -0.1,-4.4 1.5,-5.2 5.5,-5.2 20.3,0.2 40.7,0.2 61,0 4.4,0 5.2,1.5 5.2,5.5 -0.2,19.8 -0.2,39.5 0,59.3 0.1,4.4 -1.5,5.3 -5.5,5.2 -10.2,-0.4 -20.4,-0.2 -30.5,-0.2 z"
   id="path6771"
   inkscape:connector-curvature="0"
   style="fill:#ffffff" />
	<path
   class="st1"
   d="m 757,1070.2 c -9.9,0 -19.8,-0.2 -29.6,0.1 -4.2,0.1 -5.4,-1.1 -5.3,-5.3 0.2,-19.8 0.2,-39.5 0,-59.3 0,-4.2 1.1,-5.4 5.3,-5.3 20.3,0.2 40.7,0.2 61,0 4.2,0 5.4,1.1 5.3,5.3 -0.2,19.8 -0.2,39.5 0,59.3 0,4.2 -1.1,5.5 -5.3,5.3 -10.5,-0.3 -21,-0.1 -31.4,-0.1 z"
   id="path6773"
   inkscape:connector-curvature="0"
   style="fill:#ffffff" />
	<path
   class="st1"
   d="m 487,156.1 c -10.2,0 -20.3,-0.2 -30.5,0.1 -3.8,0.1 -4.9,-1 -4.9,-4.9 0.2,-20 0.2,-40.1 0,-60.2 0,-3.8 1,-4.9 4.9,-4.9 20.6,0.2 41.3,0.2 61.9,0 3.8,0 4.9,1 4.9,4.9 -0.2,20 -0.2,40.1 0,60.2 0,3.8 -1,5 -4.9,4.9 C 508,156 497.5,156.1 487,156.1 Z"
   id="path6775"
   inkscape:connector-curvature="0"
   style="fill:#ffffff" />
	<path
   class="st1"
   d="m 1019.4,1000.4 c 10.2,0 20.3,0.2 30.5,-0.1 4.1,-0.1 5.4,1 5.4,5.3 -0.2,19.8 -0.2,39.5 0,59.3 0,4.1 -1,5.4 -5.3,5.4 -20.3,-0.2 -40.7,-0.2 -61,0 -4.1,0 -5.4,-1 -5.4,-5.3 0.2,-19.8 0.2,-39.5 0,-59.3 0,-4.1 1,-5.5 5.3,-5.4 10.2,0.3 20.4,0.1 30.5,0.1 z"
   id="path6777"
   inkscape:connector-curvature="0"
   style="fill:#ffffff" />
	<path
   class="st1"
   d="m 1110.2,1070.2 c -10.2,0 -20.3,-0.2 -30.5,0.1 -4.2,0.1 -5.4,-1.2 -5.3,-5.3 0.2,-19.8 0.2,-39.5 0,-59.3 0,-4.2 1.2,-5.4 5.3,-5.3 20.3,0.2 40.7,0.2 61,0 4.2,0 5.4,1.2 5.3,5.3 -0.2,19.8 -0.2,39.5 0,59.3 0,4.2 -1.1,5.5 -5.3,5.3 -10.2,-0.3 -20.3,-0.1 -30.5,-0.1 z"
   id="path6779"
   inkscape:connector-curvature="0"
   style="fill:#ffffff" />
	<path
   class="st1"
   d="m 1283.8,1070.2 c -9.9,0 -19.8,-0.2 -29.6,0.1 -4.1,0.1 -5.5,-1 -5.4,-5.3 0.2,-19.8 0.2,-39.5 0,-59.3 0,-4.1 1,-5.5 5.3,-5.4 20.3,0.2 40.7,0.2 61,0 4.1,0 5.5,1 5.4,5.3 -0.2,19.8 -0.2,39.5 0,59.3 0,4.1 -1,5.5 -5.3,5.4 -10.4,-0.3 -20.9,-0.1 -31.4,-0.1 z"
   id="path6781"
   inkscape:connector-curvature="0"
   style="fill:#ffffff" />
	<path
   class="st1"
   d="m 1372.6,1000.4 c 9.6,0 19.2,0.2 28.8,-0.1 4.7,-0.2 6.5,0.9 6.4,6.1 -0.3,19.2 -0.3,38.4 0,57.5 0.1,4.7 -0.9,6.5 -6.1,6.4 -19.8,-0.3 -39.5,-0.3 -59.3,0 -4.7,0.1 -6.5,-0.9 -6.4,-6.1 0.3,-19.2 0.4,-38.4 0,-57.5 -0.1,-5.9 2.1,-6.5 7,-6.4 9.8,0.3 19.7,0.1 29.6,0.1 z"
   id="path6783"
   inkscape:connector-curvature="0"
   style="fill:#ffffff" />
	<path
   class="st1"
   d="m 811.4,288.7 c -9.9,0 -19.8,-0.1 -29.6,0.1 -3.7,0.1 -5.8,-0.2 -5.7,-4.9 0.3,-20 0.2,-40.1 0,-60.2 0,-3.9 1.3,-4.8 5,-4.8 20.6,0.2 41.3,0.2 61.9,0 3.9,0 4.8,1.3 4.8,5 -0.2,20 -0.2,40.1 0,60.2 0,3.9 -1.3,4.9 -5,4.8 -10.5,-0.4 -20.9,-0.2 -31.4,-0.2 z"
   id="path6785"
   inkscape:connector-curvature="0"
   style="fill:#ffffff" />
	<path
   class="st1"
   d="m 221.4,311.4 c -9.9,0 -19.8,-0.2 -29.6,0.1 -4.2,0.1 -5.4,-1.2 -5.3,-5.3 0.2,-19.8 0.2,-39.5 0,-59.3 0,-4.2 1.2,-5.4 5.3,-5.3 20.3,0.2 40.7,0.2 61,0 4.2,0 5.4,1.2 5.3,5.3 -0.2,19.8 -0.2,39.5 0,59.3 0,4.2 -1.1,5.5 -5.3,5.3 -10.4,-0.3 -20.9,-0.1 -31.4,-0.1 z"
   id="path6787"
   inkscape:connector-curvature="0"
   style="fill:#ffffff" />
	<path
   class="st1"
   d="m 222.3,1155.6 c -10.2,0 -20.3,-0.2 -30.5,0.1 -4.1,0.1 -5.4,-1.1 -5.4,-5.3 0.2,-19.8 0.2,-39.5 0,-59.3 0,-4.1 1.1,-5.4 5.3,-5.4 20.3,0.2 40.7,0.2 61,0 4.1,0 5.4,1.1 5.4,5.3 -0.2,19.8 -0.2,39.5 0,59.3 0,4.1 -1.1,5.5 -5.3,5.4 -10.1,-0.3 -20.3,-0.1 -30.5,-0.1 z"
   id="path6789"
   inkscape:connector-curvature="0"
   style="fill:#ffffff" />
	<path
   class="st1"
   d="m 308.9,1155.6 c -9.6,0 -19.2,-0.2 -28.8,0.1 -4.6,0.2 -6.5,-0.8 -6.5,-6 0.3,-19.2 0.3,-38.4 0,-57.5 -0.1,-4.6 0.8,-6.5 6,-6.5 19.8,0.3 39.5,0.3 59.3,0 4.6,-0.1 6.5,0.8 6.5,6 -0.3,19.2 -0.4,38.4 0,57.5 0.1,5.8 -2,6.6 -7,6.4 -9.8,-0.2 -19.7,0 -29.5,0 z"
   id="path6791"
   inkscape:connector-curvature="0"
   style="fill:#ffffff" />
	<path
   class="st1"
   d="m 401,1085.9 c 9.9,0 19.8,0.2 29.6,-0.1 4.1,-0.1 5.5,1 5.4,5.3 -0.2,19.8 -0.2,39.5 0,59.3 0,4.1 -1,5.5 -5.3,5.4 -20.3,-0.2 -40.7,-0.2 -61,0 -4.1,0 -5.5,-1 -5.4,-5.3 0.2,-19.8 0.2,-39.5 0,-59.3 0,-4.1 1,-5.5 5.3,-5.4 10.5,0.3 21,0.1 31.4,0.1 z"
   id="path6793"
   inkscape:connector-curvature="0"
   style="fill:#ffffff" />
	<path
   class="st1"
   d="m 488.8,1155.6 c -10.2,0 -20.3,-0.2 -30.5,0.1 -3.8,0.1 -4.9,-1 -4.9,-4.9 0.2,-20 0.2,-40.1 0,-60.2 0,-3.8 1,-4.9 4.9,-4.9 20.6,0.2 41.3,0.2 61.9,0 3.8,0 4.9,1 4.9,4.9 -0.2,20 -0.2,40.1 0,60.2 0,3.8 -1,5 -4.9,4.9 -10.5,-0.2 -21,-0.1 -31.4,-0.1 z"
   id="path6795"
   inkscape:connector-curvature="0"
   style="fill:#ffffff" />
	<path
   class="st1"
   d="m 1110.2,395.1 c -10.2,0 -20.3,-0.2 -30.5,0.1 -4.2,0.1 -5.4,-1.2 -5.3,-5.3 0.2,-19.8 0.2,-39.5 0,-59.3 0,-4.2 1.2,-5.4 5.3,-5.3 20.3,0.2 40.7,0.2 61,0 4.2,0 5.4,1.2 5.3,5.3 -0.2,19.8 -0.2,39.5 0,59.3 0,4.2 -1.1,5.5 -5.3,5.3 -10.2,-0.3 -20.3,-0.1 -30.5,-0.1 z"
   id="path6797"
   inkscape:connector-curvature="0"
   style="fill:#ffffff" />
	<path
   class="st1"
   d="m 417.7,430 c -10.2,0 -20.3,-0.2 -30.5,0.1 -4.2,0.1 -5.4,-1.2 -5.3,-5.3 0.2,-19.8 0.2,-39.5 0,-59.3 0,-4.2 1.2,-5.4 5.3,-5.3 20.3,0.2 40.7,0.2 61,0 4.2,0 5.4,1.2 5.3,5.3 -0.2,19.8 -0.2,39.5 0,59.3 0,4.2 -1.1,5.5 -5.3,5.3 C 438,429.8 427.9,430 417.7,430 Z"
   id="path6799"
   inkscape:connector-curvature="0"
   style="fill:#ffffff" />
	<path
   class="st1"
   d="m 757.5,1155.6 c -10.2,0 -20.3,-0.1 -30.5,0.1 -3.7,0.1 -5,-0.9 -5,-4.8 0.2,-20 0.2,-40.1 0,-60.2 0,-3.7 0.9,-5 4.8,-5 20.6,0.2 41.3,0.2 61.9,0 3.7,0 5,0.9 5,4.8 -0.2,20 -0.2,40.1 0,60.2 0.1,4.8 -2,5 -5.7,4.9 -10.2,-0.1 -20.4,0 -30.5,0 z"
   id="path6801"
   inkscape:connector-curvature="0"
   style="fill:#ffffff" />
	<path
   class="st1"
   d="m 1285.5,831.2 c 9.9,0 19.8,0.2 29.6,-0.1 4.2,-0.1 5.4,1.2 5.3,5.3 -0.2,19.8 -0.2,39.5 0,59.3 0,4.2 -1.2,5.4 -5.3,5.3 -20.3,-0.2 -40.7,-0.2 -61,0 -4.2,0 -5.4,-1.2 -5.3,-5.3 0.2,-19.8 0.2,-39.5 0,-59.3 0,-4.2 1.1,-5.5 5.3,-5.3 10.5,0.3 20.9,0.1 31.4,0.1 z"
   id="path6803"
   inkscape:connector-curvature="0"
   style="fill:#ffffff" />
	<path
   class="st1"
   d="m 1019.5,1085.9 c 10.2,0 20.3,0.2 30.5,-0.1 4.2,-0.1 5.4,1.1 5.3,5.3 -0.2,19.8 -0.2,39.5 0,59.3 0,4.2 -1.1,5.4 -5.3,5.3 -20.3,-0.2 -40.7,-0.2 -61,0 -4.2,0 -5.4,-1.1 -5.3,-5.3 0.2,-19.8 0.2,-39.5 0,-59.3 0,-4.2 1.1,-5.5 5.3,-5.3 10.1,0.3 20.3,0.1 30.5,0.1 z"
   id="path6805"
   inkscape:connector-curvature="0"
   style="fill:#ffffff" />
	<path
   class="st1"
   d="m 1110.2,1085.9 c 10.2,0 20.3,0.2 30.5,-0.1 4.2,-0.1 5.4,1.2 5.3,5.4 -0.2,19.8 -0.2,39.5 0,59.3 0,4.2 -1.2,5.4 -5.4,5.3 -20.3,-0.2 -40.7,-0.2 -61,0 -4.2,0 -5.4,-1.2 -5.3,-5.3 0.2,-19.8 0.2,-39.5 0,-59.3 0,-4.2 1.2,-5.4 5.4,-5.3 10.2,0.2 20.3,0 30.5,0 z"
   id="path6807"
   inkscape:connector-curvature="0"
   style="fill:#ffffff" />
	<path
   class="st1"
   d="m 1199.9,1085.9 c 9.9,0 19.8,0.2 29.6,-0.1 4.1,-0.1 5.5,0.9 5.4,5.2 -0.2,19.8 -0.2,39.5 0,59.3 0,4 -0.9,5.5 -5.2,5.4 -20.3,-0.2 -40.7,-0.2 -61,0 -4,0 -5.5,-0.9 -5.4,-5.2 0.2,-19.8 0.3,-39.5 0,-59.3 -0.1,-5.2 2.2,-5.5 6.2,-5.4 10.1,0.2 20.3,0.1 30.4,0.1 z"
   id="path6809"
   inkscape:connector-curvature="0"
   style="fill:#ffffff" />
	<path
   class="st1"
   d="m 1285.2,1155.6 c -10.2,0 -20.3,-0.2 -30.5,0.1 -4.3,0.1 -6,-0.8 -5.9,-5.6 0.3,-19.5 0.2,-38.9 0,-58.4 0,-4.3 0.8,-6 5.6,-5.9 20,0.3 40.1,0.2 60.2,0 4.3,0 6,0.8 5.9,5.6 -0.3,19.5 -0.3,38.9 0,58.4 0.1,5.4 -2.1,6 -6.6,5.9 -9.5,-0.3 -19.1,-0.1 -28.7,-0.1 z"
   id="path6811"
   inkscape:connector-curvature="0"
   style="fill:#ffffff" />
	<path
   class="st1"
   d="m 1371.4,1155.6 c -10.2,0 -20.3,-0.2 -30.5,0.1 -3.8,0.1 -4.9,-1 -4.9,-4.9 0.2,-20 0.2,-40.1 0,-60.2 0,-3.8 1,-4.9 4.9,-4.9 20.6,0.2 41.3,0.2 61.9,0 3.8,0 4.9,1 4.9,4.9 -0.2,20 -0.2,40.1 0,60.2 0,3.8 -1,5 -4.9,4.9 -10.4,-0.2 -20.9,-0.1 -31.4,-0.1 z"
   id="path6813"
   inkscape:connector-curvature="0"
   style="fill:#ffffff" />
	<path
   class="st1"
   d="m 757.8,410.8 c 10.2,0 20.3,0.2 30.5,-0.1 4.2,-0.1 5.4,1.2 5.3,5.3 -0.2,19.8 -0.2,39.5 0,59.3 0,4.2 -1.2,5.4 -5.3,5.3 -20.3,-0.2 -40.7,-0.2 -61,0 -4.2,0 -5.4,-1.2 -5.3,-5.3 0.2,-19.8 0.2,-39.5 0,-59.3 0,-4.2 1.1,-5.5 5.3,-5.3 10.2,0.3 20.4,0.1 30.5,0.1 z"
   id="path6815"
   inkscape:connector-curvature="0"
   style="fill:#ffffff" />
	<path
   class="st1"
   d="m 222.3,1239.4 c -10.2,0 -20.3,-0.2 -30.5,0.1 -4.2,0.1 -5.4,-1.2 -5.3,-5.3 0.2,-19.8 0.2,-39.5 0,-59.3 0,-4.2 1.2,-5.4 5.3,-5.3 20.3,0.2 40.7,0.2 61,0 4.2,0 5.4,1.2 5.3,5.3 -0.2,19.8 -0.2,39.5 0,59.3 0,4.2 -1.1,5.5 -5.3,5.3 -10.1,-0.3 -20.3,-0.1 -30.5,-0.1 z"
   id="path6817"
   inkscape:connector-curvature="0"
   style="fill:#ffffff" />
	<path
   class="st1"
   d="m 309.5,1239.4 c -10.2,0 -20.3,-0.2 -30.5,0.1 -4.2,0.1 -5.4,-1.2 -5.3,-5.3 0.2,-19.8 0.2,-39.5 0,-59.3 0,-4.2 1.2,-5.4 5.3,-5.3 20.3,0.2 40.7,0.2 61,0 4.2,0 5.4,1.2 5.3,5.3 -0.2,19.8 -0.2,39.5 0,59.3 0,4.2 -1.1,5.5 -5.3,5.3 -10.1,-0.3 -20.3,-0.1 -30.5,-0.1 z"
   id="path6819"
   inkscape:connector-curvature="0"
   style="fill:#ffffff" />
	<path
   class="st1"
   d="m 400.5,1169.6 c 9.9,0 19.8,0.2 29.6,-0.1 4.3,-0.1 6,0.8 5.9,5.6 -0.3,19.5 -0.2,38.9 0,58.4 0,4.3 -0.8,6 -5.6,5.9 -20,-0.3 -40.1,-0.2 -60.2,0 -4.3,0 -6,-0.8 -5.9,-5.6 0.3,-19.5 0.3,-38.9 0,-58.4 -0.1,-5.4 2.1,-6 6.6,-5.9 9.9,0.3 19.8,0.1 29.6,0.1 z"
   id="path6821"
   inkscape:connector-curvature="0"
   style="fill:#ffffff" />
	<path
   class="st1"
   d="m 489.2,1239.4 c -10.2,0 -20.3,-0.2 -30.5,0.1 -4.1,0.1 -5.4,-1.1 -5.4,-5.3 0.2,-19.8 0.2,-39.5 0,-59.3 0,-4.1 1.1,-5.4 5.3,-5.4 20.3,0.2 40.7,0.2 61,0 4.1,0 5.4,1.1 5.4,5.3 -0.2,19.8 -0.2,39.5 0,59.3 0,4.1 -1.1,5.5 -5.3,5.4 -10.1,-0.3 -20.3,-0.1 -30.5,-0.1 z"
   id="path6823"
   inkscape:connector-curvature="0"
   style="fill:#ffffff" />
	<path
   class="st1"
   d="m 1284,480.6 c -9.6,0 -19.2,-0.2 -28.8,0.1 -4.6,0.1 -6.6,-0.6 -6.5,-6 0.3,-19.5 0.3,-38.9 0,-58.4 -0.1,-4.9 1.8,-5.6 6,-5.6 20,0.2 40.1,0.3 60.2,0 4.9,-0.1 5.6,1.8 5.6,6 -0.2,19.5 -0.3,38.9 0,58.4 0.1,4.9 -1.8,5.7 -6,5.6 -10.1,-0.3 -20.3,-0.1 -30.5,-0.1 z"
   id="path6825"
   inkscape:connector-curvature="0"
   style="fill:#ffffff" />
	<path
   class="st1"
   d="m 400.8,494.5 c 9.6,0 19.2,0.2 28.8,-0.1 4.5,-0.1 6.7,0.5 6.6,5.9 -0.4,19.5 -0.3,38.9 0,58.4 0.1,4.8 -1.6,5.7 -5.9,5.6 -20,-0.2 -40.1,-0.3 -60.2,0 -4.8,0.1 -5.7,-1.6 -5.6,-5.9 0.2,-19.5 0.3,-38.9 0,-58.4 -0.1,-4.8 1.6,-5.8 5.9,-5.6 10.1,0.3 20.2,0.1 30.4,0.1 z"
   id="path6827"
   inkscape:connector-curvature="0"
   style="fill:#ffffff" />
	<path
   class="st1"
   d="m 758.6,1169.6 c 9.9,0 19.8,0.2 29.6,-0.1 4.1,-0.1 5.5,1 5.4,5.3 -0.2,19.8 -0.2,39.5 0,59.3 0,4.1 -1,5.5 -5.3,5.4 -20.3,-0.2 -40.7,-0.2 -61,0 -4.1,0 -5.5,-1 -5.4,-5.3 0.2,-19.8 0.2,-39.5 0,-59.3 0,-4.1 1,-5.5 5.3,-5.4 10.5,0.3 21,0.1 31.4,0.1 z"
   id="path6829"
   inkscape:connector-curvature="0"
   style="fill:#ffffff" />
	<path
   class="st1"
   d="m 488.3,648 c -9.9,0 -19.8,-0.2 -29.6,0.1 -4.2,0.1 -5.4,-1.1 -5.4,-5.3 0.2,-19.8 0.2,-39.5 0,-59.3 0,-4.2 1.1,-5.4 5.3,-5.3 20.3,0.2 40.7,0.2 61,0 4.2,0 5.4,1.1 5.3,5.3 -0.2,19.8 -0.2,39.5 0,59.3 0,4.2 -1.1,5.5 -5.3,5.3 -10.3,-0.3 -20.8,-0.1 -31.3,-0.1 z"
   id="path6831"
   inkscape:connector-curvature="0"
   style="fill:#ffffff" />
	<path
   class="st1"
   d="m 757.9,578.3 c 10.2,0 20.3,0.2 30.5,-0.1 4.2,-0.1 5.4,1.2 5.3,5.4 -0.2,19.8 -0.2,39.5 0,59.3 0,4.2 -1.2,5.4 -5.4,5.3 -20.3,-0.2 -40.7,-0.2 -61,0 -4.2,0 -5.4,-1.2 -5.3,-5.4 0.2,-19.8 0.2,-39.5 0,-59.3 0,-4.2 1.2,-5.4 5.4,-5.3 10.1,0.2 20.3,0.1 30.5,0.1 z"
   id="path6833"
   inkscape:connector-curvature="0"
   style="fill:#ffffff" />
	<path
   class="st1"
   d="m 1020.3,1169.6 c 9.9,0 19.8,0.2 29.6,-0.1 4.1,-0.1 5.5,1 5.4,5.3 -0.2,19.8 -0.2,39.5 0,59.3 0,4.1 -1,5.5 -5.3,5.4 -20.3,-0.2 -40.7,-0.2 -61,0 -4.1,0 -5.5,-1 -5.4,-5.3 0.2,-19.8 0.2,-39.5 0,-59.3 0,-4.1 1,-5.5 5.3,-5.4 10.5,0.3 20.9,0.1 31.4,0.1 z"
   id="path6835"
   inkscape:connector-curvature="0"
   style="fill:#ffffff" />
	<path
   class="st1"
   d="m 1110.2,1169.6 c 10.2,0 20.3,0.2 30.5,-0.1 4.3,-0.1 5.3,1.3 5.3,5.4 -0.2,19.8 -0.2,39.5 0,59.3 0,4.3 -1.3,5.3 -5.4,5.3 -20.3,-0.2 -40.7,-0.2 -61,0 -4.3,0 -5.3,-1.3 -5.3,-5.4 0.2,-19.8 0.2,-39.5 0,-59.3 0,-4.3 1.3,-5.4 5.4,-5.3 10.2,0.3 20.4,0.1 30.5,0.1 z"
   id="path6837"
   inkscape:connector-curvature="0"
   style="fill:#ffffff" />
	<path
   class="st1"
   d="m 1199.8,1239.4 c -10.2,0 -20.3,-0.2 -30.5,0.1 -4.2,0.1 -6.1,-0.7 -6,-5.6 0.3,-19.5 0.2,-38.9 0,-58.4 0,-4.2 0.7,-6.1 5.6,-6 20,0.3 40.1,0.2 60.1,0 4.2,0 6.1,0.7 6,5.6 -0.3,19.5 -0.3,38.9 0,58.4 0.1,5.3 -1.9,6.1 -6.5,6 -9.5,-0.3 -19.1,-0.1 -28.7,-0.1 z"
   id="path6839"
   inkscape:connector-curvature="0"
   style="fill:#ffffff" />
	<path
   class="st1"
   d="m 1284,1239.4 c -9.6,0 -19.2,-0.2 -28.8,0.1 -4.6,0.1 -6.6,-0.6 -6.5,-6 0.3,-19.5 0.3,-38.9 0,-58.4 -0.1,-4.9 1.8,-5.6 6,-5.6 20,0.2 40.1,0.3 60.2,0 4.9,-0.1 5.6,1.8 5.6,6 -0.2,19.5 -0.3,38.9 0,58.4 0.1,4.9 -1.8,5.7 -6,5.6 -10.1,-0.3 -20.3,-0.1 -30.5,-0.1 z"
   id="path6841"
   inkscape:connector-curvature="0"
   style="fill:#ffffff" />
	<path
   class="st1"
   d="m 1371,1239.4 c -9.9,0 -19.8,-0.2 -29.6,0.1 -4.2,0.1 -5.4,-1.2 -5.3,-5.3 0.2,-19.8 0.2,-39.5 0,-59.3 0,-4.2 1.2,-5.4 5.3,-5.3 20.3,0.2 40.7,0.2 61,0 4.2,0 5.4,1.2 5.3,5.3 -0.2,19.8 -0.2,39.5 0,59.3 0,4.2 -1.1,5.5 -5.3,5.3 -10.5,-0.3 -21,-0.1 -31.4,-0.1 z"
   id="path6843"
   inkscape:connector-curvature="0"
   style="fill:#ffffff" />
	<path
   class="st1"
   d="m 1018.7,648 c -9.9,0 -19.8,-0.2 -29.6,0.1 -4.1,0.1 -5.5,-0.9 -5.4,-5.2 0.2,-19.8 0.2,-39.5 0,-59.3 0,-4 0.9,-5.5 5.2,-5.4 20.3,0.2 40.7,0.2 61,0 4,0 5.5,0.9 5.4,5.2 -0.2,19.8 -0.3,39.5 0,59.3 0.1,5.2 -2.2,5.5 -6.2,5.4 -10,-0.2 -20.2,-0.1 -30.4,-0.1 z"
   id="path6845"
   inkscape:connector-curvature="0"
   style="fill:#ffffff" />
	<path
   class="st1"
   d="m 1199.2,578.3 c 10.2,0 20.3,0.2 30.5,-0.1 4.2,-0.1 5.4,1.2 5.3,5.4 -0.2,19.8 -0.2,39.5 0,59.3 0,4.2 -1.2,5.4 -5.4,5.3 -20.3,-0.2 -40.7,-0.2 -61,0 -4.2,0 -5.4,-1.2 -5.3,-5.4 0.2,-19.8 0.2,-39.5 0,-59.3 0,-4.2 1.2,-5.4 5.4,-5.3 10.1,0.2 20.3,0.1 30.5,0.1 z"
   id="path6847"
   inkscape:connector-curvature="0"
   style="fill:#ffffff" />
	<path
   class="st1"
   d="m 1371.8,648 c -10.2,0 -20.3,-0.2 -30.5,0.1 -4.2,0.1 -5.4,-1.2 -5.3,-5.3 0.2,-19.8 0.2,-39.5 0,-59.3 0,-4.2 1.2,-5.4 5.3,-5.3 20.3,0.2 40.7,0.2 61,0 4.2,0 5.4,1.2 5.3,5.3 -0.2,19.8 -0.2,39.5 0,59.3 0,4.2 -1.1,5.5 -5.3,5.3 -10.1,-0.3 -20.3,-0.1 -30.5,-0.1 z"
   id="path6849"
   inkscape:connector-curvature="0"
   style="fill:#ffffff" />
	<path
   class="st1"
   d="m 222.9,731.8 c -10.2,0 -20.3,-0.2 -30.5,0.1 -4.3,0.1 -6,-0.8 -5.9,-5.6 0.3,-19.5 0.2,-38.9 0,-58.4 0,-4.3 0.8,-6 5.6,-5.9 20,0.3 40.1,0.2 60.2,0 4.3,0 6,0.8 5.9,5.6 -0.3,19.5 -0.3,38.9 0,58.4 0.1,5.4 -2.1,6 -6.6,5.9 -9.5,-0.3 -19.1,-0.1 -28.7,-0.1 z"
   id="path6851"
   inkscape:connector-curvature="0"
   style="fill:#ffffff" />
	<path
   class="st1"
   d="m 988.1,84.6 c -10.2,0 -20.3,-0.2 -30.5,0.1 -4.2,0.1 -5.4,-1.2 -5.3,-5.3 0.2,-19.2 0.2,-38.4 0,-57.5 0,-4.2 1.2,-5.4 5.3,-5.3 20.9,0.2 41.8,0.2 62.8,0 4.2,0 5.4,1.2 5.3,5.3 -0.2,19.2 -0.2,38.4 0,57.5 0,4.2 -1.1,5.5 -5.3,5.3 -10.8,-0.3 -21.6,-0.1 -32.3,-0.1 z"
   id="path6853"
   inkscape:connector-curvature="0"
   style="fill:#ffffff" />
</g>

</svg>