<?xml version="1.0" encoding="UTF-8" standalone="no"?>
<!-- Generator: Adobe Illustrator 21.1.0, SVG Export Plug-In . SVG Version: 6.00 Build 0)  -->

<svg
   xmlns:dc="http://purl.org/dc/elements/1.1/"
   xmlns:cc="http://creativecommons.org/ns#"
   xmlns:rdf="http://www.w3.org/1999/02/22-rdf-syntax-ns#"
   xmlns:svg="http://www.w3.org/2000/svg"
   xmlns="http://www.w3.org/2000/svg"
   xmlns:sodipodi="http://sodipodi.sourceforge.net/DTD/sodipodi-0.dtd"
   xmlns:inkscape="http://www.inkscape.org/namespaces/inkscape"
   version="1.1"
   id="Layer_1"
   x="0px"
   y="0px"
   viewBox="0 0 2050.1 2194.1"
   xml:space="preserve"
   sodipodi:docname="der_wanderer-tile.svg"
   inkscape:version="0.92.3 (unknown)"
   width="2050.1001"
   height="2194.1001"><metadata
   id="metadata11"><rdf:RDF><cc:Work
       rdf:about=""><dc:format>image/svg+xml</dc:format><dc:type
         rdf:resource="http://purl.org/dc/dcmitype/StillImage" /><dc:title></dc:title></cc:Work></rdf:RDF></metadata><defs
   id="defs9" /><sodipodi:namedview
   pagecolor="#ffffff"
   bordercolor="#666666"
   borderopacity="1"
   objecttolerance="10"
   gridtolerance="10"
   guidetolerance="10"
   inkscape:pageopacity="0"
   inkscape:pageshadow="2"
   inkscape:window-width="1413"
   inkscape:window-height="802"
   id="namedview7"
   showgrid="false"
   inkscape:zoom="0.16651379"
   inkscape:cx="214.09502"
   inkscape:cy="972.57172"
   inkscape:window-x="61"
   inkscape:window-y="27"
   inkscape:window-maximized="0"
   inkscape:current-layer="Layer_1" />
<style
   type="text/css"
   id="style2">
	.st0{fill:#305FA9;}
</style>
<path
   class="st0"
   d="m 2445.4,1645.1998 -8.3,6.6 -32,-3.9 -36.9,16 -2.2,-9.9 12.7,-30.9 5.5,-22 -10.5,-30.9 -18.7,-35.8 -15.4,-0.6 -33.1,-2.2 -45.2,-12.1 -40.2,-28.7 -30.3,-16.5 c 0,0 -24.2,-6.6 -29.2,-7.2 -5,-0.6 -24.2,16.5 -24.2,16.5 l -7.2,18.2 -7.7,14.3 v 15.4 c 0,0 -5.5,19.8 -7.2,22 -1.7,2.2 -5.5,17.1 -5.5,17.1 0,0 -5.5,27 -6.1,29.2 -0.6,2.2 -27,8.3 -27,8.3 l -5,-5.5 17.1,-31.4 -7.2,-22 -1.1,-46.3 8.3,-27 -7.2,-24.2 c 0,0 -14.3,-12.7 -16,-14.3 -1.7,-1.7 -13.2,-19.8 -13.2,-19.8 l -19.3,-1.7 -15.4,-12.7 -30.9,-1.7 -23.7,-5 -54.6,-13.8 -63.9,-3.9 -40.1,11 -8.3,-19.4 -20.7,-31.4 -23.6,-38.4 -11.6,-7 -21.5,-9.5 16.1,-5.8 -2.1,-11.6 -14.9,-21.1 -14.9,-17.8 -15.3,-17.4 -9.5,-17.8 -12.4,-8.3 -14.1,-8.7 v -21.9 -24 l -9.5,-14.9 -24.4,-16.1 -14.1,-12.4 -11.6,-12 -16.9,-8.7 -9.9,-13.6 -14.9,-10.3 -7,-13.2 -22.7,-12 -21.9,-15.7 -5.8,-13.6 -11.6,-6.6 -43,-171.9 -28.9,-105.4 -24,-91.8 13.6,-7 19,-16.5 4.1,-11.2 -4.5,-8.3 15.3,-14.5 9.9,-12 8.7,-13.2 21.1,-36.4 9.5,-27.7 7.9,-14.9 -5.8,-16.5 -3.7,-20.3 -9.1,-12 -5.8,-23.1 -9.5,-14.5 -12,-12.8 v -12.4 l -7,-9.9 -2.5,-5 v -10.3 l -7,-12 v -10.7 l -10.3,-12.8 v -5.4 -16.1 l -4.5,-8.7 -14.5,-15.3 -16.1,-11.2 c 0,0 -14.9,0.4 -16.9,0.4 -2,0 -21.5,-14.9 -21.5,-14.9 l -22.7,-13.2 -17.4,-12.4 -3.7,-11.6 -3.3,-10.7 -10.3,-9.1 -3.7,-9.1 8.3,-8.3 8.7,-16.5 7,-11.6 -1.2,-11.199994 -2.9,-5.4 13.6,-28.9 -4.5,-21.9 -19.4,-17.4 -30.6,-18.9999989688 h -29.1 l -33.5,3.6999998688 -26,14.4999991 -20.3,31.8 3.7,24.4 16.5,17.8 7.4,11.199994 4.5,30.6 9.1,20.7 c 0,0 -7,5.8 -8.3,7 -1.2,1.2 -7.4,12 -8.7,12.4 -1.2,0.4 -14.9,19.4 -14.9,19.4 l -35.5,21.1 -28.1,13.2 -14.1,21.1 -7.4,9.1 -4.1,18.2 v 18.6 l -4.1,10.7 -0.4,34.7 4.5,6.6 -5.8,10.3 -12,47.5 c 0,0 -6.2,30.2 -7,31.8 -0.8,1.7 -6.6,13.2 -6.6,13.2 l -4.2,19 c 0,0 3.7,21.5 4.1,22.7 0.4,1.2 -4.1,13.2 -4.1,13.2 l -3.3,51.7 7.4,59.9 -4.5,26 -9.9,16.5 -12,14.1 2.1,10.3 14.1,2.5 -16.9,23.6 -0.4,27.3 4.5,67.4 -3.3,69 7.4,114.5 6.6,48.4 -8.3,14.1 -7,-0.8 -11.6,-0.4 -13.2,-5.8 -15.7,-8.7 -15.7,-9.5 -20.3,4.1 -21.5,10.3 -9.5,-6.6 c 0,0 -31,9.5 -33.1,9.9 -2.1,0.4 -19.4,-0.8 -21.1,-0.8 -1.7,0 -17.4,-6.2 -17.4,-6.2 l -18.6,-10.7 -19,2.1 -26.5,14.9 -24.8,14.1 -16.5,-5 -25.6,-5.8 c 0,0 -14.5,4.1 -15.7,4.1 -1.2,0 -9.9,-4.1 -9.9,-4.1 0,0 -24.4,4.5 -26,5 -1.7,0.4 -22.7,28.5 -22.7,28.5 l -35.5,52.5 -16.5,40.9 19.4,35.1 30.6,31.8 25.6,24.8 1.7,24.8 v 43.8 l 13.6,15.7 21.9,15.3 v 13.6 l 11.4,10.5 4.4,19.3 -79.4,-35.3 -11,6.6 -1.1,43 2.2,60.6 15.4,20.4 10.5,12.1 8.3,13.8 c 0,0 -11,11 -13.8,11.6 -2.8,0.6 -48.5,24.8 -50.1,24.8 -1.7,0 -70,11 -70,11 v -22.6 l -10.5,-3.3 -5,-7.7 -7.2,-11 -16.5,-5 -18.7,-11.6 -17.6,2.8 -23.1,11 h -35.8 c 0,0 -28.1,9.9 -29.8,9.9 -1.7,0 -23.1,13.8 -23.1,13.8 l -22.6,24.2 -4.4,16 -15.4,-6.1 -18.7,2.8 -15.4,8.8 -26.5,5.5 -46.8,22 -10.5,16.5 -9.4,36.4 -8.8,40.2 3.9,28.1 -25.3,14.9 -44.1,2.2 -29.8,7.7 -24,24.2 -32,399.3 h 2209.4 364.5 z m -1196.6,-745.3 -11.6,2.5 -33.5,5.8 -21.5,16.5 -21.5,50.4 1.2,11.2 12.4,26.5 -16.1,-5 -17.8,7.4 -3.7,18.6 5.4,11.6 -12.4,10.3 -1.2,25.6 17.8,17.8 c 0,0 -14.5,0.4 -16.5,0 -2,-0.4 -20.3,-7 -20.3,-7 l -20.7,-10.7 7.4,-12.8 7.4,-30.6 7.4,-35.5 4.5,-36.4 3.7,-33.9 7.4,-30.2 -5,-42.6 -6.6,-30.2 43.4,9.5 17.4,-3.7 3.3,-7.9 h 11.2 l 21.9,6.6 7,8.3 8.7,-1.2 9.1,-3.3 h 14.5 l 3.7,8.3 -8.7,35.5 z m 93,-467.5 7,-10.7 2.1,-19.8 7,-16.5 9.5,12.4 2.3,13.6 12.6,9.9 1.7,18.6 8.7,5.8 5,14.9 -7.9,10.7 v 14.5 l -5.8,6.2 -11.6,30.2 h -6.6 l -7.9,-23.6 -8.1,-19 -8.1,-28.5 v -18.7 z m 91.7,522.9 c -3.7,-1.7 -19,-24.8 -20.7,-25.2 -1.7,-0.4 -12,-13.2 -12,-13.2 h -19.4 l -24.4,5.4 -14.9,-10.7 5,-20.3 6.6,-42.6 7.9,9.5 16.1,-7.9 1.7,-8.3 v -10.7 c 0,0 26.5,-10.7 27.7,-11.2 1.2,-0.4 5.8,-11.2 5.8,-11.2 l 7.9,-10.3 45.9,177.3 c -0.1,0 -29.5,-19 -33.2,-20.6 z"
   id="path4"
   inkscape:connector-curvature="0"
   style="fill:#305fa9" />
</svg>