<?xml version="1.0" encoding="utf-8"?>
<!-- Generator: Adobe Illustrator 21.1.0, SVG Export Plug-In . SVG Version: 6.00 Build 0)  -->
<svg version="1.1" id="Layer_1" xmlns="http://www.w3.org/2000/svg" xmlns:xlink="http://www.w3.org/1999/xlink" x="0px" y="0px"
	 viewBox="0 0 2834.6 2834.6" style="enable-background:new 0 0 2834.6 2834.6;" xml:space="preserve">
<style type="text/css">
	.st0{fill:#305FA9;}
</style>
<path class="st0" d="M2575.7,1965.2l-8.3,6.6l-32-3.9l-36.9,16l-2.2-9.9l12.7-30.9l5.5-22l-10.5-30.9l-18.7-35.8l-15.4-0.6
	l-33.1-2.2l-45.2-12.1l-40.2-28.7l-30.3-16.5c0,0-24.2-6.6-29.2-7.2c-5-0.6-24.2,16.5-24.2,16.5l-7.2,18.2l-7.7,14.3v15.4
	c0,0-5.5,19.8-7.2,22c-1.7,2.2-5.5,17.1-5.5,17.1s-5.5,27-6.1,29.2c-0.6,2.2-27,8.3-27,8.3l-5-5.5l17.1-31.4l-7.2-22l-1.1-46.3
	l8.3-27l-7.2-24.2c0,0-14.3-12.7-16-14.3c-1.7-1.7-13.2-19.8-13.2-19.8l-19.3-1.7l-15.4-12.7l-30.9-1.7l-23.7-5l-54.6-13.8
	l-63.9-3.9l-40.1,11l-8.3-19.4l-20.7-31.4l-23.6-38.4l-11.6-7l-21.5-9.5l16.1-5.8l-2.1-11.6l-14.9-21.1l-14.9-17.8l-15.3-17.4
	l-9.5-17.8l-12.4-8.3l-14.1-8.7v-21.9v-24l-9.5-14.9l-24.4-16.1l-14.1-12.4l-11.6-12l-16.9-8.7l-9.9-13.6l-14.9-10.3l-7-13.2
	l-22.7-12l-21.9-15.7l-5.8-13.6l-11.6-6.6l-43-171.9l-28.9-105.4l-24-91.8l13.6-7l19-16.5l4.1-11.2l-4.5-8.3l15.3-14.5l9.9-12
	l8.7-13.2l21.1-36.4l9.5-27.7l7.9-14.9l-5.8-16.5l-3.7-20.3l-9.1-12l-5.8-23.1l-9.5-14.5l-12-12.8v-12.4l-7-9.9l-2.5-5v-10.3
	L1558,621v-10.7l-10.3-12.8v-5.4V576l-4.5-8.7l-14.5-15.3l-16.1-11.2c0,0-14.9,0.4-16.9,0.4s-21.5-14.9-21.5-14.9l-22.7-13.2
	l-17.4-12.4l-3.7-11.6l-3.3-10.7l-10.3-9.1l-3.7-9.1l8.3-8.3l8.7-16.5l7-11.6l-1.2-11.2l-2.9-5.4l13.6-28.9l-4.5-21.9l-19.4-17.4
	l-30.6-19H1363l-33.5,3.7l-26,14.5l-20.3,31.8l3.7,24.4l16.5,17.8l7.4,11.2l4.5,30.6l9.1,20.7c0,0-7,5.8-8.3,7
	c-1.2,1.2-7.4,12-8.7,12.4c-1.2,0.4-14.9,19.4-14.9,19.4l-35.5,21.1l-28.1,13.2l-14.1,21.1l-7.4,9.1l-4.1,18.2v18.6l-4.1,10.7
	l-0.4,34.7l4.5,6.6l-5.8,10.3l-12,47.5c0,0-6.2,30.2-7,31.8c-0.8,1.7-6.6,13.2-6.6,13.2l-4.2,19c0,0,3.7,21.5,4.1,22.7
	s-4.1,13.2-4.1,13.2l-3.3,51.7l7.4,59.9l-4.5,26l-9.9,16.5l-12,14.1l2.1,10.3l14.1,2.5l-16.9,23.6l-0.4,27.3l4.5,67.4l-3.3,69
	l7.4,114.5l6.6,48.4l-8.3,14.1l-7-0.8l-11.6-0.4l-13.2-5.8l-15.7-8.7l-15.7-9.5l-20.3,4.1l-21.5,10.3l-9.5-6.6c0,0-31,9.5-33.1,9.9
	s-19.4-0.8-21.1-0.8c-1.7,0-17.4-6.2-17.4-6.2l-18.6-10.7l-19,2.1l-26.5,14.9l-24.8,14.1l-16.5-5l-25.6-5.8c0,0-14.5,4.1-15.7,4.1
	c-1.2,0-9.9-4.1-9.9-4.1s-24.4,4.5-26,5c-1.7,0.4-22.7,28.5-22.7,28.5l-35.5,52.5l-16.5,40.9l19.4,35.1l30.6,31.8l25.6,24.8
	l1.7,24.8v43.8l13.6,15.7l21.9,15.3v13.6l11.4,10.5l4.4,19.3l-79.4-35.3l-11,6.6l-1.1,43l2.2,60.6l15.4,20.4l10.5,12.1l8.3,13.8
	c0,0-11,11-13.8,11.6c-2.8,0.6-48.5,24.8-50.1,24.8c-1.7,0-70,11-70,11v-22.6l-10.5-3.3l-5-7.7l-7.2-11l-16.5-5l-18.7-11.6
	l-17.6,2.8l-23.1,11h-35.8c0,0-28.1,9.9-29.8,9.9s-23.1,13.8-23.1,13.8l-22.6,24.2l-4.4,16l-15.4-6.1l-18.7,2.8l-15.4,8.8l-26.5,5.5
	l-46.8,22l-10.5,16.5l-9.4,36.4l-8.8,40.2l3.9,28.1l-25.3,14.9l-44.1,2.2l-29.8,7.7l-24,24.2l-32,399.3h2209.4h364.5L2575.7,1965.2z
	 M1379.1,1219.9l-11.6,2.5l-33.5,5.8l-21.5,16.5l-21.5,50.4l1.2,11.2l12.4,26.5l-16.1-5l-17.8,7.4l-3.7,18.6l5.4,11.6l-12.4,10.3
	l-1.2,25.6l17.8,17.8c0,0-14.5,0.4-16.5,0s-20.3-7-20.3-7l-20.7-10.7l7.4-12.8l7.4-30.6l7.4-35.5l4.5-36.4l3.7-33.9l7.4-30.2
	l-5-42.6l-6.6-30.2l43.4,9.5l17.4-3.7l3.3-7.9h11.2l21.9,6.6l7,8.3l8.7-1.2l9.1-3.3h14.5l3.7,8.3l-8.7,35.5L1379.1,1219.9z
	 M1472.1,752.4l7-10.7l2.1-19.8l7-16.5l9.5,12.4l2.3,13.6l12.6,9.9l1.7,18.6l8.7,5.8l5,14.9l-7.9,10.7v14.5l-5.8,6.2l-11.6,30.2
	h-6.6l-7.9-23.6l-8.1-19l-8.1-28.5V752.4z M1563.8,1275.3c-3.7-1.7-19-24.8-20.7-25.2c-1.7-0.4-12-13.2-12-13.2h-19.4l-24.4,5.4
	l-14.9-10.7l5-20.3l6.6-42.6l7.9,9.5l16.1-7.9l1.7-8.3v-10.7c0,0,26.5-10.7,27.7-11.2c1.2-0.4,5.8-11.2,5.8-11.2l7.9-10.3
	l45.9,177.3C1596.9,1295.9,1567.5,1276.9,1563.8,1275.3z"/>
</svg>
